<mxfile host="65bd71144e">
    <diagram id="0vJxVl6o-phB-O0P9Uhr" name="Page-1">
        <mxGraphModel dx="842" dy="864" grid="1" gridSize="10" guides="1" tooltips="1" connect="1" arrows="1" fold="1" page="1" pageScale="1" pageWidth="850" pageHeight="1100" background="none" math="0" shadow="0">
            <root>
                <mxCell id="0"/>
                <mxCell id="1" parent="0"/>
                <mxCell id="2" value="Regiones(ubicaciones geograficas en todo el mundo)" style="rounded=1;whiteSpace=wrap;html=1;fillColor=#0050ef;fontColor=#ffffff;strokeColor=#001DBC;" parent="1" vertex="1">
                    <mxGeometry x="139.31" y="10" width="120" height="60" as="geometry"/>
                </mxCell>
                <mxCell id="3" value="" style="endArrow=classic;html=1;" parent="1" edge="1">
                    <mxGeometry width="50" height="50" relative="1" as="geometry">
                        <mxPoint x="198.81" y="70" as="sourcePoint"/>
                        <mxPoint x="198.81" y="160" as="targetPoint"/>
                    </mxGeometry>
                </mxCell>
                <mxCell id="5" value="Availability Zones(2 o&amp;nbsp; 3 por region)" style="ellipse;whiteSpace=wrap;html=1;fillColor=#60a917;fontColor=#ffffff;strokeColor=#2D7600;" parent="1" vertex="1">
                    <mxGeometry x="269.31" y="160" width="120" height="80" as="geometry"/>
                </mxCell>
                <mxCell id="6" value="Availability Zones(2 o&amp;nbsp; 3 por region" style="ellipse;whiteSpace=wrap;html=1;fillColor=#60a917;fontColor=#ffffff;strokeColor=#2D7600;" parent="1" vertex="1">
                    <mxGeometry x="9.310000000000002" y="160" width="120" height="80" as="geometry"/>
                </mxCell>
                <mxCell id="7" value="Availability Zones(2 o&amp;nbsp; 3 por region)" style="ellipse;whiteSpace=wrap;html=1;fillColor=#60a917;fontColor=#ffffff;strokeColor=#2D7600;" parent="1" vertex="1">
                    <mxGeometry x="139.31" y="160" width="120" height="80" as="geometry"/>
                </mxCell>
                <mxCell id="8" value="" style="endArrow=classic;html=1;entryX=0.23;entryY=0.05;entryDx=0;entryDy=0;entryPerimeter=0;exitX=0.907;exitY=1.033;exitDx=0;exitDy=0;exitPerimeter=0;" parent="1" source="2" target="5" edge="1">
                    <mxGeometry width="50" height="50" relative="1" as="geometry">
                        <mxPoint x="219.31" y="90" as="sourcePoint"/>
                        <mxPoint x="179.31" y="180" as="targetPoint"/>
                    </mxGeometry>
                </mxCell>
                <mxCell id="9" value="" style="endArrow=classic;html=1;entryX=0.75;entryY=0;entryDx=0;entryDy=0;entryPerimeter=0;exitX=0.157;exitY=1.027;exitDx=0;exitDy=0;exitPerimeter=0;" parent="1" source="2" target="6" edge="1">
                    <mxGeometry width="50" height="50" relative="1" as="geometry">
                        <mxPoint x="149.31" y="80" as="sourcePoint"/>
                        <mxPoint x="149.31" y="170" as="targetPoint"/>
                    </mxGeometry>
                </mxCell>
                <mxCell id="10" value="1&amp;nbsp; o&amp;nbsp; mas centro de datos con energia,&amp;nbsp; redes y conectividad" style="ellipse;whiteSpace=wrap;html=1;fillColor=#1ba1e2;fontColor=#ffffff;strokeColor=#006EAF;" vertex="1" parent="1">
                    <mxGeometry x="9.310000000000002" y="320" width="120" height="80" as="geometry"/>
                </mxCell>
                <mxCell id="11" value="1 o mas centro de datos con energia redes y conectividad" style="ellipse;whiteSpace=wrap;html=1;fillColor=#1ba1e2;fontColor=#ffffff;strokeColor=#006EAF;" vertex="1" parent="1">
                    <mxGeometry x="139.31" y="320" width="120" height="80" as="geometry"/>
                </mxCell>
                <mxCell id="12" value="1 o mas centro de datos con energia redes y conectividad" style="ellipse;whiteSpace=wrap;html=1;fillColor=#1ba1e2;fontColor=#ffffff;strokeColor=#006EAF;" vertex="1" parent="1">
                    <mxGeometry x="269.31" y="320" width="120" height="80" as="geometry"/>
                </mxCell>
                <mxCell id="13" value="" style="endArrow=classic;html=1;entryX=0.5;entryY=0;entryDx=0;entryDy=0;exitX=0.157;exitY=1.027;exitDx=0;exitDy=0;exitPerimeter=0;" edge="1" parent="1" target="10">
                    <mxGeometry width="50" height="50" relative="1" as="geometry">
                        <mxPoint x="68.14999999999992" y="240" as="sourcePoint"/>
                        <mxPoint x="9.310000000000002" y="328.38" as="targetPoint"/>
                    </mxGeometry>
                </mxCell>
                <mxCell id="14" value="" style="endArrow=classic;html=1;" edge="1" parent="1">
                    <mxGeometry width="50" height="50" relative="1" as="geometry">
                        <mxPoint x="199.31" y="240" as="sourcePoint"/>
                        <mxPoint x="199.89" y="320" as="targetPoint"/>
                        <Array as="points"/>
                    </mxGeometry>
                </mxCell>
                <mxCell id="15" value="" style="endArrow=classic;html=1;entryX=0.5;entryY=0;entryDx=0;entryDy=0;exitX=0.157;exitY=1.027;exitDx=0;exitDy=0;exitPerimeter=0;" edge="1" parent="1" target="12">
                    <mxGeometry width="50" height="50" relative="1" as="geometry">
                        <mxPoint x="328.1499999999999" y="240" as="sourcePoint"/>
                        <mxPoint x="269.31" y="328.38" as="targetPoint"/>
                    </mxGeometry>
                </mxCell>
                <mxCell id="16" value="" style="shape=image;imageAspect=0;aspect=fixed;verticalLabelPosition=bottom;verticalAlign=top;labelBackgroundColor=#ede8e8;fontColor=#FFFFFF;image=data:image/png,iVBORw0KGgoAAAANSUhEUgAAAlYAAAH0CAIAAABw+/QwAAAACXBIWXMAAA7EAAAOxAGVKw4bAAAAB3RJTUUH3QwYETUR50wcIwAAAAd0RVh0QXV0aG9yAKmuzEgAAAAMdEVYdERlc2NyaXB0aW9uABMJISMAAAAKdEVYdENvcHlyaWdodACsD8w6AAAADnRFWHRDcmVhdGlvbiB0aW1lADX3DwkAAAAJdEVYdFNvZnR3YXJlAF1w/zoAAAALdEVYdERpc2NsYWltZXIAt8C0jwAAAAh0RVh0V2FybmluZwDAG+aHAAAAB3RFWHRTb3VyY2UA9f+D6wAAAAh0RVh0Q29tbWVudAD2zJa/AAAABnRFWHRUaXRsZQCo7tInAAAgAElEQVR4nOy9e3RTZb7//3l2di5t09L0QtMWApS2QOnYShEYqFKBEZhB5Iv9juBxFJfifB2OjJw1Dufr+dXf+g1z+A7iGjye05nlqY4y8hXGVT2IOIAjTNGCUK22HCgQaoHQkpReUpo017338/vjSUPodSfZuTXPa7E0TZ7s/TRN8t6fO8IYA4VCoVAo8QcT6Q1QKBQKhRIZ2EhvgEKJL65du+a9PWXKFJaln0EKJWLQjx+FEnL6+vqampouXbpkMpmGPJSRkZGfnz9//vyMjIyI7I1CiWcQjQVSKKHDarXW1dV98803464sLi5esWJFampqGHZFkQpre72z7/tI78IP0oufivQWogsqgRRKqLh06dLBgwcdDofI9SzLrlmzprS0NKS7okhI59lXb189Guld+EHhhhOR3kJ0QR2hFEpIOHPmzNGj/n05chx38ODBvr6+ioqK0GyKQqHcBc0IpVCkp6mpyV/981JXV3fmzBlp90OhUEaESiCFIjHXrl07fPhwMEc4evSob+IohUIJEVQCKRSJOXr0KMdxQR7k4MGDwR+EQqGMDZVACkVKRqx8CIC+vj4xeaQUCiUYqARSKFJSX18fhYeiUCgjQiWQQpEMq9Xa3t4enUejUCjDoRJIoUjGpUuXovyAFArFFyqBFIpkWK3WKD8ghULxhUoghSIZfX19UX5ACoXiC5VACkUyxPdCo1Ao0QCVQApFMniej/QWKBSKH1AJpFAkQ/Km84IgSHtACoXiC5VACiV6cTqdkd4ChTKRoRJIoUiGxWKRdgo8lUAKJaTQYUkUimQkJCRMmjSpp6dHkqMlJSUxTFRcpHaZDW0dTTduXTR2tT7x4x2aZG2kd0ShSAOVQMoEwWBqsdp6b3a39lk7AaBy2fbw7yEvL+/kyZNSHY3juJkzZ0p1NH8xmFraOprab11s62iyOz3liT9bTfWPMqGgEkiJPYzdrXanta2jyWo3d5kNXWaDxdbruyBBqYZISOCCBQtOnDiRnp4evCGYlpbW29u7aNEiSTYmBo53Edm7erPZYGrheNeQBeUllUV55WHbz4RHpp7S707x91lJzpZQbCZuoRJIiXYMppauPkN33w2DqcVi6+0yG8Z9it1ptdh6kxPTwrA9X1QqVVpaWk9PT0pKSn9/f8DHUavVvb29arU6JydHwu0Nx+G0ejSvs8VgGuu7NScjf+UPN4d0M/GGG1KO/u2Ev8969AFqhUsJlUBKdOFwWm92t7Z1NHX33egyG252twZ2nC6zIfwSCADr1q3705/+ZLVaVSpVYJXyKpXKbrcDwIoVK6TeHQCA2WJq62i60XmxraNJzPUEYeUPN7MyRSj2QwknPef3hvoUbFLWpBmrQn0WqaASSIkwxu7WW2ZDl9lw9WbzcJdmwHSZDXm5pZIcyi90Op1WqzWZTG63OwBbUK1W2+12nudTU1NLSyXbv7G71WBquXqzua2jKYBXeG5eeaFugVSboUSQMEhg4uRSKoEUyqiYLSaDqcXU8z2JPIXoLCQpJiJs2rTptdde4ziuv7/fr7igRqPp6+vDGDMM8+yzzwa5jbaOJiJ7NzpbvPksgbH8vqeC3AxlOJpM3f/+g6jA3tVPHncPSDCHmTIcKoGUkEPyLAymlvZbF0k8LwwnFe/ikxyVSvXkk0/+6U9/AoCenh6FQpGUlGQ2m8d4SkpKitPp9K7ZuHGjWq3297wc7/LKnoTXFuUlldkZ+VIdjUKJKqgEUkJCl9lg6Gy50Xnxhqkl4HheMNyKnAQCgE6n+4d/+IcDBw7wPO9yuVwuF8MwSUlJCoUCY+xwOHieT0pK4jiOYZj+/n6vv5RhmJ/+9KcFBQUiT2Sx9bZ1NLV3XmzraArR6zxv9spQHDbOQfLEfps7y/8nnr5gVrBMZqoiQSlLSWCVCgYh6bcXP1AJpEgGKaC+erNZb2gI0vMWPOb+CDuOCgoKtm7d+qc//en27dsAIAiCxWLxXTC880tiYuIzzzyTnp4u8hRdZsN7R6pCau8WTJ1PTUCpwMrJfQPY1GW+aerps5jSJvMFD/p9EGOPEwCud9q998gYNFmjyM1QZUxSJKpkVBD9gkogJSgstl69oYF43iKuOr5wvKvLbMjU6CK4h0mTJm3btu3MmTMnTpxwuYaW2fmiVCqXLFnywAMP+HX8TI3uF49W7/9sh97QENxOR6Wto2nfkao5M5YU6hZEJMM21kHyxH6n+npH1zWDycmH5APCC9jY4yTSCACTktjcDJUuKyFJJQvF6SYYVAIpfkOKyfQ3vvYrqz78mC2myEogYdGiRYsWLTIYDF999dX169cFQSD2n1KplMvlWVlZS5YsmTFjRmAHVynVTz+869P66vrmWkl3DQAACHiBu9BWf6GtHgDyckvvyX+wKK+cauG4MPKUrgG5/mrHzU6JZU/BMi5urPkhtwe42wPWlutWpQxNyUqYpk3UqOn3/Kggyce7UCYqBlPLxWunSMJFpPciijXlW5aUVEZ2D+3t7RzHiVzMsuyUKVMCO9HZ84cO11cPb+kSCqgWeuk8++rtq0d973HLsy+3mS5fNY72FASgUmsycwoWrXh6ZvFSMWcZMSP0qtEu8EJ7r9PtEqwOjh9dFpUyNCcveUZWAsOEw0uaOLl0yrLfh+FEkkCvDihj4XBaLxsartz4uqWtPuLhPX/p6rsRztNxHHft2rVr1661t7dfu3YtyKNNnz59ypQpU6ZMyc/PFzN9YmHx2kyNbt+RqjD8mdo6mto6mg6e3EO10AuSJ5r6VU0XWq22Ecw+hJgM7Yzs6SWz7/2RSNkblxnZCQAwc0oS+dHFCTdM9vZeZ7/V7eLuMmycPG660t90pT83Q7moSCPJ2ScMVAIpI9BlNugNDeda/x4rBt+IhC02abVav/nmm2+++cZqlUx+iJoCgEqlmj9//qJFi8Ytk8jLLX3hsZp9f62SJDUUAYzrIPJqYUnBsjkzlpQULAv+vDEHkid2mOXfNuud/NAXTC5XZs8ouff+DUVlQ0vFXf0GAFCkBOKo9/xpMICPUadgmZlTkryKeP6a1dTtuG27ywPR0U1nbw2FOkIpd9AbGlquntIbGqIqsUUkrEyh0xYlJ6ZlpE7NychXKdXh6Q7T1NR09OjRwHqhiYdl2YqKivLy8btUO5zW2hO7SPQuKMRo4N0kJ6aVzVk1b9bKaAjBhocT+15oOntiiPgxMnZ64aIlq38+Jb/Me6d7wOQ0tzr7vrffanb0tQou66QZq7IW/lrMWYIpjb/R7Wy5ZrEOamEYWoxSRyglxmi+cuLi1VMX2urDE0mSBJ22SKVQT82ao0nRapK1RPPCvAeHw1FbW9vaGo6qR47jPv/880uXLj3xxBMqlWqMlSql+onVOyRIkPH/2thi661rfL+u8X2dtmjB3IdLCpZN+LaiV1pbffVvUlpOafn/XLzq5957nOZWa8cpa8cppzmc1bEIAyYm4tQM5dQM5YBLON9m6egK7YVaLEIlMH4hrs6YCPJpUrSZqbqpWXNyMvKzM/OjYWQdx3H79u1rb28P50nb29vffffdTZs2ja2CAPCT8i3ajJkH6/ZE5LKGNAP6tL66bPaqxSWPRsPfK8SgrKmzH37y/2TmFpKf7T0tlqufWdvrOUc4eiENw6N/CBAGDABJCmbh7Ekwe1IkNhPVUAmMOwymlm8vH2tpqw9Po7LAyMstzdToMlOnZmfk67RFUWhMHDhwIMz6RzCZTPv27du0adO4OTJls1dlpurePbw9Upc4dqe1vrm2vrl2bl75grkPT8hG2zIZmzV1jlf8BJe133CiT/8RCfVFHOy15TEG2kVmJKgExgtdZkPDhU8uXK2Pwjifr5GXqdFFfySpqakpPP7PEWlvb//mm2/ETNPVaYsCS5DxPw44FqSyUJOiXXrvxpKCZeF3WYeOZ6s+ITec5tbeSwes7fU4OqMJCIHUf9aJAZXACY7F1tt48ei3l49FVQ07SV3RaYumTp4zVVsUWyn1Dofj888/j+wePv/88+LiYjGttDXJ2ucrqw98tsOvBBkcgi9Lc7/p4Mk9x87ULL7n0fKSygkjhLZbTeaLBwaMoWrQIyFU/4ZDM0InLHpDw7eXjjVf8XssdYjI1OiI5um0RTHddrK+vj7iEggAFRUVFRUV4tcfO1NT1/h+yLbjHwlK9cQQwu5zb/W2BPiqJmUv0MzZIGal8fRv+cjEFKOX9OKn0oslmOFFrcCJhtliarjwSfOVE9Hg8MzLLZ2RU5KXWxqd8bzAuHTpUqS3AADQ1NTklwSuXLRZmz6z9viuaMj7tTutx7/ee/rch7EuhLw9cGUaMDbEhO04saESOHFovnLi20vHQtcxWSQ6bRFRvgmZ/tDd3R2RLJjh9PX1mUwmrdaPZMuSgmWaZO2+I1XjZkJlpE7p7gv5rzlhhDCGGFAWjXg/5l32Hk8fjESFLCkhXlpsUwmMecwW08lv90c2wzNTo8vLLS2cel9ebunE/iLr6+uL9Bbu0N3d7ZcEAoBOW/R8ZfW4CTIVZf8wd0b5ZUNDGApGqRCGk6N/Gz8ykj8lsSQvJQybiQaoBMYwbR1Np899KEEfkIDQpGi91l5s5bMEg4Qt0IInsM2QBJna47vGjhOrlOqSgmUlBcs43nWhrT7UWkiFkBIRqATGJI2Xjp5u/jAi09h12qJ78h8s1C2I/tKFUBBVVmDAXdlYmWLDQ1UZqVOPf71XzOKwaSEVQkqYoRIYSzic1jPnD50+92GYfZ4JSnWhbsGcGUtm6RbQb6UJw4oFmzI1uhETZCwDI7zBfLWw+cqJc1f+HqLAMxHChguf/KR8S3y23g4d//sPIze+dw+Yrn7yeJg3Ew1QCYwNSMCv8eLRcKbzZWp0s3QLfpD/oE47cgidEuuUFCybrNG988n2IRdVY7/NWJmibPaqstmrzBYTqToNRfqxxdZ74LMdDRc+Wbd0W3y6HChhgEpgtBP+gB8ZAlc4bUEctHakQHZG/guP1ew7UuU7GMtqN4t5riZZu2LBphULNpF+s40Xj47/HD9p62h64y+by0srl9/31ISpq4lyOnqc10225CQ2JYFNSZInyBmVkon0pkIFlcDopa2j6fjXe9s6msJzupyM/HmzV95TsCx+clsohOTEtM3r9vgmyFj99LQX6hYU6hasXLT57PlDDRc+kdZRz/Guusb3Gy8eXbd0W1He+OOiKEHisHPGHqex567hgkoFo9UotWnKjBTFRFJEKoHRSDjFL1Ojuyf/wbI5q6jNFyQsy2ZkZFgsloGBAamOqdVqbTZbf3+/VAccDZIgo02feexMDQDcCqidXnJiGjEKGy8dbbjwibTzli223veOVBXqFqyr2Ebfq+HH6RKud9qvd9rJj5mpirzsRG2akpXFdvdtKoHRhd7QcPLb/WEQP02Kdu6M8nmzV8Z0r7KoIjEx0WQy6XQ6CSXQZDJNnz49DBJIqCh7fLJGt/+zHV1mg8NpDTj1iUQKDaaW0+c+lLZFn97Q8Pv/+9TSeRsryh6nftEQoVCxCpZxccIYa7r6XF19LgBISmDzshOmTU5QKmLSNKQSGC20tNUf/3pvqOscWJmipHDZvFkrwzNRnRJzFOWV/6Ky+r0jVbfMhiDToEgn9KXzNh7/eq+EwWyOdx3/eu+3l4+tW7ptQnYgijhTM5RTMyYDgIsTbpjsdg739LtsDt7uFIb3lB6wc//dZvnvNsukJPaemSmZqYrYsgqpBEYevaHh2Fc1oRa/TI1uyT2PTrBRNdHG9OnTGUbKa+Hp06ePOx1XcrIz8p9/tFqqJM/sjPwnVu8wdrdKK4TmftM7n2xfWLx2TfkWag6GCAXLzJyS5HtP/wDXZrT19LsH7Jybv0sObw9wX57rlTFoek5Caew0l6ESGEm6zIbD9dUh7eqZoFTfU7Bs4dyHqcMz1DAMs2nTpoMHD0p4zE2bNtXV1YW/MXdyYpq0WVEhEsKz5w+1dTT9bPUOWjURAkaYmJWSxJbme+Stf4DTtw90mp0O1x2XKS/gGyYHlUDKOFhsvce/3nv2/KHQnUKnLVow9+GSgmX0GpkSJYRCCLvMhjf+snldxbay2askOSBlkGFz9BAAvjN+PiWJnT9rEgC4OKHlmvXGLbuLi73Re1QCww3Hu+qbar/4br/dGZJukwlK9cLitfNmraTXxZToRHIh5HhX7fFdVwxfr1u6jfr5QwgGGNS/wZ8RAChYpjQ/pTQ/pee2q+l7i8PFR2qDAUAlMKw0Xzlx7ExNiCb5aVK0S+/dWDZnFTX7KNGP5ELYfOXEze7WjQ9VUZ9/uBia+JI+SbF8XnpEthIwVALDhMHU8umpamkrpbzk5ZYuuedRWjUsBrPFZO43aVK0tLYsGiBCKNWno8ts+EPtllU/3LykpFKS7VHEgxgVKJKRTH2XoTjGet7C27tCvatxoRIYchxO6+FT1aHoHQUAZXNWLbnnUXrZOxyOdxlMLUTw+qyd5n4TuU0erSh7fOWizZHdIcWLTlv0/KPVp5prj3+9N8gAAce7DtdXX73ZXLlsO3WKhhMsOMDhcLg6L92wtnbYxl2/6kfLkoBK4ESn8dLRY1/VSD7YgQT8Ft/zKG1m5ovB1GLsbr1x66Kxq3XsIpMQ+aIpwbCkpPKegmXHztQEf714oa3eYGp5YvUO2uE9zCgVTG66SowERglUAkNFl9lw8OQeyfu8JCemLZ23cWHxWhrwAwCLrVdvaDB1f2/obPHLjWa2UAmMRpIT0yqXbV9Q9PDHJ/cEWSlrsfXWHNxGM0WHYLs18jcS5/C9TMfD43wTFSqB0kO6V9Q31Uo72IiKnxe9oeGK4evLhoaugFpZArUCoxudtuiFx2rqGt8PMnGaZIpaBnorykI1CW+AU1lQyFOvXbevYYGT5lgn/knEoqD0b1J6bvlPNo6/TH2bM4YkN8IvqARKjN7QcPDkHmm/YWmqJwB0mQ1tHU1Xbnx9+XpD8NcWFlsvx7vi+fWMfirKHi+bs+rT+uogu4weO1PTZ+1ct3SbVBvz5WJb57mvQtjaQnIefSDkWWCT0nPnLtsy7rKe83t7jKHey/hQCZQMh9N68OQeaZsCa1K0y+97Kp49OV1mQ8OFTy5crZfcbjP3m2jpZJSTnJi24aGqBXMfrj2xK5g3wNnzh6y23g0PVdGLnujB0NGpkmsRAsYVSZcMlUBp0Bsaao/vkjDtJc7Fz2LrbWmrP3Xuw4BdneNitlAJjA3ycku3/rSm9sSuYMoHL7TV1xzc9vSaXTRNNEpoudhi0HsCkzKGycpMUSkUOdqMjBSFzB0+UUTDO39T/ELymgcS84vPwiaOd11oq//v1r9L2EZyNCqXb4/bK4wY5ez5Q4frq4Nxg2dqdE8/vEvCktAeU9tAf7dURxsN4+nf8g5pLq8zUkNuBydOLp2y7PfjLvu/r28y6Ef1IU9OT87VZmRlTFIzvXikv3h68VPpxU8FtVEAoFZgkBhMLbUndkllqbAyRXlp5dJ7N8bhharB1PLt5WPnrpwIUd+44dCMmJhjYfFanbaIjDMM7AhdZsMfa7c8/fAuqUpp07V56do8SQ41BvxltXsgTJ+LKOFWj+VWjwUAZAwzLTcjf5o2RWnFbulrLagEBghJ+6xrfF+qA5YULPtJ+ZY4rPNraas/+d3+EPXNGYM+a2eYz0gJnuyM/F88Wh2M34UUS2x4qIrOGowsS9e8YDJc6OzQ9/W03+5udzqsTrsV46FzenlBaLtxq+3GLQDImzq5MC8nCUt58UolMBC6zIb3jlRJZfzl5ZauKd8Sbx1eON7VePHoye/2R8oao1ZgjKJSqiuXbZ+RU3Kwbk9gTlG70/reX6t+9uMdVAUjyJT8sin5ZUPu7OrQX/jmU8OVr3tMbQ5b/5BHiRaqlOwPZk9XDNgl6UZKJdBvTjXXHv2qRpKav0yNbtWizfHW29Ni6z17/tDpcx+Gzec5IhGvjtfr9Tk5OWp13Dm9JaFs9ipdVtGBz3YEVkHP8S6qgpGFFOnL5Gql5s7Vf2ZuYUVuoffHplO1336xv+vmFYG/UxbpcHJfN7d22s9MX/i/gt8GlUA/cDitQaaleWFliqXzNlaUPR5XWdpdZsPJ7/Y3609I2zQgMMa1AvV6/TPPPENuz5o1q6Ki4oknnpBwA88888zq1atffvllCY8ZV2RqdM9XVh+urw5s7ibHuw58tmPzuj3x5oCJEuy3mnvO7yW35UlaeZJWqcmXJ09JSC/yimLpksrSJZUA0NJ49LsvD3S0NfGcxF8dVALFYuxuDSYO70tebum6pdviKiPfYuuVpPejJCQnpmVqdMmJaQ6ndYzMI4vFAgCvv/46AJw5c+bNN9988803v/zyy/BtlDIerEyxbum2qVlzao/vCuDpdqe15uC2Fx6roWNDIot7wOQeMHmbtzEKdUJ6kSp9TmL2fQnpRQBQVLaqqGwVADSdqj37t7d7b0lWK0UlUBTBZ2MTkhPTVv5wc1zl4juc1pPf7Ze8XZxIcjLyszPzU9VZZDpSADOSysrKyH+3bNly//33v/TSS7t37yYPVVdXHzhwIDMzc+vWrRUVFQCwc+dOX6tu586dW7duVavVRqPx97///ZkzZ2bNmrVjx47s7OwhZ6mrq3vjjTe6uro2bNiwZcsW7/GnTp16/vz5I0eOLFq0yHveEU9dXV09d+5cADh9+vTixYvJnXFC2exVyYlp7/21KoD3GFHBzev2UBWMHgSXdcDYMGBs6Dm/l1Gok3PLk3IXJ2UvQDIFsQtvm43dHXpJzkUlcBxIm0FJer4sLF67atHm+Cl44HjX2fOHgh9/4xeZGl1ORr42faZOW5SXWyrtwXfs2PHcc88RKVq/fn1aWtrrr7/e0dHx3HPPnTx5Mjs7+5tvvqmuriYaVldXd+TIEaKIS5cu/eUvf7lhw4YzZ8789Kc/HWJK1tXVPffcc6+99lpubu6LL7547do1cooDBw50dnZu2rRpx44dVVVVzz777FtvvTXaqcni4uLi+fPn9/cPzSOY8BTqFvyisrrm4LYA3mzmftM7n2z/xaPV8fPZjCEEl/X21aO3rx5FMkWKbllK/pqE9KJJmuxJmqHXkYFBJXAspMr8zNToKpdtj6u5LSGaEjUimRrdLN2CAt19uqyikH6LJScnkxt6vf78+fN6vR4AysrKvvzyy3feeefll1/eunVrVVUVkcA33njj5z//OQBUV1c/8MAD5M6ysrIDBw40NjYS45Lwxhtv/PKXv1y7di0AfPDBB0uXLvUafJs2bSIi+vbbb69Zs2aMUwPAI4884mspxhvZGfkvPFZTc3BbALm+XWZDzcFtz1dWx1VsPrbAvItooSJFl1q4PkW3jFFI8GGnEjgqzVdO1B7fFbz7rqLs8eX3PRU/Hy29oeHYVzVBTroZF1ammDVtQcHU+wqnLQi/C4uECdevX09+JA5MAKioqOjs7Kyrq5s1a9b58+c/+ugjALh9+/YXX3zhXQw+Uup9+qJFi8ht4iPV6/WFhYW+a7w/jnZqANBoNNL+mjGHJlm79ac1NQe3BfD2u9ndSnJE4+ejGqO4+g23vnmdd5hpd5gQUtf4/rEzNUEeJN6MP4utN/i+/mOTnJhWUrDsB/kPRuRV/eMf//jAAw+Q21lZWUThhrBp06Z9+/bde++93pUgwj4jwuZliP4BgNF4p6n+aKemAIBKqX6+svq9v1bpDX4PcNAbGg58tuOJ1TtCsTFKdEIlcCgc7zp4ck/wuYvlJZUrf7g5fq4oz54/dOxMTYjCfqxMUVK47J78ByNVxUXyWb744ouTJ08CQFlZWWdn5759+0iZhNFovHz5MslAefrpp5cuXfrFF18cPnyYPHfx4sXPPffchg0biPOzrq5u/vz5vuWAq1ev3rdvnzerpbi42PuQ2WwmN6qqqsj9Y5yaQmBliqcf3lV7YlcAn+ILbfWf1lf/pHz8WT+U0bDdatIfWBbpXYiFSuBdOJzWdw5vD7JZV3JiWuXy7fFTcttlNtSe2BWiDmd5uaXzZq+cO6M8IqkKnZ2dxCDLysqaNWsWSTwhD+3fv//FF1988803ybLXXnuN3J+dnV1cXNzV1eW15CoqKl555ZWNGzdmZWWRez744AO1Wp2ZmUl+fPnll9evX3///feTH99++23vBj7++OOPP/4YAIqLi72W34in9h6NQqhctp2VKQIoGaxvrp2RUxJvDSviFjop4g5dZsM7h7cH2TerbM6qNUu2xElqmeSNUr1kanTzZq0sKVwW5anqRqPRYrEM91uOiF6vT05OHl4RMdqh7r///jFq5/06ddxy4LMdAXjmWZli62M10VO5e/WTx90DtJ/fXdBJERLT1tG070hVMH68eDP+9IaGgyf3SN5pMy+3dMk9j8bKNXh2dvZokjacseXKr0MFsD4+qVy+3e60+hsX5HjXe0eqtj5WEz+BjLiFSiAAQOOlowG33CXk5ZZueKgqTuY8SD4ikVBSsGzpvI20W5WXDRs2kGp3SsCwMsXPfryj5uA2fx31XWZD7fFdGx6qCtHGKFECdYTCqebaw/XVwRyhouzxlYs2S7WfKEfCRnEEVqZYVLx2ccmjUe7zpMQuDqc1sEqJNeVbomF4dfMnL3K2vpCeAvNuV/91SQ7FymWpSTJJDjUG1BEqDZ83vHv8670BPz1BqY6rwWMSTsmAwV7h5SWVcRI6pUQKlVK96eFdf/xwi79++6Nf1UzNKop4XdOphgu3ezoiuwfxZKYqHrgnZvxhTKQ3EEkOntwTjP7ptEUvPFYTJ/rncFrf+WS7JI1SCQuL1/76yf0rFmyi+kcJA8mJaZvX7fE3VMHxrgN/2xGeJkeUiBC/Elh7YldgM1YIC4vXxk9r3baOpt+//1QAtcYjMjev/NdP7l+3dFuchE4pUYImWfv0w7sS/LzkMvebDnxGi+UnLPEYCyTTMoP5Ql+3dAxXynsAACAASURBVNvC4rUSbimaCdJX7EtebunKRZsj7laixDMGU0vNwW3+OjOW3/fUigWbQrOj8em42sy7nSE9BefoNZ3+rSSHYuVMalLIQ2w0FhggQepfXAX/JGkUQMjJyF9+31OxUupAmcDotEXrKrb5O1/w5Lf75+aVRypdOXdGSahP4R4wcS3xWAESX47QIPVPk6LdvG5PnOhfl9nwxgebg9e/BKV6TfmWFx6rofpHiRLKZq8qm+PfzE7SNzFE+6FEkDiyAoPUP5226Ok1u+IkdyP4RgGEuXnlj9CYHyX6WLd0m7Gr1a8yCYOp5VRzbTTUSFAkJI6swAOf7QhY/0oKlm1etydO9O/s+UPvfLI9SP1LTkx7+uFdT6zeQfWPEoWwMsUTP97hb2rM0XCNwKSEjXiRwNoTuy601Qf23JWLNm94qCpOWiV9Wl998GRQjXIAoKLs8V8/uT9OPMaUGEWTrK1ctt2vp3C8y98gIiXKiQsJDGxsCgCwMkXl8u0VZY9LvqUohONd+45U1TfXBnOQnIz8rY/VrFwUR1OiKLFLUV65v59uvaEhpBMxKWFm4scCj52pCVj/fvbjHXFiylhsve9+sj3IUe8Li9euKd9Cxc+Lsbt1RH+yxdY7pMNc2ZxVcVJjGm2sXLTZYGpp62gS/5RP66tn6RbESVhkwjPBJfDzhncDG+UTV/pntphqDm4LZuZDglJduWw7zfkcwuH6apHfrXm5pVQCI8WGh6r+/S+bxQf5LLbew6eq/XWiUqKTiewIbb5yIrCa7gSl+heV1VT/RKLTFm17fC/VP0qMkpyYtm7pNr+e0njxqF+GIyVqmbAS2NbRFFjgOkGp3rxuT5yM7Ale/yrKHn/+0Wqa9kmJaYryyksKlvn1lE+DGy9DiRImpgSaLaZ9R6oCSGtMTkx74bGaONG/LrMhGP0jfYfjZ0oUZWLzk/ItftVI3OxubQk0yZwSPUxACSSzwQIoa0tQqp9+eFechGSM3a0BzI7xkpdb+k+P783LLZV2VxRKpEhOTPP3eu7wKckGp1AixURLh+F413tHqgL4Zo8r/6exuzWwqwRC2ZxV65Zuo5mf4yLeqqAF19HAwuK1314+Jr4poLnfdPb8oYnRL8bm4D/8IvCASPgpT7beXyzBcSaaFXjw5J4AwtSsTPHE6h1U/8SwpnxL5bLtVP/EID5vnhoTUYK/7+2T3+6nf7uYZkJJYF3j+wGUAJL6hzjx6ZH4X2D6x8oUP1u9Y2Jc81IoI5Kp0S2dt1H8eoutN5ixo5SIM3EcoW0dTcfO1ATwxLiq/3vncIDNP0nPzzgxlCnxTEXZ4+da/z6kd8EYnPx2/8LitbHuF2HlymmFsfQ1OCktR5LjTBAJtNh6A5vsXLl8e5zon8Np3ffXQKKkAJCTkf/Ej3fESaIQJc5hZYpViza/d6RK5HpiCMa6dyQpJePxF9+N9C4iwARxhB74bEcACQXrlm4rm+3f2LAYheNd+z/bEVj/s0Ldgs3r9lD9o8QPRXnlOf44PGhEMHaZCBL4ecO7AaTAlJdULixeG4r9RCEHT+4JbFBUoW7Bz368g7ZDpMQby+97SvxiGhGMXWJeAts6mgLogjY3r/wn5VtCsZ8o5POGdwNrFE70L9aDHBEkVZ0lcqUj6OnEFGkpyiv3K0WOGoIxSmxLYGAhwJyM/A0PiXX0xzqNl44G1ii1pGAZ1b+wEeSAYkooWOPPVbLF1kuHKMUisS2BAYQANSnaTQ/vipNvdr2h4WDdngCeWDZnVfxMCaZQRiQ7I3+uP83fTzd/GLrNUEJEDGeEnmqu9TcEmKBU/2z1jjjp6Wy2mN77ayCNUsvmrKKDYCQhTt5pE5jl9z11QXQj0Jvdrcbu1ugpHLJarW+88YbvPYsXL66oqPC9p7GxcePGjXq9Pshz7dy58+WXXw7yIEPQ6/U5OTlqtdp7iq1bt3p/lIpYtQK7zIajX/ldBbjhoaroeYOGFI53HfhsB9W/yMKyYs1oXnCHdCeUwPDXEDx1LooMwcuXL7/77rvhOVcoTvTMM88MkfBQEJNWYGDf78vveypOSgAB4NhXNeJbHXop1C2g+hcRaI/QqMUvQ7BZf2Llos3RY/1nZWWNZpxVV1ffvn27uPiuPptGo/Gdd96ZNGnSj370IwAoLCwk9+v1+tra2kmTJm3Z4l8W4b59+wwGwxDr02g0fvTRRwDwox/9iJyisbHx2LFjALBy5cqysjIAsFqtAGA2mxsbG5OTkwsLC1euXOlrApL9V1ZWejfZ2NhYVlY24hlHvJMQk1ZgXeP7/pa4zc0rX7FgU2i2E3W0tNXXN9f6+6ycjPyf/TiQ9gIUygQmOyNf/KUzx7sCy74OJ0ajsbCw8LvvvgOA3bt3e+8/dOjQ0qVLzWbztWvX1qxZ88wzz5D7X3rpJXL72rVrXr0Rw/33319XVwcAVVVVzz77rO9Zrl27Rs7S2NgIAC+++KLZbCY3XnrpJQDYu3dvZ2fnxx9//OKLL7766qsAsHHjRrKY7P/atWsAsGbNmn379pEjb9y4sbCw8KOPPmpra3vwwQfJqQGgsLCQ3H7jjTd27tw5ZJOxZwUaTC3+pjhqUrTxY9xYbL0HT/qdAhNXWUJhQxJrwGBqkbOKOHHgRycL5z4svqz29LkPK8oeD+l+xFNfX+8rWps2bXr55ZerqqoeeOCBt956CwBWrly5caOnJ+ru3btfe+21tWvXAoBGozly5AgAGI3Gjz/++NtvvyUWmNlsrq6uFmMLEmUiZ9m6deu8efP0en1hYeHu3btfeeWVJ554AnwE+MsvvyQ3Fi9e/Nxzz+3evXvLli0HDhxYvXr1cCu2qqrqkUceIc8l68nRAMC7fwA4ffp0RUVFY2NjVlYW2QYMGpe+xJgEcryr9oR/s+BZmWLDj6rip7g7gCzZBKX66TW7osd7M2EQf0kxYl2gw2k9fKq6WX/iX56OoghTHFKUV65J0YpsLmix9ba01Rf5E0EMHeXl5V518XL58uXXX399+OLOzk6vfni5efMmADz55JPkx66urry8PDGnNhgMq1evJrfVanVWVlZDQ0NycnJnZ6dXsbzs3LnzyJEjnZ2dWVnjl9L67p84No1GY3Z2NgDk5uaS+72bzMnJ6ezsvP/++1evXj2iIzTGJPDYVzXi29cSVv1ws05bFKL9RBsBNMohg6IyNboQbYkihuF1gWfPHzr+9V6LrbdQtyB+LuCiliX3PHq4vlrk4rMXPokSCZSErKwsEroLEdXV1UeOHPnggw+ys7NJhqqEB8/Oztbr9fv27Wtubn7uueeIHey7IJZigcbuVn9DXIW6BbHevlY8gTXKqVy+PU4GRYWfwBzLjZeOvvrexoMn9xBr/p6CB6XeF8Vv7ilYJv6vqTc0mC3RO342MzPzwIED5HZHR4f3/qysrOpqj8y3tbWRG8SKIkE4wnBf4ojodDriSiVP6ezsXL58eXZ2dlZWljd6Z7VarVbr8ePHFy1aRMw43/3MmjVrxCPPmjXLu/+6urqsrCzy3DF44okniAPWuyUvsWQF+hviSlCqK5fHSwgwABcxAKxctLmkYFko9kMBgOQksb5ljndxvKv5yonjX+8d4nCLnzTmaCY5Ma2kcJn4VJdm/YloiAgSH6D3xw0bNmzZsuV3v/vdmjVrzpw5QxZ4H3399dc3btz4b//2bwDgdUhmZ2e/8sorGzdufOCBBzQazccff/zLX/5yxFjg8BO9+eab69evnz9//pEjRx555BEiVC+99NKvfvUrkp/yxRdfHD58eNOmTb/61a/MZnNvb+/58+e9B1m7di2532w2e4N5ALBjxw6StkP289prr43xChCz8pFHHiHRTZJr4wvCGI/3MkYFZ88f8lcCK5dvj5NBEADwaX11ACby0w/7rZoU8Zgtplf/LMqro5CrBEEYXueTl1u6eV0g/X0okmPsbn3jL5tFLtZpi55/VKzjNHT4Wm8AMGvWLJLVQoofSGyM1BL4PqWsrIxkTnp9hkaj8fjx47dv3/aWMYg8UV1d3enTp31LF8jRLl++3N7eTuxCGCy6GL4fvV5vsVhIUcSQfe7bt+/27dvr16/3moC+C4ipSvag1+sbGhoAwHs6X2JDAi223n//y2a/sjxKCpbFTyNQY3frH2q3+FUomZyY9sJjNTQFJhg+b3j3yo2v83JLZ+SU5OWWDneUjSWBGAABACCAMT6BKxdtjgZjgkL444dbxJfb/vrJ/bE1YuzQoUM3btxYtGjRxYsXf/Ob3/znf/7n8OSRiUdsOEJJXoD49cmJafEzCAIADtdX+9soYMNDVVT/gmTFgk1XbzbXNb5f1/g+AGhStJpkbaZGp07Q6LRF44SOkOf/Y1+BlhRSN3UUsfieR8VLYJT4QsWTkpJy/PjxAwcOzJo1K070D2JCAo3drf7O4qpcvj1+vt+br5zwNwt0+X1P0RQYSahcvv3f/7KZ5HOa+03mflMAoytHI1Ojiy0zYsIzN688QakWOdbj4rVTsSWBFRUVcSJ7vsRARmjtcf/iVWVzVsVPBgHHuz4VnatN0GmLYuuTGc1okkPYdeGefJoLGl2wMoX4ageDqSWa80IphGiXwJa2er96oSUnpq1bui10+4k2jn1V45eLOEGpplOQpKUor7xsTkiyruLnSi6G8Ou6JPqbpVGiXQL9LXRbt3Rb/Hy/G7tbz/jrIl62nfrWJGfd0m2S9xbQpGjjp6VDDJGXW5ogulPBuda/h3QzlOCJagk81Vzrlwk4N698IjVlGBd/s2AWFq+Nq9cnbLAyReWy7dJee82dQf9S0YhfvtAus8HfblbxA8e7Gi9F3kqOXgnkeNfJb/eLX8/KFHGVBdrSVu9X5kVyYtry+54K3X7iHJ22aNUPxRaNiWHOjCUSHo0iIX75QpuvnAjdTmIag6nlYN0eCdPHAiN6JfDs+UN+RbmWztsYVy4+f13Ey+97Kn6yZCPCkpJKqfJsE5RqmrIbtfjlC716szmkm4ld2jqaON6170hVZJOGolQC/TUBNSnauMpy9DdLKCcjf2Hx0B7wFMmRqtqS+qujGX/zQv2t2Y0TTD3fA4DdaX3nk+0jTkoJD1Eqgf6agGuWbImfLBjw3wSMn16pkUWqhOSi6dQLGtWI94VyvEt8NX1c4XWBdpkN+z+L2LDuaJRAf03AnIz8uLpq9tcEXFi8lg5cDRtFeeXlwQ0nYWWKwmm0HCKq8csXGvFwVxRi7G717TCgNzQEMOhbEqJRAv01AeMty8MvE5BmwYSflT/cHEyNxKxpC+LKpRGLsDKF+GAtDQcOZ7hlfPb8oVN+NvqXhKhrkDbRTEDMua3XEcJYcAEICDAgBgukSTLGAAixAFgQgGEAABDDYoEHLACDMC9gJEMIAAuAEGAMiDH3d+omJeom3YsYhAVuwGrrt7p4gUtPU6vViYIAmBcAYwBGQElGq7lsziqaBRNmWJniZ6t3vPGXzYEFgWguaEwwI6fkQlu9mJUkHEgva3y5cevi8DsP11dnanRh7gghSgJ36p3e24vTZBUZIRTO5isn/DIBV0qaiT4Geqtg4fBFi2CwCysnswCQo2KyVWjsZwmcAznOsalyENyAAZAAgEBgABhAAIgBYABjwAwgAIYBmRwEDIAAEUlEIJAjIdJZOUuFH3lwHTAIANtuQ/9A0qkz5/SXL92rK8zNTpmmSwFWDhgDYOzCx77+b5oFIwlGB77pEMhff3GaLJlFZamyMdZnanSrfrhZ/JxxL6xMQSsCpcL3i2uSHG2ZIaUIibcCOd6lv94Q1VfqYWc05/CBz3Y8/2i15I0mxmB8MXvpguO11jvvpH+dowqpBJ5u/lD84rl55WG4ZNipd75rcF0ZELz3/MtFAICCJCZLxfx8muKJqfJRn4zdiEVgt2ABMEYIeAwYIRkGhAAAIQCEMUKMbHB8DhE/hBACYAQQABAe9FdjLGAEACC4XbetrCxhnluhcmJDomYmUs+vbzz3/bXrCxdMZWUIA7htfI5mSghfl/jgkMm9u9XV6RB83wAAUJDEFKfItuYpRvs4LCmpvHqzWaSh4EWnLVKJDjJRxuD++oH6Hs77Y3k6K60EZmfki2+ZffVmc4xKYOHnFjHLNukULxcqRR7TYusdMhfai91pfefw9q0/rQnbp2AcMTtkcvvqX6jxN9EjDFGuIR8kX64MCFcGhPoerq5H8VZpwigHwIAxYIwxAgCMAQBhGLxJJuUghAWeaCIAII/OIQyCAIAAYcx7joQEwICxcLvfLUv8AY+SO4zXnU7bgG2Al7FZuuIv//Z9jrZzui5VAAxYlqGZIeFLEYc822R/+/rIzkzy1/8vo/u9eYmjXQM9snSbwdTil1eDtsaWhGeb7KN9bCWkULdAZOV7TGfEDLn4C54bY6bImvtN7x2pevrhXeFxHY+VDlPXzf3qvCMMm/DiV6LH3LzyUCc6rm+wifkgvX3d5etyGQkyHRUBQggxiBh7HpuPKB8x++6sJb5MwOjOSGNEFBNxbs7mVLOqbOuAlef53t6ea9euXWy9qlIrM7KL2q7aBMwjASMGACR+78YV1Vddw/WvIGnoR+Zn39rqukd+kyQnpvk7t5nmggbPiH+4UFCgu0/kypvdrREsfQuYxj5ecv0DEflBbR1N/g4ICphRJXCn3vngqYFQ/P6jYexujSoTUG8V/svo9r2nIIn5Vb7yX+eonpk29PLkXcMYHzkEgDDRPcDgNfYAEBpUQQQYYwReS9HjI0WAianomS2OMWCB4zibQ+js7huw25MSExACN+fu67e63FxaWqabZ3ieB4wRMUApgfJv3991WVOezl5enqxfkfwf9wy1+Pe1u2EU8nJLxTdt0GmL4qrDUSg4ZHL/4zl7eM7lVwcfv77cooQzZj4UhxVjEzdfOUEmUYeaoY5QvVWoue762OgOp/gRzl74RPziQt2CUJuANcMuJF+ZpfK6vDRy5OsivjIgNPbxI6VIIADAHjEjNwADQthj/yEAXzsPIUTyRAUBIwDiEQWMSQYpOQYjY+y2zoGBDrlSzSJQKJS93T3dXV2t+uu3Oy4+8EMsYxDGGBBGiEpggAwx7AqSmA/mJ5Lspy0zFAc63L7ugcvWsT4sy+97qq2jSUx9dMFUsVYFZUQa+/hwOq40yVpNina0sNYQjN2tMdf07prtrjf2M9MUeYkjW02L08bKDvOF4123xLUOP3amZrJGF+oY6lAJXHMmrJafF453nfOnn+zCuQ+HbjOE7weEgiTG+2oUJDG+IZ8NuXJxUVIkYCQj8T9MAnsIAOHBDE/i9UTAeCQOE4H0lEwAcYeSRYBJOoxczk5Ow5evXZaxpd2WfoZVTZqU1mU03mq7+lC5LG/6dMAYYwGB2DclZTgVGax+RbLeKtx0CKd7+TabMEb2b6ZirMRgMkdCTI1EScGyALdLAbByeOM3Nt8PbBi+yvJySxv7RY07MPZ8H+rNSM4QK/D56YqxE6HF4FfHuP2f7fhFZXVIrZ1x0mHC8zYCgOYrJ0TmVkG4agE/WpBIUuEB4KJFuM3dZVFdtIh8WQZdnQIGhBAGjBACr3WGMGAEDB5UQ4zu+C+RZ4GAAGEsYMCDMonT05ImdfXZeWeH6Zaxs3OaLnvq9NlfnTx2T/GspEQV5rGABRm1AoOmUM0UqpkhOZ913dyQCPH67NFTggEAIFOjW1exbezwhiZFG85c8InH6jN36d/++Ym+ihgistNnilxp7Io9R2in486rV5DEzFIzeqvQYOYNdgEAVk5mA1BEvzKDON713pGq5x+tDl1x81gS+Kt85f87SzmvzhoGFfz20jHxi8PW7iRbhbJVMgAY8pe2cvg3l+/ytxQkMSO/G9Adgw8QAmDQYBRwMObHkCwXDNj3NhoM/yGEAGMBC57lWMCAEQNJSQnWAS45WY0AktRJRXMKzjf+XamQAcYY8wiwJ/5IkY6deuc3ffz5/rsujf9HtnysqphBymavumL4eowEQmoCBsOQFNBXZqmCt1fEMDVL7Fjjm92tMV0gf2VAGKIF/3IRCpKYX85U+lVtYvLTGjb3m979ZPvzldUheulGcOwWJDHPTFP8fUnS7rkqNRuOL9Eus0H8pUFyYlpks+asHPa93iRs0o3858GASEAPEELAEBcoAo/+kRTRQY28Y7N5aiIAMMYYCwJJosGkTQwGwFjgBcwwDMtwnPW2ue/2bQAWYyfPcWjwSQgLiKEaKCXvGlz/dXeY/Ff5yo8WJIp8+rql2zQpo2a7zKGtsQNlp97pmwL6q3ylmIsSScjJ9MNHF1vjc4engw63ha4MCP94zv5skx/5RwHUh9zsbj0Qsj7aQyXwlVkq/Yrkt0oTQlr/PoRvL/thApYULIvglVRdNzevzjrED1aezo5RFooxADDII3AIeUojEBG/wYpBshKT/2CSB+rJASV3gUcQsQAYcy6Ox0lKVfKtrl6WkS9YuIBBMrlMQIhU4A+mg2IqgZKhtw6tjgeAj43u8eph7qBSqiuXjTyyIzkxTacVa09QfNl3w/0vF++4ZJ6Zptg9VxW2s7MyhXj3dWyNjBgxHbQgiRleF/T2dde+G6MmRfsypDu2eC601R87UxPAE8dl6C8TtqsnXxovioonExaEPhFmNEYsFClPZ78sTxrtKQhzMhlRMwYAMKlywAg81iECb+ILBoxIsoyndF7AgoAFjAWMMRZ4AB6AOER5q83No6zUtLSHVq34+Qu/XHz/g0aTKTUFpyarBIEnXUYdTt7NUQmUDAuHyeff9yvgyoDwLxcd4q+C83JLR3Tjx2jrkIjT2Mf7hiTK09nRm1SEihzRyRoxlxHj+24vSGI+XpioXzFyXdCb4goxg7kIqGt8X2QjAr+I/KSIto4m8e0z8nJLI5Uy8GyT3fdik/A/suVj6B+QCB8gQIzH24kRCfPdHalDg2YegKdYEBOLEDwP8HiwywxgAWPM8ZiRqeSsTKGQK5VyjhdkMhnHC4KAsSCA4GlIIwi0NF4yylJlJ8vV+hXJJ8vV5el3+UjEXwUDwIoFm4YbfEW0Nbb/GB1DU0CPLBLrlJaQqVlzRK40xlRp4JYZCiJ4l5cnf7NUfXhR0lqt3PvQkNro+h5OP2ZpEGHE7tjiqT2+S3JLOvISePHqKfGL581eGbqdjMH99QND+k0UJDH/OkclJg6EETNY/z74jwT6iBBiIoeevwRCPu5Okg6DeY+DVMDY4yXFgLFcrpDLGATgcrrtDjeSsQ4ncrvcpIcoxgKDBNodRlpIXUS2Cn0wP3GIO+gjo1gJBIAND1X5TptLUKpjrmIsGrh5d+NWkq9R+LnF+8/30foejtzZ2Cdxubf4i/KbMZgUCgCFaqYsVVaovusN/8SUof5Cy9058yMSZKM4jnftO1JltogqxBRJ5CXwwlWxfYQTlOqIZM0NbxNans7un58oqi0s9vg5vU1fAEhAEA3GAD3/JXKHBaJ82GNAkvxPhAedpRhjDLzAc5iRsQDAcbzDzdnsTgEjnmfdPIdBwCCQpFCf7moUKclWoSzVXZ+dLpcfL7UmWfuT8i3eHwt1dECgNJDGrd5/Iz4q+Ul1opNCOd7lV8PYaCbZ/0zJMbpj+3WQdz7ZLmG3uQjPCzSYWsS/KGWzV4X/m2K4/v2PbLn4JEAAAPBMfhA8qZ4IexqmYQze6gdvYQQm2S+IyB1Jl+Ex9iTTCAgLAILTJYCCdXO8w+kesDsdLs7pFjhBznE8EANSwBgLmFqBgVLXzZ3u5c1ufMbMk+oo/YpkCY9fNnvV1ZvNJApOBwTGNCqlOjkxTaS2dZkNsTK/s7GPP2Pmb7txm024bBVeyld4HaEwks03riiO3R1bPF1mw/7Pdjz9sDRNRCMsgRevRbUX9KULjiH6V5DEzE+VjZgEOPIkRU/9HyIt0jDpju3ROyD/82TADEb/vI/dEUISGsQCxgICjAWB4zHmQXC7rXZnv9Vuc7pdHMfxAsdxxGHqacJNs2EC5XQvPyT0W9fNef++Rgf2rRoGgEUav6vQ1i3d1tbRZBnonRXeGaEUycnOyLcYGsSs7DIbYsLpPSTOCgCZCuQrgUP64hYkMUM8pcMZtzu2ePSGhk/rq31dKQETYQkUP00tU6MLdVPQIdR1c8NboJEMwBHXjzxJESMBI0BIEAZHQ2AAAAEwQgzGnnsHg3wAWPA0BUUCABYEweMXxQL5hzHwAufiWEFAvM1hsTksNqfTzXEC73S6nQ43AOmOhgEEqoAB83KhcsiQyOea7K8Vq9Zq5XXdXNUlp+9DBUnMP80UOyzNCytTbPhR1Rff7acDAgOjLFX2zdKxXjrfL/HydPb1YhUMa3MhCWOUew6hz9op+dlDQbYKPZDBXhm4kwDxX0b3s032HbNV2So0pBATRi+M9kXaiVH1zbUZqVODHwkeSQnsMhvE14rODXvW+Bjt/8WDPe09vfbdYGdQTxtPT5oLUUZE8kBBGByShEk+Cyb23+D8JCwIHCd3OASH2z5gd9jtLhfvdrh4h4Oz2VweoxEEhqHdYYLilzOVvjMHrgwIj5y1jdgy8JFs+RgdRMdApy0arVKQIga/9Cx0/WIyU6eKXBlD1fE7Zqu+6OZ83+1vX3d90c3BsBr5sQujCeK7Y4vncH21JkUb5NT0SEqgXpzrgBD+3hlfjDIEzk8YLMDgmFzvnKTBzmeCx0uKseBxkCIAwC63zOliMcYYBADBo4MgEF8pz8l5lOB2uVxOjne7ALuA51kZTJk2087LB5wp5IkMUjoE2e3+/uB/B4VcnpAQ7nKriLNlhuKaTRjiCRiuf0HWYlMTcAIgfsSV5DIQOrJVaHif1eHv/7ELo7341R1bJBzvOvDZjucfrQ6mUk6UBA5vByAJLaLLITQp2jD3ziA1LsH/4ggEJCPZnmiw6QsDCCPs6WM2OCQQMAiAYcDJGm6lDdjH+0qVQQLYE5QASgRArr8Si6evAYCriVMD8gAAIABJREFUd0flTX3ShKAVcvnM/Jma1FRJjhYr7J6r+kkW+0ab63z/0GZRBUlMlooZkiNAiTa8H+Gxp3kEifiv4OBTIsNJWapMvyJ5p95J5qEOcf4DwCadQlRifMg649id1ncOb9/605qALyXHl0BpE+G8cLxL/Isyd0a4vaCFakaSXxxjHjHIm/sy6ALFpPydDE+CwZYwHA+t7VluPhqHHLnc7suX9SX3/CDezMGKDJaEeIfUk4WnCzMlGEL03TUc8bFAjneZLabYGoz8cqHy5UKld2wOIUfF+OX8bw+uKB4ANClaTbLW4bQOGT5s7je9d6Tq6Yd3BVYvEDFHqF92cUxnjQ/mswAG7LkiRcSnidFgqicwgAXBbFV79S8jI3242Njt9u7uHt97UlNTk5OHXv44Hc7unh7f1jDJyerUYQac2+Xu7unhuDv+3oSEhIyM9CHLOI7v7u52u92CIHR23po+fZp/v/9EgWoeZTRYmUL87NwusyG2JJDgHZsTGH7kwviaDIP8+sn9w180i623y2wwmFoG7ObmKyfKZq8KYGMRk8ArN74WuZKVKWK4g/BgtQMgQBhhzANiwNvBmvQzQxgEDBjbHB6XwqSUlMKCghGP53a5veE9pVJZNGf2aGe+1dVFbjAMM7eoiGFGcOrKFfIbN9q9PxbNma1UjuDWSEpKbG39HgAGbAMifmeKf2DeZe9pAQD3gIkb6AQAR89FeZJWptIAQMLkEgBgVWmKFDpNMHrJTNWJlMAJUx0vHjHdse8I30hNJka8bkhOTEtOTAuyyCRiEqi/LjYXJi+3NHZ7Z5BZEAAIwFMZL2ABMDDeVi/IU/OAMQiDf/uUSSmjHdBXoialjL5MdWdZslo9ov4NOZpSqRxR/4Yso0iF09xquVFnba939YtKkUAyhXpKeaJ2fnJuOaOgSTTRhXhfaGyFAyXh5tjNUbG3WGxUusyGIDM/RyMyEjjcnzsGhbr7QrqZUOPpjyZ4pv0hYABhLAhYEDCDAQMWBBHvAcoEwXaryWqoGzA2uAf8+yrEvMty/YTl+olOeDVxcmlS7uLkactYVWy0GpnwqBM0Ilda7eaQ7iQKGbEoXqctSlAmX75+FkSEFLv6bki/LQCIlAT6VSMZE80UxgALGLAAIHhK3gFjLABgkAESBru/eMxFjwq6XaOWJAr4ToTP5R59meD3Mp7nBUEY0V7EdOKEFNhuNfU0v0V8nsEfynarqfvcW6n5a9PnPkmNwogj3gq0xp8jdMgXfk5G/k/Kt+Tllp5qrr18/ayYI4TOdI6MBIofmZGcmBbmpjBS4+lxhgdr3wF5Wnci79gHJJC8GK8heKurKy1NMzyBpa+vr7fX7Pvjra6uyZmZQ5ZZLNZbt7q8P9rt9o6Om9nZ2iHyZrFYjcY7byyO464bbkydksuyd70r7Hb7jfZ2oASB09zafe6tAaMfhbBiwLzLfLn29tWjabM3aGZVopiNF0wAxHf+jLdYoMNp9QpYcmLa8vue8rZ0EV9M0tUXqnrKyEig+HKIwmkx3j6RNMUGwBgjMglpcBYgKWD3ZIR6Or94EASh5eIlMYdvbf2eJKqMzXWD4bph/PeQ0Wg0Go1izksRCefo7fruD5brI4z6lCdp5Uke08F2y3OZrEjR+fo2vfePuJgguKzd597q03+Uee8vkqdFYJQKBagEjo7XBFxYvHbVos2+BXziJdAyEKoXLTISKH505IyckpDuJPQgQcCeUJ8n+QU8PT9JF2yBRwAYC4hUyFMmEPaelo6T/yy4Rs6FS5mxMr3YM0Fef8AjXWlzNqTMuJPb7b1/xMW+cI5e41e/tZm+mTz/RWoOhh+1eAkM2bd5dHL1ZnOCUv3I0m3DR92Jv27geJfDaQ1FK6UISGCX2TBugqwX8bO4ohTMy2QYYx4AY4En5fAeCxAG24SCj68UAAByc3Om6aIoA/5WV5cYW5PiS1/roa7v/oClbgo1NrevHnX1G7Lv/w1Nkwkz0fBtHp24eddoPcxYmUL8nCmzxZStlD4oFgEJFJ8LmqBUB9P8LRrAWGA8BRBA+nwCRp6Z8AhjQSBCSLpme63AgQGbJL09pcJqkWxAZZzQ9d0fzJdrxay03WpqP/FP3h9NZ181nX11+LKe83vdA53ahb8e94D2npYbf/vHnPLfKDUxHUSPPcR/m1tsvfEjgeuWbhvjUb9etGyJtuRLBCSwvVNsLkyMJ8IQ8GDWpWfs++D8BwyCZ6QReAzAOxmhfX19fX19kdszJXAw77pZ/4qYzJf+q8fst5p5t9jLC5uxwVcsx8A9YDJ8/o855b9Jyo7xUHpM4de3eaxf3EuFHw7k0MRQo9oKjOGmMHcgQUABC4NRQDIXXsCIDH8QMICAPFYgJeYxfvVbkZmf7gGTX6WBnKOXc4j9FiBKPGXZ7xPSJ8CHKDaI+Ld5LBLxlgIhGQExNuInZk2dPCekOwkPxNsJZOwRFgSBzDwSyOQ/AAEw75mIK106TGpqanZ2NgBMSkmZnJkpl9NpBuGg+9xb1naxU6BDDeZdxi9f8bcAnxIwyUl+hANDupMYIuItBcJtBTqcVvFXQNmZMe8IJVo32CkUYUw6ZQsYsCDwnpJ50h5GCglMSEiYMX0aKSgcGBgwGo2JSUkzpk8DALvdbjSaTJ2xMbQ6FrFcP9Hb8r749YmTSxMml7gHOvuvHhWzXqnJV+cuAYCe83tFnoJz9N6sf0W34j9ojmgY8CMjhqMS6CHiLQXCLYHiJ0YmKNWx2E99GIjMfMcgADDE+QmCIHjKAcn8HQx4MEDoP9nZ2pSUFABIUCUkJKgEQbDZ7Bzn5nh+9uxZANDX18fK5Qq5PC9vxtSpU6wDAxgHqLVyNiRvGE/RZCxj72kxNYyQxjIGCZNL0oufst1qEiuBqfmkLkK8BAKA09xq/Oq3OeW/8WtvlACQMWJ9LdQR6iXi9ZThlkDxRf4TJVyMsOCJ/w16OwUBPIFAnxwZwTcdxi+SkpLS09JsNpvL5XS57ow4Z3xEhXO7ObfbZrMBACID6wOC5/kR83QCOyDGOCEhYQL04OYcvR0n/znM9Q/isbbX95zf6y0rpIQIXVbRgrlrxKzMnVwY6s3ECuLtnAkigd2iu51OCBMQANBg4xcBAPGY9wwQBNIRBjAWQOAxgmDSYUwmE0LIPXovUAkZV6dFCjnGmGEYk8mkVqtzc3Ol2FrEMF88MFr9e5TQe3H/pPyHabFgSJmSNTspcWhTwxFJUk0K9WZiBfHFISHyHofdChTtCNWmzwzpTsIDAiQIAvbYfwzCQMrhMRYwxgiEwRsYBByYaSZnWbPFkpeXJ/HWReBVO1/ZG37naDcUCoVer29vb49pCeQcvX2thyK9i3HAvKv3/J8nz38x0huJFz47eiK/IC9v5vQRH636f/6/f/+3P4R3R1FK3DlCxccCJ08IRyjGbjkrAOYFjAFzADyphccYAHgBC0BmRwzmzARwipSUlK6uruDDacOttyH3jKhzEIQQ8jzvcrlcrij1H4qkp/mtwFygPef3+hXV6796VGTUcET6Wg9NmrlmwtTLHzp06NChQ/fee++WLVtGW2O1WtXqkY2MMR4KGJnsztfpBwc+euvd/xhx2Ue1h+YW00qVO7AyRQRTZMNdFCE+q0d8plB0I3jKAAfHBg7e5kmDbNIaDXmm5votgUqlUiaTSZJLgobB3I1sEEYmY1lWxrIMy8pYVi6Xy+VylpXL5QqWVbCsgmFYmYyVyWQMI5PJWJmMZWSeGzKZTMayCHkGaJATBb/5SOE0t94OQpbCTM+FP0d6C5Kxdu3a559//vbt22OsefLJJwN4KHi+OtXw4zUPjfboXw9/Vvk/Hwnd2WMO8cUkZov0FT7htgLFdwedGOkwGCNB8PSCAfAMigDPgAjSE0YgrdECy4UZPjjeZhtwu90IocEBFQAADIMAEAaMAIBIDjkbQtjWD047ViZhhw3cTkBosH8peDaMEMYCAEIMgxHZP/AyzLgELICAEJ+AQEb0jJHJVILglrMpiJELvOCROhL+RJ65gxggKUnte8kcu8SWqFjb6weMDbRlTIhgkIzceLvmz6OZgF+daigpLQ7jpmIANqIVO2H9GhKv4QlKdWRfFynBGDD2Kstg/R/pkU1mBGLAAgpobnzKpBSO43zvuX79qt0+wMrlPMcLWABgGAaxrIIXeJ7niblGbE+GkXECxsf3KSzd7qk/YL77O+rtBFZGhBkQAyRDR6YAzolkLEpUOFRuJAMHKzjAnW6UAYc7JnE9ZUgmxxgLMpkCoUkIbFrtRjmbB5jBwGNBwBgLAi/wPMMwgLHb7S4sKktLzwq4NiNK4By9wRTCh6EucDj91z6bSBJoNptfeuml77//HgDmz5//8ssvk/sPHTr07rvvnj9/fv369eSemTNn7t69GwCMRuOWLVt8HwKAjz76CACeffbZ3t7e3/3ud6+++mpvby8ApKWlvfXWW0NOSpaRp/jCIAbGEzmijrzAB/d7TyiSE9NE5oiY+02Sp0mGVQIdok3AidRDFgsYMOkIygiD4ocxoMHuMEQbfUwzP2ht/T4//668IYZBiQkqAYA4LBFiMABCCGO5XM4S0eE4Xi5XYMBytxu5rZCew7gGFDYzUsnJBoEHYBkAAMQAzwHLIAbx2C1DwCvBnsRrulAKK3djJ6RyqmQZgwGAAXC53bfkCjkjw0qFHDEsGQXFcW6BZ7BcxiDkcjkVCnawV2psE2QjmPDUBQ5hwNiAedeEqZT/+OOP9+/fX1ZWBgA7d+6sq6urqKgAgLVr165du3b9+vXDhSo7O/ujjz4a8aG33npr586d//zP//znP/+ZRAobGxuHrDQajV988cWVK1f0en1h4Qi1DWJMwFi/+JtIhDUWKD6lZ6JURABxPxLvISbdQUkKDBbu0j8cYFFERka6Sqm663yAOJ6YXDJBEHieYxDieQ4BuN1unuddTpdMxvACzwMwXQbWbuEnTUadBsy5MSBP9SICAbAADAYkIIQZGS8IIMhYN+tmWeBQgl0hYDzAux2T5QAIQAYgw5hhGAZAhnmGkbFut4tBiON5QeABgVyuwBhYVo4AyPx6z4iomMVqqIv0FvxGcFmHTNyNaTZt2kT0DwBWrlx5+vTp4I+5detWb6ZMWVnZ+vXr6+rqvI9mZ2cfPnz48uXLI+rfrc6u6dNHjeB8VPvxCy/+r+B3OMEQn/YRiqTQKJVA8ZmyUQ/CROCwgAdLIABjjHkMPPY0SMMC4MAapCUkJKjVSXefEHieQwhxbpfdbiMJNwAgCDwWBEHgeYHnBd7ldGKM0fdNODFV4Dimqx3JZIAxIAYYGVIoEWIG44IAJDdGwIyAgecTLIzcjQBANSlZrlIgQN7QIstillXJ2CSX0ykIgoAFQeAQQkSMBV4AAF7gyWsQ9GsbSWJXSwY6JNCJCQyxI73MmTNniLIWFhaOqH8AsPt3rz/3/NMjPnSrs0uiDcYvoUgcDa8Eih6XPHEcoQh5HKEgkORQb/4LyVfxBN4CNYj6b/cTi8oLxhgPpt4o5HLEIMACyRqVyWRyGatUKNwul1whh95b6NYNQaNlLb2Myw6elFUeBAHzvGeoITFfEUmiwcAg1g2qAYQQw2P+tsPldjkBEdcuzzACy6oUch3nlgFiWBkrCIKclbMsyzCMwAuMDCHArIydAF5QS0e0tMP2l+hp5B2dHDp0V5XnsWPHKisrxTzRaDQCwOSszBEf3f2711/6Z1qXGXWENRYoXsPFtw+PehgBw2AXUACAwYxQgTRHI/+IGRVAcYDFah0inTzHEaNToZALAuY5jpHLMc9jjBECHmOO41iWRQxjN15jEeYEAXW1I949WKDAYEEAgUcyOSDACCEBAzAY80gmwyzDI16OGYyxy+W+met0T05gBYxBQIgBwCybBihdxiQpFHK3ywVYcBM9FgSEQBBIT3CPQse0IRi8FzTMdYFeOMf/z97bh0dVnXv/91pr73lJMkkmEEICBHmbCKSgBJECgSinAtWCTXkstFTxMtZjaTnor7Q99KAeKTxWeimNzalW+hPbPNXzHOWnWIto0eFFRCAoGF4yQIQAmbwPyUwyM3vvtdbvj5Vsx8kLe0Imr/O5vHrN7L3W3mumZO593+u+v3eDv/70EGyiZLBMcMeOHaNGjRLxVafT6fF4wny+/Pz82traAwcOhF3kySef6szICRewM+sYow/pVRNImVEFr8FSFAgADAMDxjhjCCPONFEpCNBWsyDEYqCb1oAxFggEvn6MIwCqUYyJqqqEEFVVJVkmGAOApqmiPi+oKKS6HCstEAyShqrWCgjGECaIEEYBmAZEQgCAW11DhCWKgVGKKUEIuAxolFmSADEscnwAOHDZah5vsVgZo4wxQhAwkGUp4FcJwQghhIgaCLS1ER7A4VClyajIQz9EaaoY6CbQ6XRu3LgRALKzs5cuXaq/zczMXLVqlRgzc+bMgoICIZx07Nix0JTRtWvX5ufnz5w5U5wKzfz8y1/+UlhYuHnzZnEFkUcaSmlpaWfpMJ0Zuf9+7c1Hf/pwT3zuIY3xhErj9KoJHIL66JwpRNJEYiRnlHOKAFBrFSDnjAIAx20F9N2yBz5f89fuyDnjjACimoqAE4wBIeCMMsAIM8Yw5qqmQnOTzVOhxaVAYx0ONCMscc451QBjoBQhhDABTIBRkVCKzGZkkjVZIwFEOGGYNiLGbBJnrVFchCTONY1SxoMa9WJmQwiAc4RQIBDgjClUkwjhwBmlqK0uZODWxQ/oPnxa84DvmZWXlxfqh4W9FWzYsMHtdldWVtpsNt346ePz8vJKSkrEsNBTCQkJYUfC2Ldvn9frDbN/W7Zs+eEPf9DZlBOfl8YSYTojOSHN4EjjZeXGGQzlyf0bxBkAEWXwwhgxhICLrUHQ69e7KRAKbarbX90PIVmShYmVZVnVVEqZJEmcc4IJZ4wQojY2JJQflzAOWJLIRRdQrc0gYeAcECAOgBBQtTUbRpaAawyBAswURFxTahX/5YlMigfMEcYm0RAKIUlRPL6WI1bzcMlsV1UNIYwQlQhhABgw54wz1rp5yfUuGQOPHhHF7pO6QAFTm68/aFCQnp4uekd3iJ5NeuPXXL58+YQJ46oavuxwyu+LImukFaPXiJnAKNOa+siFaYE2yRXEddPFdc2UnkkS4UCZxig3W8yapnHOCcEEY8oYBy4RElQ1XnNZunDMnzQa6quIvwkwAeAIY84YUAbCBQQEHFBr6gpHBCky4wxMVKI8cC0ZIEtGwAEIYwyAio5JlPqV4BVVCyBQEQJRES8EYkQRCMYIYyxkAAao/QMALdAD8Yw+qQsU9Mj6Bx/r168/fPjwsWPHoK1Y3jgOh4PSTjd64uPjbnRxMaJDPy2NH0RFESDkUThnwJFoGcE5A4Ta9gJbDSHcQLOkUBhnVNWIJKmKCgCcA5FIaw4qwhwBb/Fa669o2KwiWa65BJxzhBEA1zQkySAslmjqBEgo1iCCUZzUIvnNLRhT1si5bwTIMsJcKEIhxjhqraBgCBFVpXEWgkSHYM41qnHGCMGUckqpqJEY0DmhA92EUP/AXn+UaL/tF2PQ06tFEcYjuYNGHY0D4q35nhxaBWA4QKtIdGsTpdZKwZ5xAjECAE4wFhaWEAycU0bFXZRAALwNxN8UtKWipgbi9wImCGEAQIQg4IDawqEAiBDxv1hCfghSVTO1MEULVktBmomBsbaKQ1VcAYAjhBCYZcmKMKKqxijVqMY0DYBTqmmaihBQTWVsAEdBYYBvBMLAX3+MGD1Fb3eKGHKgNnFq0L29tr5IvE0sBtoMYU/YQEopAAQCARFyJBgzJuoCQXhe5oaryNdAkUTqrgIHzhggjojEOeeMtrqnAELejFOKEKUStBAtwS9jDo2cNd6MZZuEQGKMct6qdsg5BUCcU8aISU4AxhDGlFIhzE0ZVRTVZDJBWwR44No/AKivdff1EmLEiNEDxPYCowsCxGjrb77eDYK3qWO3Vga2wrpTGNgOSZIoxQBcoxoCpDKmaZokkUAgKMkmU+0V6/nPApqGlHri83ChVUoZcA0QAkxaY7MYcaoCxgg4IqRFZljhpiBXGKtJ5jBKNL5AIrGFEIkxirGEEOE8iLGZc1nTNM4YIIQR4giILBNCNE1jjLZlgQ5gQ3itsfHGtRv6qi4QADRk7ZHrxIgx0OlVEzhowpuRgFrVQRnnINJeWlNjGGetpoBzBAy1SsUAAJjN5hEjjFbRxsfFNV67Bm01BhxA7AICEIwJY9RkNnHGiSyT2qu288d57WUAIisqohQwRhhzAE45QpgzChwQxoAJAOWMgSxrlKuKEh+QEIY6RWnK1EyyjDgR0VwAzBjjnAIQzjWMAUE8QhghRDnDgCnTVFWTZcIZA+ASIZqqQWuGzIC0fwDg9XoHtHyRLxAL//Q83HAURxoUncIGB736/4Tx1ojRKIHsGxBhHLX6fki0xv2qUxIXPZIQ5ZyHWEAYM2b0iNTIhCT0GjtNVTkwgokkSZRSUYZBOaMMLK4SevowpwomVqSpIkjLKW1tjQQIAAES3SEotO4FIq5q8SqSEDQG/e7hATkzDgMGYKK8HWNgjCEk2vZSjUJSwliEEKVM9MJACJnMMgLQNA2JXCAmujgNYLAUBwO5131Q66c/wdHo895rveMp064/qKcpKSmx2WydaZbGuC799C/B3xN1V/0BzhUJqwnxJlXFCDCnACC1xf9adwQR4owxBFhSJPHDev78hdoao6K6o0ZlhL4lpLUJg6aqgBAhBIAjSZKvXoy74mJakMlmsTvJGUeEAGIccOuOJcKt25YIiRp5TikChBHSqFaHgupkyYw4o6LgDyGEWGvnM0oZY1wFbpblRFUVvQklzillGhZNd0VWDnCqUV0ap6e+516G8h7woiKtC4xPn2WfvAIArnz4+A3e2heI+iOI0+l899137Xa7XmZeVFS0d+/e0tJSl8vVfnBxcXFZWdmSJUvCytLdbvdzzz134cKFDjXJonHNDnG5XG+88Qa0q6PvBi9se3Hfhx9/8smnBse7XK5f/epXEyZMEG0Ri4qKRFViSUnJ5s2bZ86c6fF4Lly4EGkVRwxBPzWBgwYimZF5XM21FsplxIOiHIIgysDMGQOgGCgDDkA4J0Fq0yc2NjUZvEVqWMgUAeJc01SL1RpUFADAhJCma8lf7MctjRRLHCRMVeAcEAcEwLio2BdZqkAIpxQhxFUFMEEIAaPAWXMg4BkHphQT1zQAQEgS5fAYC1EYDXGrRRtpldNln4rly8AJNydTYhG+KeccE8w4RSBaUKABa/4AAJKHj/FfslhxoMOzwrbpb/01J1pqPtcPNn25R22uShg9L9mRHzfiFuN1gcSSEjfiFgAYlv2Ax/UmU3z2rO9hOQHaKgVF1aCAqT5P2ZudXUo2x3d2qqfIy8uz2Wx79uwRb10u19SpU9esWRPaqFbnypUrmzZtqqys1MfrHD169OGHH3Y4HO0nRuOaneFwODZs2LBly5YuxnBm6MHiZ+v+9dQXZw3eFwBC+xeGsnnzZt3sOZ3OoqKiNWvWGL9sDEE/NYGaNpDDTCGYLUlp4+4WPYg406WwOcKI6zKZrfFHCHx5wdfm/LXfDmSM1dXVB4PB0IOyLMe17QUKNFWlVCNEbtUhY1ShNO7oP0nFWRUoJRJoGuIAsgkYA84445gQLgoTOXBKAUAo1wiPEAFTtGC1rLIsqwkIE0YMOOcMY8I5owyZ2ZjhcTlEkVV/kwQa0HpQFQjWqdyKbaMQkYAzSSIEYwBRp8EGdDrM8LRxFS6T1dqxCfTXn7ZPXqE3Z68vfbWl5nNRCA8A/poTanNVwqg5wp51g2HZDzR9uYcpvmTH9+T4kdDOBDLFd/mjrjzFa41GH7C6gVAdCxNe6aLBEAAIVc/Kysr2p5YuXdrZrGhcUyBk1TIyMjpUlunsLOOsprq2qqpm5MgR7cVCuzgFnXxpOteN1ubl5RUWFsZMYDfoVRNoNRkNuw8mNVGEALWWGegZnwgAWkvpOkoDjY+Pnz7tG+2Pj83MPHHyi+bmVnUrWZZzZtyqN0sS24G4LURJJIIJ4QCazxu4cFpRAzwuAWEZBZtAkqGtgQNwzqgKgBBgQELFDXOmAWNiq1LRApcCzbUzTZZ4zqgmKh8AAIAxRlWNxeOJqaZbsIoookqwCREMFDNNwQjJrFmta2LJE8zmOE4Z4wwhYJSKdNgBav8AYPTEnI/+Jzh8XMdnOVUqDz6RMe9p3Qr2CDTQoHco5FQBgED96dAKP6b4sClB2L+g53yn12G8yRuVjQY9NAcAmzdvXrhwYTTuElVE1FF8BI/HA+3q5devXw8Adru9vLzcbreHnv3Joz+zxslJyYmN15ouXqwAAL19/G+eeraxsTFz7JiKS5eTkpJC/+qLi4t37typf2mrV6/WLfSWLVuOHTtWWlqqe6t6FFTgdrvF26KiIuMebX/jms+oYm00JFN61QTGG26BZPxLGZSkpHT6RcXHxekm0J6cHGb/AABjzDlnjKoqZ5QR2cQ0LYhljQGypSC/DyQZYcI1TVgyRBCnFABxjBHCnDFOgwgThAnilIMWDAaqMiXzBAuiHAAxpiEEGEsAmDKOFfsw61SMJaXFg2QzMEapygExxS9hzDSV8AAJ1nDTWNFWEDhgIjRlBqr9E3iuNQGYOzurW0EaaBAuWlgJRNWnz1Z9GpluZLP7SLP7SOgR96HfhL69/NHjGfOerjz4RBf2DwCueu3mhKioL4WG5gAgNzd3yZIl0bhR9HA4HKEfoaCgIPTsjh07/vSnP+k9dYuLi7ds2SJ2BwsKCh4qWD3eMUqcOnni1FP/sVm8fmHbi1Oyb85f3mrYdr6x64M9H4nXTqfT6XSG3fG2224Thk1cOT8/v8N9vp07d+bm5qamptbW1s6ePXsoSNtIUs/XFPRqbrTxFkiepph2emcDAAAgAElEQVR6RTehjAJnQoGMEMIZRWaLyWphCGHEFXMSQ5grAQCOMAEAhBGWZSBENMXFABgAM8qR2hz0XWtuqk7IiJs2i6uKEE5DrYFQ4BzUIErURqvNXkVpZoxqwQBgiWkKVQOcc6qpTA1iSapraKqvr2eMUkpVVVEUhWrCmxzAVlAJtDRrXe2oCSsYqZ27EYKe81++84Ou7R8AVNQ0j75pWo/fvbi4eO3ataFHNm3a1ON36QXcbrewbU6n027/2sNodnZ2aE/5VatWCUFRwfRbvvpWp02f+rttrRuHJz4v1e0fAOQvXzpixAjxurCwcNWqVSUhLF269JVXXjGyzvXr169YsWLnzp0io8fpdEb4QWMA9HZRhGE3djAFQrtBW2FfB4SWEyjq14YJyTWCsXANKdUAADgyWS3NI8Z4r561KhomMlICgDEgxBlFCEDClGGkqQAUcQbAgiyg+IN+gMvEjmU58a7v25K/8DbK4iYAnDGGscw5DwSISiULblZ8KjGZtaAPEUkLNgMmCIAzCSNeWd98wUMn34wYpbIkARCqURA5ogNZnCh93HRXdcOto7oaw7/eIzpx3OKeqm3XiU+fpQUarmv2QvHU185Y0Glbn25TUVExefLk0CM2m62zwf2W4uJip9P56KOPis8ikjB1JkyY0OGskpKS8ePHhwU2xk+4qbO7pKYOFy9qa2sPHToUdnbOnDnXXafoUK9v/m3durWgoCDUPMcwSK+aQONeoG9ImsCWFr94Ud/QkJ4+0moNl/Dw+/2NIYkMTU1NXq/PZvvaDqtGNU3TAECWTZQxSSJcU9UxWVcrr8Zj88i6y3EYKMLAOQJOJKQiGQgmROWaBkgLBPwXka0lMR0TKeHO78pmqzUl6PVe4RxEoFSjDGMJI4mB6g+27D//ac6oaSPiTRRjRjWMMFP9QCQiWbimtCjqiS+DI0anWiwyIYQxihHGGGOExHbIwHUEb81dsef/bLx1lNFf+ZG3/yJx3OK4EdN60C+MT5+VMe9pTpWuN/9CqWpJNluZJS6xp9agk5mZeebMmdCEjjNnzvT4XaKN0+nUe+cCgNii0zl8+HCHs3JycjZv3qzRBw3epa6uXryYPXv2nDlzumG6vF5vmIfa0NDBb6a+WdifMZ78aDybxDi9Gwi1GTWB/qBv8FTHG8Z17px4oarqZ5+fOPTJ4bD/Pvv8hBri+THGvigtraltV0HIuclkEgKhmqZSTTUnD7POW0LTMpsa633BoChIJCaC46zIbCE02BzwNyvNFxpbvlRNaM49KSvX2JfdP2xMZlJaPNWOK2o9BwqIgWa2KKNBtVCmcq4lxBPJ4vvw1OErDU3cfw0TQtWAhhMAWxAwYOqpy83Eas8cPdJqsXDOGKWim3zrKges/QOAKTmLFTXYdSy0PYnjFo+8/Rc9sgBh/xAxUdVnvH/hqQu1mRNnXn9c5KxatWrnzp0isxEASkpKXnrppWjcqNfYtWvX7t27ww4WFRXprwsKCvTY74QJE/779f+rn6qpri1Y/VPx+r4V+esf+7V+av1jv66pqRGvn3zyycLCQuHSCZxO565du667NofDcezYMX1icXFx++Qjh8OxYMGC0Iv3T4zH/CzmnjeBvV0UYYtLMfiBvS0N0fjA/Zkrl6/abAm2hO6HjzjnwFhb4R3jwDHCCCNTfByxmH0t3srUiZ7KCw4cMFnMHLMaBcsSQt6my1TiKg7e8i/xWd8YNmq0yWxm3MY0LaiUexpP+/1NHBj47Al0ohls9VDuN39pNhGrFSZNtAaDyqHzwXkTyPBEteSKfPf31zTUVZV/8jeLCWoD8dOn3ZRiT5IIQQhAklRVIQS3dVYa2KSPzT52vnrBzYYGC+cvcdzixHGL9bfdRrd/anPVlQ8fN9j5oVmLv+a5sGTu8hu5dRfs3LmzoKBAuCMpKSnbtm1bt25deXn59u3bd+3atWPHDgCora0VuYuhqY96NmNtbW1Yu77169eLaKQ+Uc+KjMY18/Ly9IkzZ85csWJFfn6+sHOFhYUrVqwYM2aMPmD16tW6A7d169Z//4/1utmz25P0Nrl3Lb4TAEItosWUkJ+f/8wzzzgcjqKioo0bN+o+3MyZM/Xqe7FOfZEAEFogGPpth87SSUtLq64eAHmFxr0daxQsQm//Er3w3w9X1hmK2Dz4nd86Mnsyp7z/84/dez50OseOzcwcM8ZqtahagLZqr3TFrdNuDfiD48aNAwCMyfGjzkCzB2OiaZRIEiGEc04IQQgFKQs0Nqp/f3XktUp7iq1GhTrHXH75XNLVM56Jt8HYycOmTJOscQQ4Y1TTKCBfUNlX1/AZ5wFF1XjDsFFxtwBiAdZcK520JcnANUqbPfXZNdVj66uuyi2XlZQZzz/3nLuq9olfPGpPlDMnTHFMzDSbJISQqqqSRBhlSjA4Yerc5JQRhJCLFy/6fL558+a1aWcPJD7/+I3d/+fJxXPGx0tGm7CLcGjQc/7yR4/fSOt54U1GZP8AYN9Z1NIS+LdnP+72fWN0QWXtOYMyoSNTxhEiR3s9A4Vn/7rSYP7jL+5/zXgo0SC97QXaE0caNIFDMCPmzjsWHPj440uXKi5dqjA+K33E6OSkr7Z2UFuBhCxL4s9ReF2qosqSBPHx/nHf8Jys815r9t08N2767b5Ee01QSbp1bvKkyaBpmhpkmHDOTLLJ13LO13yec0WWCQdU2dwyjPjMZqsJLDgYr6rNJlmhmm3sqHkZI+JLJbL3wwpHogYAVoschDhTQtK4zHSr1UxVjTEqSzImSBQFQmubjIHNLXOX73n96QMn6xbPMNp4oerTZ9XmaqHtciO3bvryPU6VsLrArvFDcl1N2fQ5372R+8boDMaZcZnsmP0LpW9bqfd2Sl6C4c8wBOsiLBbL2jWPJicbrZ5sD+cMYSyK8UUreEpVqmnAuSQRTVWIJCVOnW5KSm7Jmh13+x1EkhMnTkn49or4MTcxJUA1hXNOqcoYU9R6RTnva67FmJlki1lObVHlxuZrGANXAzgQHwgEGVMJyrJa02y2+Ck3T5z+jZv9vqZgMEgpGzEs8abMdIvFRFWNccY448A0RaGUAgLG2ECvCxTcmrui2ddY1ZJsfEp96as3aP8E3ooPI+p8++npJozxXd/feOO3jtEeZlgjm2AS1ZUMOPq2lXpve4HJCWkGRw7N6vj09PT/+PfWdIlA0Pef279z3Sk4YQFAIrQ6f5hRijEGEFuBHDjniHPOKKWSLDHGsGRqSpsUP3l6vN2uBfwIY0SSMLR2L0IIJCJzYAGlVGOXZROVJTMhyYxOkC2f1jfX2azJtrRJsj/bXfP/mkdbkqzTAECSpMSEOMfEm06cutDQ4DGbTEmJCfbkJFmWOWdcE72RAAAwQgRhXTh0oO8I3nXfhpMf/8/nZ93GHcFQEscttmXmVR58Iqx8orPBdkd+9yKolb7EhjrXN+Z8T5I7LeePcSMYbxOBcT+VpewTjEf7ouECQu97gcb7JXmbh1wgNAyLOcF4GYluS4KKogTVQCDIARhjmqYB45qmUkY5Zxg4sZitsxea0kZRJYAJ5owRBJRqTFM555RSRVFa/Fda/KWK2mi1JEqSHcM4zpttCc1n3dXehBnT7/rXf/nOj/2BjKB/jCwPZ5QySgHY8GHJBMO1a9dkkykuPp4Q3CYEygjBWmtxPadUG8jiaOHMvPP+Zl/jF5URb9Sb7RNH3v4LkdiCr5ftLTb/zPaJI279SaQ3CoL1yMkvJZN10ff/I9K5MQzSWoZrABIzgSFoBh7+BNGQhoHeN4HGNzNrr0WwHzZYyRg+MaLxnHOrCTHNq6nNzU2e5uYWyriiUUXVGGXAOCDAGMXFWSSJIOBU0zRNwxiLRkkYAcEIYVC1i9W17gYP9zZmAM/UNEnVLsTFMRW1xKWMSkpMtCdbE+JnqYEsWTZLEmFU45ybTLLFbKqrryOEYIwRcACuqSoCQAghjBBGGCOMRRLWILGBecses8Qlus5fqGiMIBwKAEHPeSGZFp8+a8wdz3VhBfVSiqDnfM1n/xXpCved8FJNvTX3+zEXMHpE4gXGAqFfYXzDa5B4gRFppA3B0sAwRo+YfP1BbXDOOSBZaUqi9cNlb7LUmGxqtEK9zDwseM3f4vW1+H3NfspA0zRGKXBQVQVjAM4opZqmUUpFe91gwExgJqY5ZtMYCaeoWiXjjXFxcka6dd++dzSNAcD48TMbG6XW22KEECIYSwTV1dZhjBkDTaOaqjFGMcaMUkaZpmmcUUqpaI8xaDzBRSufAuDHTpxtVCIraKkvfbX2syIAMNsnjl7wTIdj4tNn6favG1HQTy5YvI118baUhd/rmXrEGB3CDCRvCwiO5cJ8hcdr1ARaolAXD30QCI1LMb6lWX7186gupv+TkWrUCxTmBCHkqbxceep4ZennDefP+C+VseovpWuXEmnNMKkunlXKrD7YUt/ibw6omsaYJMmtHhsC0dhWlN4nJkydeNO3syblJidLjPlVepVIEGe1paVmXL5ccuLESQAYPWp0ZVV9MBCgVOOMcsYQRpIk1dXVSRIhRNY0FWNkkmWRkipuoWpUbAAOGvsHAFNyFo8afwsH+OjYRT+zRDTXU/Zm1afPcqrUl/6lwwEtNZ83u490z/6dqkmpvHoRAfpfP3kxookxIoXSTkUNw9Cl7XsNI7X2fUUEXqDhTbSI6O2otERMI+yZBusiKuvOTxk/L9pL6s9kpk0xPlgYFU1TWnzN4A9ixBEAoxwQlk0mk8UcnxhvSUywWOJUFKdq8U3MTOQE2STLEtYtKEKgqgohEmOqolVpWiCoVDPaJMsmSRqbYk9IiP9o5//3ek7OLZljx/iDzOdrHpFqpYwC4pxRs0nyNNRjTIgsBYNKMBiQCOEcGKOEYEoZxkhVKaNR71rey9z/87+98O8LfI21Hx2v+1ZOsoyMhsUAoOnL91rcR7RAx5vfQm4bEVOk9q/8mv3s2TMAsODex9PHZkc0Nxro/WZvvPF6e3w+X2FhYVJSUvueeUVFRY2NjQCQmZkpmghGA9Xwnlbv7wXu2LHjui0S+wqf32NwpPFUyojoA53i8aOMdgq9XD3wNAZ7Fos5IdWeed1hoamVjIHGOAIADpQCE11zW5pbPPXVly5+efL0lyWl9a4zrMplbS6Xmi8Fm2oDAVUogALnQsxakkgw2NgSuKpqVKVuswVbLTbM0xAkpySnl5QcOX/+wvDhw0eMyLhYcVXTVKppCCFZkghBTd4mjFF8fIKqarIkCxdTIkTYV9FZuzVnlXO9x9Mg4OGN78iy2d/ie/+oJ1JfMNT+me0TsSkhtKEup0qk9u9snf2zk2cBePbty75510MRzY0SGzZs2LBhQ2hrhR4kISFhw4YNe/fuDTuen58/ZsyYDRs2LFq0KEzFu2fRqBKqgtYFPZXZ73K5QtXaOqOoqCisg0e/wrgc9CDZCwSAkcM7Vltvz+Xq01FdyYAgKxKJHM45YwwYYxpVVcoo5ZRyxhDiHHHKIBikPq+3+tKV8pNnL588671wRqo7i66d8dVdafQ2+wMBIV+tqgoAVoLxfr/HYglQBl5vSiBgs5pHTM36lziz5YMP/gkAk6dMuXK1hmqaJEkIgDFmMZvTRqR+/PEhzoVTCX6/nzMGCCmKogSDmqYKcziI4qCtWOISV/xsOyZSIND83qHLdf7uSFGb7RPH3PHcTd/eMfrO5/Qu8JHy6cX4U6fPAPDRE2Z854H/3b2LDBqEA5STk9NZT/YbR6Q1ejyNRgb3lAn0er3Cu+2avXv39ucOEsYDocbzSCKiD9JzjQf3/EFfrafCiBs0iBmXMf3giTeMjBSOIGdMUzXOERIN64ED5owDo1xRuEY5UM4BGNV8DQ3e+npzpSVxWHJ8sp3bhmn2sSRhmKKpGCGCTVbTTVV1ZQ3Xmkx4RnzcJIyT46z21GEJo9KHHzp08P4frZo+ffqe3W83eX1JiQkAiHEWF2cpK78UF5/Y5PWaIehvaZFNJg5cbBZijEwmsxJUjOcODCxGT8z5zupnd/35ccbo/qOu7Kk3O4Zdi+gKcvxIREySKQEALMMmI2IyUjKoEwTrgS98jZ4LAJAyYuyP/p/iiO5+47hcrmeffbahoSElJWXVqlVXrlwxGHsUzdMBYOHChXows7i4uKKiYu3atUIYU4RS9bcA4HQ6CwsLAWDmzJlhvo6If5aWlrYPwIrLihYN4r75+fn6Ot1utxDtFB8htEFuRUXFgw8+KM5OmDBB71J77ZrnhW0vlp11vbDtqz3Xn6371/Yfk2A5NOzRxTXDvpYJEyY8+eST+gcvLi4+ceLEhQsX9E/XYceJ4uLift5Nvs/rAvvABKbaM63mBIOKABXVp4e4CTQYN/4qEEoZo5RgAogDAEecU+CcqypXNQDORMc/jDmXQFPB19Tc5PHGJdSOyLDHKXV+32iUNCY+IQGYZrHYhiXfXl8/cnTGLEJkTQ1iLJktbOyYjAsHPzt67NjcOXOS7amV7prkJBtqa8CUYIvXGFVUTcJckiWMgDHOOMcYYYwppZQzzgadD9jGlJzFZrP1jZd+xqj2xamznjFjbx8XND7dd+WgaDffUvO5wZJ5nTp/4sHPLlJNAYD0sdmrf/l/rzulZ9m1a9eBAwf0ZkMFBQVlZWVGTOD69eunT58ufuudTqfeJ33hwoXPPfdcWVmZcOCWL1/+8ssv629Fbz991v33318b0jXlW9/6ltfr3b1796JFi+DrzQsXLly4d+/ed999t7i4+NZbb925c2dxcbHoK1RSUvLHP/5x06ZNQjW7oKCgqalJ+JELFy687777jh07JjS1S0pK1q9fLyyW2SovuCP3o737F9yRK26RkNBxCxH568VtXVxT3F0sDwBcLtf999+vy2TrfSHEpwOADn3cnTt3dthxvp+gUcW4CTSuLBYRfdOzdIxhRzC2HWgxJxi3gpxzhBgBBowCo5RRjVJNo8EgDSqi4EEYSMYo8/uZolCEuMnENcVXWX756hdl/nMnAuc/89bVBFXKqBZnSR87eq5EJE41hBAAlwgeMdyeZLM49zllk+zImnyxwk2ppmkKxshiMX9x+lT6yPT0EWktfj9lDAAYZ6LignOuBAPQJhUzmJJCQ5mQveBfn94jevJduXzprUP1rvoISgab3Ucuf/h4RPYvCLaPz5v2HXUJ+zcl59u9b/8AYMeOHaFOzPbt27Oysq47q7i4ePr06bqlzMvLW7t2rdjlSk9PD+2K53A4Qt/u3LlTN7diVuhlHQ5HTk5OamqqCIE6HA79VHp6+uTJk99+++1HH31UeJyrVq0SNm/z5s3bt2/Xe+xt375dNKMQs1JTU//yl7+Iszk5OXpDXUrVadOnpgxLmTZ9qvivs365YVHQLq7pdDrHjx+vO8Sip8S6detCP4Ldbs9po/29xMNEh8voJ0QkBD14vEAAGJM22VVxxMjIWF0EAIzLmB7B98AYpRpHGCFgnDMKGuWUcoSAM84Zl2SuqBDwMwTcJHOCOeeMM1BV1uhuvFrpGz7cM6KlIZiRFT8iUyYEEc40RgjWFAacU0oTkxIyRg4rLf2isrLyW9/61vmyk82+lvgEK8YYMJouocuFLzZhiqePRQgxzjjjGCFJNlFGiUQYA4zxYLV/giR7+mO/O7x903dq3Reopn5x6myZyTJ98k2ZSYbiooF6o7vgKpc+u2S6fPm80B1HgBbc+9g37yro/tK7i9vtDmswCwCh7Wc7o6KiIixHNC8vr7CwsH1uZyglJSVht8vLy0tNTTW8Xli9enV7y9G+L/zMmTNLSkr0kXooMhRVM+roSx0JZHd4zUOHDu3evftGsocKCwv7swsIkUiARWkjEPrKBBoXPan1VHi8VT3eIGNgMX7ULXuPvtr1mNaNQOAa5YpGCaLAQaPAtNYzIgIqy6CqPBDkBHGTzDFijHFGuapwf4CrFIApNdU1it83wnuNt/gso7PirSbORRUDRwhJErGazekjhlXV+srKygKBYG1DY8O1xrg4C2MUYTQ6GGj84nS9hSVn2hnnoFHgwvgiqlGMQVPVwW3/dAo2vvPWK+vPHn2XAyhK4OiJs6VxCdmTRhs0hF3jZ5bTV/ClSxc5b60wscYl/fCxV1NHObqeGD08HqMJ7mH0n+bmHX6E0CBqh0RD5SspKWn9+vXdLmZwOp3tn0j6G25j1XEQiaxYpPRNINR4XQQAnC4/GL2VDAgyR04xkkUm7AqjjDKmaSwYoGqQaiqlGqUaBU4JZsEADfiphKhJpohTqjCqMiXAmv1M1SgCSjAnnHkbGisvXPK7jvgvnfAHglSET0mr6yZJeFhKUrLN+j//80ZcnHXmzNnu6gYAIATLksRNJmIxyxaL2tSiKEFZlmSTCWEkKuUBQJKHkEbivQ9ufejXb6WNmQyAAMDf4jt64uzOAzV7v6ARRUd1mlnyZ1cT/3Gs+R8HL168WC7sHyZSTt4P1/3ukz60f+np6XoQT8dIUfacOXNeeeWV0CNFRUWrV6/ucHB5ebl4kZOTE+YhFRUVhe4Fdo+Ghgaf72tpCseOHQsNorZHNEIxcvH1j/1667PPGVxJfn6+HoPVCVtbFxQWFkaj/rJnMd4LIXpeIHnqqaeidOkukCTT8bI9BvXPNKrm3Lw42kvqz2BMLrlL6xuvdnh2yvh5ZmRPSkoSI8+VfHjtygWmYk3jnDKEOADDmDPGFYVxxkwSJ4RzjXOFc8qDKmsOMkoZwRwDA8YJ51jiKlV9Pi9u9qiqhhKHmWSJUco5E10nAFBNbZ01wZ6YnFJd57l06eK4MakSIS1KMHjhMquobTEh1WJJmzpBwpgxyjnHCHPOgHPGeMqIcZa4BIRQU1OTpmmZmZmDpjqwPfGJw27N/f64rNlXLhz3N4ssdh4ItNTU1p251HzFY6rzxzFsawxaAMsWEu5PeFFmjZdcqsdlV9TPz9W7LtZ4PPWa2joMITxl5rcf+MXrk6bd0bsfqwMmTpz405/+NC0trb6+3uVy/eY3v1FVNTc3FwB27dr15ptvHjhw4P333/d6vQcOHDh58uSsWbMA4Kabbrp06VJhYeGoUaPcbveOHTvOnDmzfv16/Zovv/zysGHDXC7X448/XlFRce3atbvuuivsdmJWfX19VVWVuGNRUdE///nP9rcDgC1bthw7duzUqVMXLlwIO/X973//Jz/5SVNTk6qq4o7PPPPMsGHDxAXfeecdr9erf6Li4mKM8S23fqMl0AQAmqb98/2PrFZrdXXt7n988Iff/2npvd/Wv5z33/tw89Nbr1y+8rOf/Uw/2Nk1Z82aZbPZVFV96qmnxAd0u91PPPHEp59+Kj47AGRkZDz//POh3zYAiM1Xt9tdVlamj+y3HP7irVqPIS3oaRPvuCnjG9FYQ5/pNL7x4W9LzrxncPCTBe9YzFERiBsofHzijb8f7LgMdvnCX9rw+DFjxnDOsST/4782fvnp+wibEAdMAGHOKKgaBwBZ5kIHhmucM844D6o8qDDOuYQ5xpxrDANHEufAGONBP6MMpWfYk6beNvzmHLOJiA0nxlgwGLzw5ZV9n5RmOaZ8Z/aE4/t3pd2aZ09Oqm9qurb7AD1wpsqGm+3JMx5cak9KMJlMfr9fliQOHAEP+JWJ0+9MGZ5BCL58+bLf7587d+4gNoGhnC5578A7v/fUXOr6r85ksmhUZbSr0hFJNo+fMu/uH20WeTf9B1GNkJSUlJ+fr4c3XS6X1+sNHWaz2UK9K7fbLXzB5cuXh3ldTqfz0KFDQvnF5/PpGaGhtxMlASUlJdCWGyled3i7Lk4JRK1CmJqM/hHE9cVbm82WMSa10dfqfX7y8ZFjR48DwII7cqdNnxr2zRTv+L+Ts6aFxjY7u2boejr8PsPOZmZmLly4UD9bUFCgJ7X2Z5772wMGTeCPlmyKklJYn5nA0+UH/7rbaPfO5Qt/OcQdQY+36tm/rOzwlDCBo0eP5pwT2bTr978uP/y+2WzCmGsUNA0450QCE+EIc6YBp1xsGQYUTinHiJskjoBzxhFngDlHXNOYEuCqxhGmCKFhw4aNuG1B4tiJFhMhRKKUUkrr6hs/O1Yyofny2GH1IOGmm747PHP8NV9TwwefIOep2kTSYLHMKPhuamoyZ4wxxjnHBGNAzS3+m2/9ln14hiSRoWYCdQ6999Lpo3+vr7nEDDfZEcgma2bW7bPu+NFNN38zSmuLERENjZV+Y9o98ZakZFtUVL7CKC4ujp4UXA/y70VGQxeP/+DVKFXH9dmujGPsLImYDG4jn6s4OsRNoN02MnPklIqq6yUKcs4pI4gCp/4AaBoQzGUZJMKBcxoExjhjPKCBqnCEuCRxmXCMOGccEOeIMc41hSsKpxpDmDMGqqJVXa0h5KCUkIBT062ESxKRCE5IsI5IG246d1oJoHi7whvK/WmjgAOXCOacIMRVVWkJAOeAEAAgBMA5ZRRjPNQMXnvmLH5kzuJHAOB0yXufHXgdABqqv9TUIFWDqvpVeqFsshJJtsYn2ezpo8Z+Y+bCBxISh/fZomN0hGI8HTQ6He/aMyDsn0H/TzDYMkIBQCKmrLGzThlLdTlVflCjSk8JCw1QJt80t2sTKJolaaq/uamJcjPnYDJxSQJGucKBM84oVxgEFE41LkncJHPgoCqMg9jTZ4zzYJCrKhOWEoAzxhFnlNOaC03IBMptd6WkpppkmXMuE4hLTPJgi7W+Kc6m4frTvobJyGJhGHBzCzXJCofmpiZVs2MQAVROGSMYca4aTB8YCkzJWTwlZ0g/3g1oGGeUGe0RYZKsUV3MwMK4CUy1Z0bvx78vc/Mmj5tr0ARqVCm/+rkjErXMwcd0x517Dr/c2dk2dTSaknlz6pQmIhGJIIlwhAE4cMoBQGM8qHLOgBCOMWDMUavh5MA451yjXFOBMs6BiZgoII4xx8CZxiwJJgkkYrFjiTDKzCRm6PsAACAASURBVGZIH2XxqAusXjdOhSSOglYbSRyGHFPxHRK2YDNnycNHydbhYglt62RxViTJpkHTMjfGUOZi5cl/fPxHIyMJkX/83eejvZ4BhPFOgSOiKRDWlyZw6rh5b8BvDQ4+/eXHQ9wEXjcWyjmnmjr/fxXMv+/HCEFI94ivvUAIOIeOz7VdKfyU3oyCUiY0aAC4SPPHBBDirSIwFABQLoKHMDDRqomJ1hCtFw25F2MxRzDGgKf86udXa11GRmYMnxhrlhuKuz68hKYzoloX3pcmUEh/GdQ9OV1+8J55a4Z4LHTSmNs6M4G6uaJUQyFHWivmu34BXzNObS/ChwG0mdU2+8oRIMp0rTNxX6ZxCMnwaD0b7vLFXMAYg4Eqw7/jY0ZG0PtzKOCuNVoXPzx5TPSW0Tel8TqTxtxmcKS3peHEuQ+jupj+z/RJd3Z2Col2fAAopH1gW3t2HvZCP9X6om2w8Mxax3HW7kXb9K+/4IyJi3TIV4O/9t9XDBGlmBiDkutnqLWRPsxok7ihgEYVg43TASDdsJpYN+hjEzjd0elvenuOnHoneisZEKTaMzvMDEYICQMWbn46oaPgZ+t1Ql+LtxhjkcOJENJf4zbCXoe+7fBIewghPfPtxIjRu3i8VcaFnjNjXmAIlYZdQADISI2iCexjqSq7bWSqPdNgalBF1Wl33fmoPhH0f6ZNvKO9XijG+PDhw2Glx92jl30yk8n0jW9ERfRhsBIq2RyjbzEuXi8R0xD/4QrDeDv0jOETo7r/1fdqjVPHz3OW/M3g4ONn99w9b0j/S8qZvDjMBNZ5LtszRw7LkG1KuICOxRSfkTqpF1cXMRaL5boaxIMMn893//336xL+RUVFe/fu1d+Kznmd1XWVlJSsXLnS5TKUfxEj2nxZecLgyKj6MQOR2muXDY6Mdr/YvjeBc6Z9z7gJPFy6a9E3Hx7KSTF228iwHCLn8b85j3f6BUZPVSFG90hISCgtLXU6naLH9969e0tLS/VWCW+//faKFSv6eIkxjGHcC8w03CF1iHDZ8B7qmLTJUV1JH+8FAoAtLmWqYfE3jSrGlUUHK9MmRiCIfLxsT/RWEqN7zJ8//9133xWvS0tL58+fv3fvXgBwu90Q0v7b6XQWFBTk5uZu2bIldLpohZqfn+90Ont13TFC8HirPE1GK9tGDo/lwnyFRpUaw3Xx0Q4g970JBIAZWYuMD44lxUyfdKdxP7jkzHvGm5nF6B3y8vIOHz4MAC6XKy0tLS8vTxizvXv3pqW1akg6nc4f//jHS5cu3bZtW3l5eUFBaxfcc+fOFRYWrl27dubMmT/+8Y+F1YzR+7guGWr6LRjiNc1hVFSdNv6jZLy5bPfoFyZwyvh5trgUg4Mr684bb7Q4KLGYE4z7zbFikn7IqlWrqqurAeCDDz5YsmTJwoULy8rKAMDpdC5ZskSMKSwsfOKJJ5YuXZqTk7Nt27b9+/eL45MmTdq5c2deXt6GDRuys7PDOu3F6DXOXT5qcGTG8InGf9+GAsYDyKn2zGj3COoXJhAAZk39jvHB122hPuiZcXMEfvOhE29GbyUxukdaWprT6dy7d++iRYvELqDb7d6/f//y5cvFgNra2pdeekkEPO+///7s7Oz2F+n/bcEHMcZ/xyPqED4UiCCNKPpptH2fDiO4PXupccN2qvzgEK+OGD/qFltcisGaJOE3D+Wvqx8ye/bsd999t7S0VOz8ZWVlCX8utFHcpk2bRMpMZ5SXl48fPz7KK43RAe66835jHb8BYFzG9KguZmChUcW4nkC0c2Gg/3iBESXFwJB3BCVi6kIppj37jr8WvcXE6AZ3333322+/re/85eXl7d69O9TVW7JkycaNG32+1t/Z4uLisCuEeY0xepOIKgJjXmAoEW0E9sJX119MIESYFCMcwegtpv8TUSz0VPlB4zIWMXoB4d7pO38LFy6srq5euHChPmDDhg2zZ8+eMWNGbm6uw+HQCwcBIDc3Nzc3d8GCBU888URYu/MYvYPxUF7myCnR3s0aWBh/erCaE3ohdtVfAqHQlhRj/Jd679FXVy3ZFNUl9WfSh080LjIuiknycn4Q7VXFME5ohXt6enr7gvetW7du3bo1VA4mJydHDItpxPQtxn/HY1HQMIw/PfSO99yPvEAAWDBjpfHBMUdw7rTvGR986OSbN1gdUVJSciPTY3SPDk1dzP71IeVXPze+ERiLgoYS0UZg7zw99C8TeHv20oiyh4f4jmBExSTelgYjlUy7du0SkbewimwhzdXhlKKiovz8fIPLEPh8vrBy7xgxBgpnvvzY4EiJmGLq2KH0t41A6G8mUCKmSB1B488Ug5KIvq7rPjEUFxf//Oc/f+SRR1wu15///Ofy8vLc3NzrXvaBBx749a9/bXwZAFBWVrZjx46IpsSI0U849eVBgyPHj7plKKs5tqe/bQRCfzOBELkj+Pa+56O3mP7PtEiUYirrzp8u7+qv9+mnn37iiSeERrPD4di+fTt8PRexvTRXUVFRYWGh0DrRj+Tm5obJd+3atUtMLCoqAoDXX38dALZs2bJlyxaR9FhcXJyfn99eDCxGjH5FRdVp47pojkyj/VCHCMYd6F4LIPc7ExipI1hZd/7jE29Ebz39HFtcSs7kxcbHd+EIiq2+sB4FS5Ys0XMRO5Pm8ng8wqQBQH5+/meffbZt27bVq1frY7Zs2bJ169a1a9euXbv2s88+a7+nWFxc/NJLL61du1aIgQ3xTcdYlLg/46qIQBdtSiSFXoMej7fKeJvcXksj6ncmECJ3BN/75OWhnPF/eyTCOtd1BNtTW1srXnQozbVmzRq9s4HL5SotLd2+fXtOTs7SpUuXLVsmxuzYsUNUeefl5YmzYsqGDRs2bNiQkJBQUVGRlZWVl5eXk5MjBkS0wl7GEUKYs5ufn9+F9SooKBBOcIfocyONEhcVFekKotddQ4wb5OT5jwyOzBg+0W4bGdXFDCyMR0GhF73AflQUoSMcwb8f7PTHIgyNKu8eLFpx18aorqrfElF1BADsPfrqjT+cdijNJXr26qkxtbW1K1asEEn8XaucLF++/KGHHnI4HGlpaStWrFizZs0NLi/aiA/ldrtfeeWVO+644+233166dCkAhFbvtaesrKwLMZeu53ZBY2OjkBi9wevEuC4eb5XB/t4AMHnc3KguZsBhPApqi0vpNTWr/ugFQuSO4IlzH0b0iDHIiKg6ojNHUPheYdVpx44d08u3QykvL+/w4mlpaTvbOHDgwJo1a4zUbjscjgMHDvz9739/5JFHfv/737dXQumfpKenb9iw4Q9/+MPPf/5zcSTUzysoKBCeYm5urtvtLioqqq6u3rFjR25urnDa8vPzd+3aJdohuVyuMB9x/fr1Yrru0rX39gDA5XLt2LGjurpa7L+GrSE0v1cPLxcUFKxfvz4/P18cjzXgNc4JVwSK8xHJXQ16NKoY/4l2jO29xhr91ARGuiMIAO8eLBqyXYGmjJ8XkZ5sZzuCy5Yte+ihh/RNvqKiotLS0gcffDBsWGfSXDk5OdXV1boBc7vdIkiYnZ29fv16cdDpdLpcLmFudfUv8SvscDhWrVo1f/78xsZG45+lzxE+qzAwZWVlYvHCCLlcLpfL9cgjj3i93gceeCAtLW3ZsmXbtm37xS9+AQClpaVbt27Ny8vbtm1bRkaGPhcAzp07Z7fbXS7Xn/70px07doivMczbKy0tBQCHw7Fs2bK0tLRt27aJvFz9Om63++c///m2bdvEGvSalrKyssOHD69du9blcmVlZf3qV7/qte9qoHPmolE/xp44MqbKG0pF1WnjxZSTxvReGlE/NYEQuSNYWXf+4OdDNy9m4W0PGB/cmSO4devW2bNnL1iwQLgOr7/++muvvSb6GAiuK8312muvvfTSS/qwpqYmAHjmmWcOHz4sDm7cuNFmswHA/PnzhfpXSUnJBx98IDyS3NzchoaG/h8IvS7CXAnTvmrVKofDkZCQAAB2uz0nJ0f/6rZt27Zq1aqcnBxxVmfSpEkbNmwAgLy8vPnz5x86dKiLe9ntdgDIyckJ20N95ZVX5s+fLw6uWrUqLS1NdwSXLFkiQtOPPvqovtcbo2u8LQ3GS7Cmjou5gF8jomLKrF5sr9gf9wIFEjHdu+Cxv+6OYIdv79FXcyYvHpqtuYQjaDzhqrMdQV2UKyMjI9T4dSHNJbYA9WEHDhxwu91er1f/oRdxTgBwu936NUXFhT5rzZo1Lpdr4CpeCruus2HDhvLy8nvuuQcAsrOzb2R/7kZ6QYTN3bNnTz9PNerPlJx5z/jg2EZgGDmTv31L1reMjDTL1t5UVe2/XiAATBk/L6JuyxpV3tj72+itp5/TI46gICcnJ9T+hZ3SX+/atWvLli0bN24M2y9MT0/v0Jh1dk3BALV/W7Zsyc7Obr/47du3u1yuffv21dbWdpEIel2OHTuWlJTUvblhW7aLFkUgrR4jjC8M54JazQkxXbRQFDVAmWpwcC+rivdrEwgA9+Y9FpG8gqviyJAtE+ypHUHj3HzzzQDwyCOPiKjd0KGkpKSkpMTpdBYUFOzYseOZZ54JG7Br1y6xgZeenp6amips2JIlS4RNMpKBIoKWxcXFpaWlIs9lzpw51dXV4taheTGLFi2qrq52u91hl33wwQf3798vliFscMwF7Da1ngrjIZZYOWAYLYEIdvctpvjoraQ9/TcQKrDbRi6YsTKiH+v3PnnZkTkr1Z4ZvVX1Wxbe9oDx0LFwBG/kz9XhcAw14wcA2dnZ69atA4DU1NSFCxeGRnSzsrKEtUtMTNy4cWN1dXVaWtqSJUuE4MCGDRuERE5KSsr27duzs7NDw6f6XJvNlpaWtnnz5tLS0rS0NH07Ni8vb9myZStXrkxLS3vkkUcaGlprYXNycpYtW3bfffelpqbu3LlTv056evrvfvc7sYzs7Ow///nPYTcS98rKyor+dzbgOV62x/jgKTfFoqBfI6AYTYQhWO5lSTnEOe/N+3UDjSqF//2w8XIcAEi1Z679/stDU53vhf9+2PjjasbwiT/7/stRXU+MGIOAZ/+60qAumkRMTz78ztD88emQgNJc33jV4GBbXEpi/PCorieM/h4IBQCJmO6ZF1mKYK2nYs8nQ/SXvQd3BGPEiAEA5Vc/N64LOt0RgWzvUMAf9F5/UBsWU2+3Fx4AJhAAHJmzpk+6M6IpB0+8MTSL5Xt/RzBGjMGNcVE0AJg28Y7orWTAwTn3B4yaQImYTLIlqutpz8AwgQBw97w1kT5bvf7+pqGpHRqpI/hp6a7oLSZGjAGNRpWT54yKwtjiUiJKYh/0BBQfB6N7bVaz7fqDepoBYwJtcSmLv/lwRFO8LQ1Ds5VSNxzBgGHhhhgxhhSnyg8alzWJNFg16GkJNBkfHGeJmcAumTt9eaTVNqfKDzpL/hal9fRnInIEvS0NsXBojBgdYrwcEABm3ByrvPwKVQsGlGaDg02SpU/2UAeSCQSA5Qt/aY2wcHLP4ZeHYMZHpI7g4dJdbsN5pDFiDBG8LQ1ll4w2CEy1Z8Z0QUOJyAW09oULCAPOBNptI5cteCzSWa+9v2kI/r5H5AhqVHlvqObQxojRGSVn3jMuvj8ja9C6gC6XS1fP14/oMvcdwjhr9l8zfos+2QiEAWcCAWD6pDsj6pMOABpV/rp741BLjYnUEXRVHBmC7vLApdZT8fGJNyKql40RKYdOvml88HTHoN0IrKysXLBggW7z3G73PffcU1lZ2cWUlkCj8UQYs2wluG90WgaeCQSAexc8Zk+MrB2zp6nq9fc3DbVuShE5ggDw1r7nh9pXNLDQqHK6/OBb+55/9q8rn/vbA38/WHTCcLJijEg5XX7Q+HPz+FG3DOIe8aJjiRBFAoA1a9asXr06VBe3pKQkzE30tUTgAiZY7T2yzm7Q3wXSOkQiphXf2vjyW49F9HtdfvXzvx8sujfyOOrAReiMuyqMbmaIvJhFsyPLvI0RbWo9Fa6KI66Ko+3/rzx3+ei/zFrdF4sa/Hx66h3jgwd9OeC2bdtmzJjhdDqbmppqa2t1ZcTi4uKnn346LS0NALKysoRe4NNPP/XJp4e27/iDGJM7+64Dh98HgILVP7XbkzyexrKzrvtW5P9s3b8CAMHE3Lu6oKEMSBMIAJkjp0SqHQoAn5buSk0eM3d6eK/XQczibz5cfvVz488KzpK/Tb5pbubIKVFdVYzrolHFdemI6/JRV8WRLqRJKqpOB4K+XhbXHwqIxw6DgyViGvTlEAkJCf/2b/8mJGf/9Kc/6ceffvrp1157TSiw5+bmFhcXr1q1StH8DfUdONAN9Q0N9Q3rf7Xum3NnNTe3iIPxVjtCqHc+RXsGZCBU8C+zVnejI8nfDxYZ/5c9CEgfPnF29tKIprwdC4f2Nd6Who0vLvrr7o2flu66rjRX2VD699xrHInEBZzuuHMoPIWsWbOmurp6/vz5ot8yAJSUlKSlpekdSJYsWXLixAlVC2q009ZIdyyc/825swAgPj4OABCgOEti1JfeOQPYBEK3aiQA4K//2DikEkQXffPhiNoIV9adH5rFlP0HW1yK8d3uc5ePRnUxQxCNKiVnI2iQO3fa96K3mH5FWlpa1z2cL1y4EFkiqMXWV4kwgoFtAu22kauWbIq0oFKjystvPTZ0rKBETIsiFNbZd/y1WKph32I8wuEyXLgWwyAlZ94zrgiTOXLKkC0HtNls1dXV+tvy8vI77rwjrBxQD3h2SB8mwggGtgkEgPGjbolUOA0A/EHfX3dv9HiNqr8PdHJuXhxRgYRGlTc+/O11x8TMZPQw3nPO29IwdJ7neoeIoqBzhowL2B6Hw5GdnV1QUFBSUrJly5b9+/c/+NAqDvzu7yyura17YduLL2x78UcrCjqbbpIssmTuzQW3Z8CbQACYO3357RFudwGAp6nq5bceGzpWcPnCX0Y0vqLq9Mcn3uhiwKnygxH1EY0RERHtc5+KFXT2HBVVp4133LTFpUwdSj3iV6xYMWfOnNAjO3fuvPXWW9etW+fxeJxOp6+lAQDGT7hp41O/+mjv/sZrTS9u//19K/LF4KXfvXvmbTP0uRFt0ESJAdAy1wgaVV5555fd6I6UMXziw/c+PxS2sgHgjQ9/W3Imgh0OiZge/+GrnVU7iQeIX/zotR5aXYxw/vjmmoqq00ZGptozH/9BTOW1ZyjevdH4I0Vezg9iRUQ6gaCvvqmrevlQCCZpKeP7MBdUMBi8QACQiOlHSzZFWi8PAJV15yOtLxy43DN3TUSPXRpVXn9/U4enPN4q0Ud0aDZl7B0mjbnN4MhaT0UsKN0juOvOR+RSD+UoaHsiUuDq21oInUFiAgHAYk548J7fdkNrvLLu/F//sXEoWEGLOSFSZYCKqtP/PLKj/fFDJ1qFoyLqJhojIiKKhcZkYnqE42cjiO1PHT+vP4Ty+gkBpVnRAgYH93kthM7gMYEAkGrPXHnXxm5MdFUc+es/Ng6FnnlTxs+LtIZ379FXw8Jx3paGw21ddmOyotFj/KhbjP/Cxp5FbpzQf9hGmDX1O9FbzICjqbnO+OA4S2Lf1kLoDCoTCABTxs/rXmjeVXHk5bceGwpW8O55kYVDAeD1D74mr7r/+Gv6W29LQywWGj2mGE61iMVCb5xPS3cZjwal2jNjDeJ1fH6PqgWNj4+3JkdvMREx2EwgAOTl/GBetyTQxL7goLeCtriUSMsEPU1Vb+17Xrxu/6Qc8z+iR0TKk7FY6I2gUSWiWojb+7cL6PP5Stpof7bDgwbR5xYVFRUUFAAA48wXyS6gWbbKkrl7a3C5XPn5+d2Y2BmD0AQCwN3z1kTaUEkgrOCgb6uUc/PiSB9gS868J35h9x59NexJ+eS5D4fCTmqfEIuF9hqflu4y/odvNSd0oxCrNyksLFy5cuW6devWrVvncDjy8/NdLpd+dvPmzaFvQykpKQltAdEefW5jY2NZWRkAeJvrKaPXXVLu7LtOnjgFbeXwXayhC7xeb2lpaaSzumBwmkAAWH7nL7tXr1NZd/6Pb64Z9PWCyxf+MtLUoTf2/vZw6Vufttss8Qd9sVho9IgoFhqrke82EfWFyLl5cTcy73qZ1atXHzhw4MCBAy6XKyUl5Z577tEb/u3cubPrVkddEDZXo8onhw/WVNcanE4wEUVo7dfQoUV0u92h/mJGRoboStG9xbdn0JpAAFhx18buBeuHQtW8LS7l3rzIskM1qryz/4UOT8X8j+gRUSw0ooTGGDqnyw8a30mViGn+jJVRXU+Ps3379uzs7P/8z/8Ubx0Oh7Ar69evdzgc69atu++++0SAceXKlefOnXM4HGKMcArFMGGx9LkAUF1dnTsv98n/2Py9ZT/8zVPPioMFq3/6wrYXxeuTJ04VrP6pOPhl+aU1jzw2b/aiLVu2hF7H5XLl5uauW7fuoYceys3N1dcsnNcFCxasXLnS4XAIO5eenp6VlSUGtF98NxjMJlAiph99e1P3+v54mqr++IbRwuQBSs7NiyPKDkUAjLMOT50uPxiLhUaJiGKhJ2JB6W6x77MIFB4GaC3EzJkzDx8+HHbw7bffPn78uHAW165dCwCvvfbapEmTXC6Xy+USLSDOnTtnt9vFkbDpnLP/evm5ne/8reil5/e890/hC4a1SRJvt+/4w7jxY198+YVzrnN6r0HBr371qxUrVog1ZGVlif1FwcKFC8V9s7OzX3nlFXFQtCTscPHdYDCbQACQiOnBe34bkTymjrel4eW3HhvcKQb3LnjM+B9zFzJCsVhoVDEeC/W2NMRUsyPFXXc+oofdBQPNBeyadevWOZ1Ot9utt0AKY9KkSWFGS8A5HzY8ZURaKgBMmz41NXV4VVVN1/eyWZPbl8OXlpauWbNGvH700UfF/qJg9uzZ4sXMmTO7t/jrMshNIABYzAkP3/t8N4RjoE0eZRB3DrKYE1Z0q5KyPbEQXPSILBYaE26NkIg6bzsyZw3QvhDl5eV6CFFn3759drt948aNCxYsWL9+fUQXVLUA7yQs1CEIYZMp7rrDQltPdM2NLF5n8JtAuDErCAB7Dr/8xoe/HazxpfGjbsnL+UHXY4yoGJ2KxUKjxvhRtxj/11t26cigT2nuQSJVROvntRCd4XQ69+/fv2lTuN5henr61q1bDxw48Nprr7399tsAYLPZjFyQMi2o+kOP1NbWjRw5ImxYlfsre4YR6exqeoj1zJkz2dnZRhbQ4eK7Qb+oz+8F7LaRD9/7/MtvPXbdHtwdUnLmPU9T1Y+WbBqUgtoLb3vAdelIp+r4CIxIqWtUOVV+MFLpmRgGmZG1yKCzolGl5Mx7132siSGIyAXMGD7ReFC6zzl27JhIPDl27FhpaekTTzyRnp4eNiY/Pz8/P3/y5Mmvv/66sD0i52XLli2ZmZn33ntvZxf3tXg4Z7W1dTvf2JWePvLPL/9l9jdvE0HRpd+9+89/ehUAGq81HS9p3R/5/9t78/imyrT//05O9qZL2oa0BSq0pYUCZakUhJYiVQGp1Kl81fog4CiowwyCL1DH+cHXkXmYQVyQeapi+Y6ojKADPFBRQAULFCxLKcVSaAsFWiBNtzTNnpzl98eBGLqk2XNOcr3/4JWe3Oc+d0KSz7mu+1qkYtnYsWM//vjjefPmRURE2PstFy9e/Pzzz69bt+7mzZtvv/32p59+6uQL7L14N8Deeust985kHWKhNGPEzKs3z7l3j6zWttReOzFy2ANu9KlnOFwuljR4/Jna70mqV3IPx+Ee4L1gXN6Y5Fzvrg2gkUXEnbhbl3VAuvXtD4z9nU/XExwo26/sLy92fnzuxCL3wuv8D0EQBHHn6zx//vz33nsvIyPD9qxWq507d65AILBardXV1fv27Zs4ceJ7771HPztr1qza2lqNRjN58uTY2Fiz2WwfqKnVah+Z9ZDe3EkSZOKwoVcbru3+z96HZ8987c8r6AHjJ2TodfqfDx+bNCVzyUvPicSiiRPHyyLii54uqqmpaW1tHTp06LBhw2xryMnJEQgE27ZtU6lUf/nLX2zqaBtAvxz6LPvX2OfiXSVImiU5j8msK9m70vl+YD0QC6WL8zew5WvgEpWXD+46PECbXMfwMMH/XfIt8/OlWErJ3pXOxxw9O2cdi+yVQOFSX6RwSfRrC3fAxxsh1KG5ZbLonR8fKZUHvDt8f4TEXqA99L6gezGiCCGjWVeyd6XjXrIsJXPkbPuSOm50McEJS3AH0AaWiSNnOT/YpUTv0MTVXcCs0Y+B/iGEjGatS/rHwwRhIqZUBO1NyEkguquCbltyOGHZX16884d1wVdN9PHclYlx6bTn0z3nwIUGyJH3FeNGzHT+J7i+6TRUinGMS7uAPEzA8Ipo/oEgcY1ugMyHHkSGxTKhL2B/hKIEorsq6Emh9+qGIx/tXhZktfmNZh3G5btjAN6l8db54LszYAg8TOBS5VuXfuJDDVdNwClj5rExHd7rdGlVzpQDtSEWSBkeQhiiEoju1o7xRAXb1E2bv14SNK6/+qbTH3y16Nrtak8mwQnLxWvQQdBXTExzwRcK2REOcNUEZF1FNF+gN3a55ALlIE54WIzv1uMVQlcCEV075rENnvg36Nz5vUc/YHVKnLL9SsnelZ99+7rRGwYc+EJ9R2JcuvPb2DhhOXbOhbpfoUOImIBlZWXr168vLCxcv359WVmZe5OsX7+erg6KE5Z1f1un1xucPzdMHMXnCZ0fb18OW6fT0RkdviakJZDm8dyV+dnLPJnhVE1pyd6VbHSKag2du45s2Pz1Ei+WN6tvAuPDh+RNWuT84ApXGgCFDqFgAr7wwgtLly5FCC1evBghtGbNGjcUpb6+ftu2bUePHq2rq1N3t7gUIYBxManEhSjQysrKoqIAvM8hlBfoAPrmuvbaiT4S45xDo2s7U/s9l4MNSxjr3bX5iPqm0z+e+teuwxt890i93wAAIABJREFUETQREzl4yKCepZgAryCXJZ6++K3l3sIc/UFSBEWR0NzcHldzAadPfCp9OMvSS0pLS0tKSs6dO5eXl5eWlpaTk/P73/9eoVDExMQghJRK5T//+c8LFy4MHTrUVgumsrIyISGhuLj4p59+SklJoY8fOHDg8uXL06ZNa2m7KQ7jicXioUMH0+NbVW3/2vrlpdq6iIgItbpLFh2FELpQfVFxt0AMRok5iEdn9dGTK5XK+vr6hIQEnU73zTff7N+//8aNG3K5nL7WkSNHjh49OnXqVKVSmZCQIBAIJBJJQkICPVtZWdlXX31148YN++zGPtfsKmAF3iE9KfsP84s9cXfghOVQRcln377O8PvuyssH3/my6LNvX/fdLib0TvIpLpVpBkOwBwd/KXF+cLgk2iWzmyFs27atoKBAKr0nDoUu+1JaWpqbm4sQun79em5uLl2ZrLKy8v7778/Jyamqqjp79iw9ACG0ZcsWlUr1yivL3924ESG07MWVdM/bHw4eeaLgvzRd3Tebbi36r6WrVtwpom0bwOcJ/1/JF5s3b6aPFxUVFRYWPvnkkytWrKisrNy8efOePXsQQmVlZbm5uXQXpC1btjQ0NNA9fuvr6+2NwtWrV69Zs4Yeb0vS72/NrhIqBdKcIT425eX5xdu/X+N24jy6G1QyN3tZ5kh32tb7gcyRs2XhcZeunbh4rdy9cnED0njrvNbQycbtE1Ywecy8o+d2OCls9I7gXM9c/UFDbWN5fZMLnTRyJxaxMRewra2tv9YKGzdufPfdd+fNm4cQkslkb7zxBq1GI0aMOHDgAK2adCe/zMzMTZs2vbLilV17vyRIq/0knxRvXfPWG4/MnokQioyK+PnwMftnOYgTJb2nqy1CKC8vz9YOgu7BRJOTk7Nnz55ly5Zt2rSpqKjo+PHj9HHbvqBSqaSbItFrKywsLC4upqfqc82uvldgBd6DLDzu5fnF7rWbt2E063Yd3vDZt68zNj0gafD4udnLXnt2x/KnSrLHzXe7gLgDal0JNwBcwtXsCDAEbbi0CxguiQ6+XECVSkXrH0Jo1qxZNTU1tqdsVqOtLTtFUThu6aF/CKG2tnZa//pEKokW8EU9DtraHiGE6uvrCwsLU1NTc3JyVCqVRqNxsODbt28rFArb2u6///6qqioHa3YVkMCe8DDBgjnrssfN93Ce+qbT73+1yKVbTv8TH5ti08K8SYvkskRvzQwte3zK1IwnnLdOcMLynSu7X8FKbWO5Sw4elpqACKG0tLTGxkbP59EZ1S61Q0II8TFBxECJEPn5+XQv3OPHj7stXd4CJLBv5mYve3bOOg8rYmsNnZ99+/quIxsYaw7aiI9NeShr8avPfP7qM597RQubWmrVWp94WQGEULgkeoorBkp1w5EQLxaDE5b9J1y4D2C1CbhgwYJjx47ZJ0LU19eXlpYihBQKBf0AIXTo0KHp06f3N4nOqO4vS0ouj932r3/Tj5tuNNs9w+FSd7Ig+tNgevfR5hS1YYt86X1cpVLpdHdWcvbsWbe74/YJ7AX2S3pS9suyxJ0/rPNkaxAhVHnpYP2N04/nrmRF2WK5LPGhrMUPZS1Wa1tqG8vPXT7k9suvrj8CLXt8x/SJRRU1pc4npO4vL17y+Ac+XRKTOVVT6tLON3tNQITQjBkz1q5du3TpUoVCMWXKlIqKCpVK9e677yKEVq9evWrVquPHj6vV6mPHjh09erTPGSy4qVvX3t/8b/3tL8teXEl3RJLLY23H582b99JLf7AZdklJSb3PTU1NVSgUOTk5toXRx+Pj4xUKRWFhYXR09GuvvWYbHx8fX1BQMGfOnDlz5pw9e7atrW3BggUuvyP9E3KdIlyFrgh6qqbU86lSE7Pm573OuiARWgtrr51wNXcwMS795SfA/+ZDvisvLnelYvvTj6wJzYaOOGF554si5zdEg6YpRFlZ2cmTJ2fNmmUfJ6JUKvfs2RMZGWmvJfaxJJcu1UbJBSRFIoQar15PSh5GH79QfTFj3GjbKfSf/9z0CULoTyteEguk0ZEJ27dv12g0hYWFdIoCvVfXO1DFNkyr1SYkJNi29OgoGHqw/Vn19fW7du2aOnWqvQnYYwAd8uoqIIFOUXn54N4yL5SAEQul0ycUsdQ20ho6axvLL1z52XktfG3hDlm492NtABqtofOdL4qc/1gGzS+7q/x0eptLgTD52cumeRwNwFJIimzvarbiZgdjfjh45PZt5cTM8Vcarn7w7v+8897fsnMeGBQ9nMth384apMY7RUJsytjk3Cs3zxlMjoKXBgQnLFdvnmtoPjNkUBrrzEEhXzxkUFrmyNmTx8xTxAzncDgDFsQRCaRJg8f7Z3khiJAvNpq6m1S1To63WI1WqynUMuW1hs6vDr7lfNWLhNiU+Xlv+HRJjIWiqE7NLQtucjysVdW273+/O/DdD3q9fvnKPzwwLSsmcjCfnbdWYAW6gMms23v0A29llM/IfCZ3QpF7ZdS1hs5TNaUPZS32ykrcxmTWXbxWfunaibobp/u0ReSyxFefgX4FPkRr6Pzgq0XOF3flYYI/zC+Od7dfJhtx1V0cyt2GOzW3jRaXY/fCJdERYbEDj2MkYAW6AI8nGJOcK4uIu3a72nOn6HXlr6cvfsvDBG50LhTyxSV7V4qF0sD2r+fxBAmxKRkjZk6f8JQiejjG5XVobtnfbhtMmnEjZoaJIwO4yOBGyBfzMEF90xknx5MU0dbVzNi6DV5HrW35z+ENLpmA+Tl/9OmSGIta22I0a109SyyQRoUHOLHBE0ACXSYhNmXiyNmqzusdmlseToUTlvqmMxeu/BwZJnc1D+HouR2Xb1TIIuKcbx3gO7hcLC5m+JjkXFoLhQJJl7aFvkuQiCLBF+pTEuQpZ2u/d7JqKEJIrW2RyxLjYob7dFUMYfeRDarOa86PXzBnXaRU7rv1MJZufYfe2OXqWTxMEBs1hMkdcQcEJNAdhHzxhLSHeZjghrLG7craNgwmzYUrP1+7XZ0Qm+L8BuHZS9+bzLraaycYooI0tBamD8/OnfhMQmwKny9sVl2alD430OsKZrhcTCKOrL12wvlTbihrxqc9LOSLfbcqJtB467xLFUFHJ2XnTHjKd+thLHpjV7e+3xSI/uByuPKooVwu5osl+Q2QQPcZljB2bHLurbZ6ja7N89nU2pZTF7/VGdWDB6U589t04sJuOuO+9tqJhNgULxZ28RZyWWL68GzQPz+QEJvS0HzG+c+hxWrs1rePSR64snDjrfO+qJ/nH7YfWONSZbiiR9awLkjNc4xmrVqrcvUsDuLERA3m83oWQmMd7IthZRRyWeLLTxR7sZb8qZrSd74o+un0NpcKyuz4YR3DK7EBvubx3JUuja9uODJgYFd902mXcgkYxYnqXS5VdcgcNTukooRoDKbuzm6lGydGSGOFfInX1+N/QAK9wENZi19+othbdhhOWA6f+fydLwcQQhy32J/y5fdrQAVDmfjYFFcL235XXuzASMIJy96jH7C0yp3JrDt6bofz43mYYNaUJb5bDzMxmLrd+/8NE0VKxS60w2UyIIHeITEufflTJTMyn/FW3rHRrHMshD1+vGgVbGpxNkUMCD7yJi1yyY+nNXQ6KJ99+Mzn6u4WdXeL58HP/ufwmc9dcoFOGTMv1FygbuufkC+OlA7y+noCBUig16BvJJc/VeLFRIUBhdAenLBs2/96iFdDDmVEQumsB1wzZfpzhzbeOl9W+RX92EdNJX1Hm7qpwpWKhuGS6OmudCEOAtzWPz5PGB05mNUhoD0ACfQy9O5gfvYyD7tM2GMTQpvnqr87XKNZV7J3JahgyJI5crard2C93aFqbcv2A2tsfw5YA4hpHKoocclyzZ1YFFImoNbQ6Z7+YVx+TEQCG6ugOQAiQn1CYly6t3IHbeCEpUlVe/z8N106lcHQVd/cdzY0TlguXPk5Y8RML2owwCKGxY89U/u987k6PaJDccLyr32r7H8iE+PSA1uBwSVqG8t/ciWEJyE25fEZr7I9st95uvUdWkOHGydyOVy5bGjwFZiFZkm+IlwS/dxjG2oby/ce/cC7PbsrLx1EFEL9uyJoW3DJ4x9AieoQRC5LzJu06FCFC/lw1Q1HRg2fRjeR6N0drMv1iPlAQYeSuXRK3qRFwfez3h+ulgu3wcMESx7/ICjfqKAyaRlIelL2q8987nkP+p4M5IpXd7eU7F3J0nA+wENmZD7jnjt015ENFxvLezzVyh5H6KmaUpcSIUYnZYdOOdBdRza4rX/PPrqORZ4Al4Ay2X6iTd10qKKk9++Le3AQcua/TRYRt/zJEvcqcfsBgqQIkrLiJEUhK0HajluspIOz+NhvmxEYl8PlcPg8Dsbl8DC4n/sNZfuVj3Ytc2lLLCpC0dXdh8HHllrnWkPnP79e4rzHJXQqhpvMOk9Sh+fnvR7ERWVBAv1K463z35UXe9iG3iUSYlOWPP4BE1SQJCkrTloJiiApkqIc65x78DEul8vhYRyMy+HzuDwseOLW3MA1r5fDu6q/L/vZK0vyKXuPfuBSa+vscfPnZi/z3XoYgtbQue3b193+zZk1ZQlL+5s6Cdw4+5WkweP/9FTJ036sw3S7/UrJ3pUu1ZrxIiRJmSyE1oB3dJvbNOYuvVVvwk0Wwhf6hxCyEqTZSuhNeLfBSl9Ro7cazDhOhOJ93ozMZ1woHuvwHWK+R13ZfsUl/QuRRAhl+5WPdy9zW//yJi0Kbv1DIIEBYdyIma8t3DFryhI3gzZdtG1oFfRbgjNF3SN7ARShHgJMr4QgQ0UOeZhgft7rAwxy7s1gfl7ErsMbXBofCokQjbfOl+xd6XZaZ96kRQHvSOoHICkiMHC52LCEsRNHzqYo8nb7FZfaTbjh3dMaOm+11o9NyfVp8LfZQuhNRLfBarKQVoJklNZQFMIJymIlDWbCSpCIQjyME0wZvn1C/8pfu13d7wjn3oBh8WOHDErz0qK8z4nqXZWXDzk/PhQSIU5U79p1eIPzLbR6MD/vde8H8TESkMBAIuSLUxOzJqXPdUMIXaVDc8tHKogTlMFMaAxWo4VghcuRICmzlTSYCdoiDO44msS49LrrFX0Eibii/rFRQ1ITs7y4Ki+iNXR+degtl5wcj+euVARvu0STWbfzx3Unqne7/XsS3PEvPQjmLz9bCJdEz81e9trCHc7cdnlittQ3nf7y+zUDj3MOkqQMZryj29zRbdabcGYZfU5AUchoJrp01jaNWWcM2v1C2h1qn9F15yPkystl8l7gd+XFRle2uoM7EaJN3fTR7mWeRJ6HlP4hsAKZA20RZo6abbLofVfhrENzq0unSh/u0U8ASVJ6E6ExWM1W1glfH1AUsuKk0UwQJMXDOFxusHlHwyXRXA529eY5xxUVHMDHBJPHzPP2urxA463z35/8xPnxPEzw1MNvBusuYHXDke0H1njSvjTU9A9BdRimIQuPmz/z9bxJiw6f+bzy0sEezzqZDugYetr5MwcKlOgLgqTokM6gTKUxWQiThRDyMYkIE/CCx0GiNXTqjWouFyNJNz1jzMyOp9s5uXTKlDHzgjUR8Lvy4vLqXW6fTnsL6ApBIQXkBTIXtbblZPXuippSXwRzTh4zz6UmqzhBGcy40ezD3UpGIeBzJUJMyGdxxITJrLt4rfzStRNeKcjw5nO7mWY8lVV+5VIduHBJ9GsLdwRflS+toXPnD+sab513ewaxULpgzrqkweO9uCq2AFYgc5GFx83NXpY3aVFFTenJC7t1hk4v3q2cqimVimXOBD3jxB3Lz3sXZwEWK2mxknyMCBOzTAibWmqV7Vcams94qxQRjbq7hVESqNa2uFrua272suDTv+qGI/uOfuDSbmgPZBFxz85ZF6zG8YCABDIdkVA6I/OZlKETPt69nCJxL85M/4I4UEGKQnoTbjDjIespsBJkl44UCchwMY/he4SVlw+evvit73omt3U1MapK5HflxS55R1ITs4LMy2cy6/afKO69XeISCbEpix/bwKibGz8DEsgOyiq/Ir2qfzSHz3zOwwR9FoAwWwmtIYQSyR1Al7ORiLAwEXO/L5kjZ4sF0v0nin3U4ba9q9kX07pHbWO5SzYuDxPkB1cttPqm07sOb/CwBU1qYlbRI2uYUD0xgDD3Kw3YqG444l2nlj2HKkrCw6Ltw8BIkuo24GZraHk+HUNSlM6ImyxEhITPZ2qkTHpSdnpS9onqXYfPfO6JZ6xPmNM73o0omNyJRXJZoo/W42fol++h8YcQyhw1+/HclcHnGXYVkECmozV07nPxC+8qdHGpzJGzKQoZzLjeFLqeT8fgBNWptYiFmFTEXL/otHHzM0fOPlq1o/z8Li8GUjEnNXB/rzb3jpFFxAVNocumltpdRzZ4Xq8uRIqfOQNIINPZ+cM6r9/R92bX4Q3REUMjpSPsmxYBfWI0E2YrGRnGZ2zihEgonTVlSdboxw79UlLdcMQrczKkTGhTS61L5bARQvnTgiEKhu4GXFb5lYfziIXSgtyVQbYt6gkggYzmp9PbPIl17g0PEyTGpfMwwVDFKIQQHQadNHg8XU4a9M9JSJJSay1hIp5UzNxvkCw87ulH1uROLNpfXuz5p8ho1pnMusDuG+GExVWPSHDUglG2X9nxwzrP70LkssRn56wLGp+wV2DuFxiobzrtXpdnhJAsIk4WHhcuiY6NGioWSuNjU+h/e4+kKKQ14Aaz92Ntgh69CbcSZKSEz1inKEIoPjZlyeMf1DaWH6wo8fA3tFUd4KDQssqvXOr7w8MEBa4kvzKTssqvDp/53HOf9uik7PkzXw/x4JfegAQyFCfreSbEpoiEUrksUSqWyWWJ4ZJoWvycvApOUN16Kxh/bmOxkh1aC5OdojR0pMypmtLDZz53O4xQrW0JoAS2qZuOntvh0il5kxaxOty/Td2068gGryS65GcvmxYanR9cBSSQiSjbr+z8YZ39fR/tsUyMS8e4fNqTSYufJ1ehnZ8khL54BiucojSTx8wbN2JmefWuo+d2uGFVBDYodO/RD1xac0JsSvZ4Fv/oe8v4C+XKL87A9C9taNJ46/z0CUX0HbePPrs6I643gfPTa+hNOE5QkWF8hrcgFAmlD2Utnjxm3qGKElcD69s1AUsNPFVT6up2JntrwdQ3nd5fXuyV+KPEuPQFc9ax2hT2NVAjNBSBzT8fwedxZVI+WzrxKtuvHPylpL7ptJPjE+PSX36i2KdL6hOtofODrxa5FBedOWq2e4XgA4uy/YpXYpdoZk1ZEjTZIL4DrMDQgqJQt8EaagU//YYVJzu1liipAGNwgIyN+NiU5x7bUN90+tAvJc6EmQTKEepqR8BwSXT+NJbVgtEaOg+f+dzVfI/+kMsS5898nVEF7RgLSGAIQVFUl95qsULwiw/BCUqttURJ+WxpRp+amJWamFV5+eChX0ocR8poDZ04YfGzd7G2sdzV1Ma52ctYFPeIE5by87uOVe3wVvrvjMxn8iYtYqkT2P+ABIYKBElpdBD86Q8IklJrrZFSpoeJ2pM5cva4ETPLKr86eWG3g9/iNnWTP1sKuFELjV3lsGsby71Y1hWMPzcACQwJCJJSay1Q89pvkBTVpbNEhvFZ1GiJhwnoSBkHHjl1d4s/JdDVWmh031ffrceLeHfbD0HNT3cBCQx+QP8CAkUhjd4aGYZYpIIIoXBJ9OO5K6dlPHGooqR3cfZWdZM/TYy8SYvU3S3OB+zkZy9jfvSjd7f9EELhkuj5ea+nJmZ5a8KQAiJCgxyKotRa8H8GDC6HIwtnzb5gDxpvnf+uvNg+UmbymHmP+73eSuXlg85ExAQqYNV5vL7thxDKHDU7fxqb9j6ZBkhgMENRqEtvgfiXwMLlcqLD2REj2ifVDUcOVZTQ+1WpiVnPPbbB/2sYsD0sDxP8YX4xY1uf44TlVE3p0XM7POzwZ49YKH36kTVg/HkISGAwo9FD/gMjwLicmAgBW/IFe2MzX0RC6WvPulalzIs46BPL2O4/vhA/hFBqYtb8vNeZ7/VlPiCBQQvkvzMKPsaVhQtYK4IIIWQy6w6f+XxuQNuv99kzSC5LXP5UCdMiQXwkfmKhdG72Mvse14AngAQGJ1D/jIEI+RjzK6ixgh6dY5c8/gGjamD6SPwQQqOTsgtyV4Lx50VAAoMQs4Xo0lsDvQqgD1hRTZst0IWk6WSAQK/lDr4Tv4TYlLnZyxil9MEBSGCwQZBUZ7cF+j8wlqgwvlDApjQJJtOmbgqXRDMhHtJk1pVX73JcWMA9wiXRc7OXsSjfn12ABAYVFIXUOosVhxBQ5sLlcKIjWBwgCvTAd+LHwwS5E4tmZD7DtG3OYAIkMKiALUBWwOdxZVJ2h8YACCGtofPkhd2nakq9Ln4IoXEjZs5lQ6Y/24FtieDBbCFA/1iBFSf1Jhw2BdlLU0vtyQu7Xa3f7SSJcelzpy2DUp/+Ab6EQQJBUt0G0D/WoDfhfIwDm4LsAics1Q1HTlbvdqa3lBvAtp//AQkMBuhylBACwy66DXg0jwubgqxArW05ffFbH/k8EWz7BQ6QwGDAaMYhBIZ1kBSlM+KRYfxALwRwRH3T6XOXD/nI50kD234BBCSQ9ZAkpYMtQHZishAiPhfcoQwEJyyVlw6euLDbloDvC0YnZedNWsTY0qahAEgg69EacfCAspduIx7LxyA6lDmotS0nq3dXXj7oI58nDYgfQwAJZDdmKwGFsFkNSVIQHcoEcMJysbH83OVDzrcndA8QP0YBXzwWQ1FIZwQXKOsxmHGRAONhYAkGhjZ104kLuy80HPGp2YdA/BgJSCCL0ZtwnAhdH+jVK/UNdZfa29sCvZCexMbKR6SNSk5JdXI8RSGt0SqTBm0ooMmovVC+PX3UWOmQ7ECv5TdMZl11wxFf7/bRgPgxFqgOw1YIkuroNofs/96Ph747XXEi0KtwRNaUaQ/Pmuv8+Mgwvijo4mJMRu2ZI1+cPfKFQCh6OAMTylJiRi8MuBDSQZ4XG8txwuLra2WOmj0t4wkQP8YCEshWQrkd7sWaC3t37wz0Kgbm8SeeHj0mw8nBXC4nNkIYNHExNvEzGbUIoYgo+cMZdwQ+UEKo1rZUXjp4ru6QurvFD5fLHDU7b9IiWXicH64FuA04QlkJQVIhq38IoUsXLwR6CU5x6eIF5yWQJCmThRALWW8I9hC/3pjVV26Xr/WnEDa11B4+87mv41xsgPixCJBAVmI0h67+IYRaWpSBXoJTuLpOo5ndEjig+NnjTyGURcT5Qf/EQmnGiJm5E4tA/FgESCD7IEnKYIZA0CDESpBmC8HGTHmXxM8e/whhuCQ6NTHLdyoolyVOy3hi3IiZTOhcCLgESCD7MJiJgGzgUu0qqqP1zuP6X509SxTGTUyiH3OT0xAvaOMevYLexDIJdFv87PGDEE4e/ZgvJHB0UnbW6MdSE7O8PjPgH0ACWYYfTEDKoKeaG8mmRo5JTzXWUQYd2VjnyYQ9nLYcSRhnaBInQsaJH4KiB3FiFdy0sZ7MH0ywzhA8c+SL8u+KvTIVLYTDH/uKH+Z9R2LqfVnhkmitodMrs4mF0slj5mWNfgx8nmwHJJBl+MIEpAx68mIlarlJ1v1KKW9S3WovX6DX5ai6nkYkJ24oN34wZ2gSGp6Gjcn06QIYDusMQVbAwwTjRswsr97l4TxyWWLuxKJxI2ZCS4fgACSQTVCUN01AqqWZqKqgzld4aOR5bTEtzaiqAiGE8wTY2Ilo9ERswgOcCFmgl+ZvrARpthJCPqigl8ka/ZgnEjhuxMypGU9AJ9sgAySQTRgt3jEBiTPHyJ/2MUH5+ga3EFUVqKqC2P4RNu0h7vQ53KS0QK/Jr5gsJNMk0KLvEITFBOrqJqNWKBByPDO85LLExLj0ppZal84Kl0Rnjpo9NeMJaGYUlIAEsgmTxdOmgFRLM/7pO2TzNa+sxw8QJ34iTvyETXuIt+APA4bSREdHv7X2//PPwux56+2/dXZ6Z5OJxmwlKIrHYUaePB3wUle5f3qqWTJovHjQOEn8JHGMz40h3GpuajjT1HCm8eJx1c3LTz2SLhv1dFTKPE+EMGv0Y85LYGpi1sSRs6CHe3ADEsgaCJLysC8u2XwNf/cNyqD31pL8BnHiJ/JqneD/fhgiAaUUhUwWMuA5gvbRnhFRcoQwQ+t5Q+v5jprPOZhAMmi8WJ5BmLyp/Qih29eqm27svlZbfutatf1x3NTZVvWR+tJOT4Rw3IiZe8s+cFwXTRYRl5X+WOao2WD2hQIggazB83R48vA+NuofDdXSTJw6hk17KNAL8RMmayDT5AdMdaAIi155Wq883XXDy90V9v5rlcHU70fdQyHkYYLMUbNP1ZT2+dS41JkZKQ9ChkNIARLIGjyviNbWWM/q21q16nZsoNfgNyxWkiApjBsYX+ieLX+6Ue+ncmJuQAuhpatRMfk1V8+dmDarhwRCYnsoAxLIDiw4SZCeRsJU112cET+Yo+/2ypL8jCFCVlt1anrhQgdjjEbjgYOH/LYk++v6ZFozAa10vU5iXLpcltimbqLrmU3LeEIuSwz0ooCAAV8wduCVotidGs0+TdfscZmizlbPZ/MnN0Rhpy9UDckaoG5IoCTQR5gsIIE+YfaUJVbCMjopG3L7APiCsQCK8o4ECqNkxo62b8+dlkdEZgxPidZ3I9zq+bS+gwqLUCLOubpaI25FCPGlEYFekV8hSMqCkwIeN9ALCTbSkxjUuRcILCCBLMBi9U464Ognf3/24w0IobZuzeHqSjGPf198QmKsPNJoQCaDFy7gJUiZvJ0kG2/fbL5+3XaQi2Hjnl8ZuEUFBosVJBAAfAhIIAuwEt4piTZy3lM8cdipD96iKBIhZMStl5tvXG6+gRCSR0QmxA6SSaXhPH4A3KTiMJM4TI3j7eqOm60qnZ3y0Qik4bP/uUMaPUD/DrHPAAAgAElEQVRqdtDkBdqwWEkk9sXEAAAgBBLICixWTzPiaTT7v0nOfjhmy66qT99rqTpFEr/VWmvr1rR1a2x/RoolEpEoPnYQD8MUkjAeRfLU7V5ZA8J4pshoK0l2moxak7lL06nRaw2Wfv2xPKEo7XcLJjy/gqiq6Gq+FvXAg95ZBkuwEiRFUQzJkQeA4AMkkOlQFGUlvCOB7V1q8d9XRRQumvn3LQihqv+3qfn4D9rbN2mj0B6N0aAxGpTqPiybmDCpQHBPEAGtlPZHdHqtWndPuli3tluPu1DdFOMLo9NGjy16ISFrOsItxJ7P8fIfO2fNj3J+imDBYiWhajYA+AiQQKbjLRMQIdTarhpiteDbNpHHDnCnz5mw6A8Tnl+BELp+9FDjwT3qa/Xmbg1pdVQ4AyHUodehe9Pr+1RKN+CJJVJFQtz4ycmPPiEbnooQorrV+I/7yIO7qG61JTHFK1dhHVaCEgZ6DQAQrIAEMh1vbQQihMIUCbiui3dLTzbWkY11+PaPsMnTOaMn3jcha1juLNuwy3u+bK/71djRprl+hSRwi879Vqj9weFw+WFhPJE4fPB9UUmp8tET7RdAtTTjR79H508RNZW2g50EHhY32PG0OG5tuHLF66sdENyXgbXBsR2I8aUGgpJgpkAvBADuASSQ6XjRClRkTNLcaPgtpAS3ECd+Qid+Qghxhw7njsxAg4dz4oeOLHy2x4l61e3mE4fpxy3VZ6z6e0SRVkr7I8IImUSusD8SnZIeNigOIRQ++L7Bk6f3XBluIet+JZsa0bU6su7XPhsWKtvbJqVnOH6B3d3af/7PR47HsA7WbQcKJDJxmBxxxQTF6VJ3WczG282N6EbNmbMIITQ8OVUkEg+Jjw4Xk5ESFIm1CDHftoAGAAeABDIaL24EIoRi0zPOb/+oz6hKsvmaffsI7tDhnMhoTlIaQoiTOlaM0Mh5T9ElqnsLpEtQ3Wqy7lfKoEc3G5HVSjZedqpJL4+vF4kxfoh6BJm8HSgRYvJIQYfGojeQVoJo7bQgpEfoZn/jr12tRwhdunjPwUgpn8/nxETw04aFe14FCQCcBySQ0Vg8aw3RA4wv7DCbEE+A8AE2/Mjma6j5GrLzQ9rgxCo4MYPsj3DjhqLIe+JUeqsa1dzoSYVua6wiethIt09nO0zYDrQSZKshZpCkq8fxYXHiYXF3HLV6I2EOmyAb9XTT1YsGfTdutTTWVSGENJ2typtXEUKJSekSaSRCKHXMZIRQpEwePzRl379WWY0dXC6HQKj2et9ed0nkUJPVLOJDiiTgZUACGQ3hvY1Ampj08eTt61xls9szUO0qql1lf4Ss+9XjdQ2ABnFiRw7gBUXBmBdI43/DaNCQkVqd2YJzdDq9yai/eb0BIf2vNU22ASNGjqUfxMmlIqEIISQLI8JEnNS0iYPGTkkbO8X5ayWNzGy9fQNxBQTFQwiRJNWt0SCEcNxy83rD3VGXL1y4c12RkB8nj0yMD4sNH+KN1wqENCCBjMZ7TtA7DBo7SdfRyro6Y7daW8aPmxToVQQM3Oufg4F4aP4b9l2plDevdqvb7jxuvqK5+xjdNezEYRGJSW420Z3/4of0g6bGWqO+22YyIoQmTkWxiiGxiqH0nxEyefyQZPeuAgB9AhLIaHDSy799inGTLpf+m3US2MXhCKThgV5FwMC97QxwlfghyTbtccnCcwm3RRQA3AYkkNF4/bdPIA3vcCVFnQng0fKY4aG7EUiDExQPY01QKACwBZBA5kJRFOmDTSBR/FBSJOS23vZkkkF/fc+ZYfqyH/Q/e9q9SMMXyIanOTMyyPoF2kMQZI8SPAAAeA5IIHPxkftLMfZ+w9ljHrbHFo0e58ww88Vqz66DEEK321SjnNsIDLJ+gfbgZOCDQgEg+IAgY+bixYxAexTjJrWb2FSko8NoHLAuTNAT8O1AAAhKQAKZi7dDYe4QFje4Va8beBwzIKSRERmhGwtqAxLGAcAXgAQyF9IrfXL7ghOjQLJYH03uXbRCUczdFLRQxhe7wgAAgAQyFx9ZgQihmJEZpgiZr2b3KrfVHbGjxgd6FYHHd/dDABDKgAQyFwr56ldPMT5LTRA+mty7tHZ2RCc7FQ4a3IACAoAvgIjQUCQ6Oe2yRh0f6GUMCCUQikZPCPQqQh3K3EkRBttjhBvueZqDcSTxCCGOQMbhhbl/FVxPWdQIIUrfq8Q2P4IjiLh7NQlHGO32VQCgByCBzMXrBULtsUbIEG5BRvdLV/sBnUQ6aCzEwtyBICmM66fs+Ir972g7m5KSUvkCLDpCjHE5GKG58xwmorgihBCiCKvlTpkFs6ENtxgQQkLZyKj0hS5dq+w/b1qN3QihyCiZPPZOBXZ59B01FXCtiLibdsmPoBDXajaThMWoVYrjJkckF3j0OoGQByQwRJElj7RgXEFTABrMOo9S0xWf7lQCIuBdGq/U3qg/fbbiiO1IRJT84QxHuflcjC8QR/JE0URnFSLMCBGUUYkQosxqCv/tTotz16TjiIcghBBPolY16rrbW1pUON6vc14iwuZkyXsc5EWChxzwFJBA5uLT7R9FxiT19TrFwAMDye3W1vQU+Jm7A0VRCDGuRtr1FqOJkiYPT5RIxGERkWFijFAddTCesnZT1m6EELrr8MybNkGjURt0XSSBG7tulVU1my3+LgsOhCwggczFp0GAsekZ57d3M1kCKYzHS0kL2Ta5vWFmWoTBTFy6cetiwy37gxkTpoSFhd83LEUs4EilEj4ycigrQghxhRQmxC1mksCN3UqLoc3QcacpBAchDCGpEPnN2QsACCQwZMH4Qh1f4Ez73EBhkITJx2UFehWAO1yoqkAI/VL+o+3IgH5UAAgIIIGhS0TyKLyZz7t13Y1zNd984cwwT2qEtur1MU60yQUAAHAbkMDQJXZkhkZ5I8atc52UQE+4cfvmg6MgFgYAAB8CqfHMhePjPRHFuEnt2m7fXsMDOIMTQ7lNbm9giwwAvA5YgcyFy+EQvoyIYXL7XJNEGjMKkuLvgQtxIgDgbcAKDGkiRqSTgxICvYo+6CRISIoHAMDXgBXIXLhcjq9b5MSMzNB1tEY4HCOaMEk4YpRw9DiEkPlitbnhkqnqjBvX4vAFlNXZ6NMbt29NTodYmHvg+tozDgChB0ggc/HDL558ZMaNH/b2J4HcMGn00lck0x60HaGbxZuqznQUbyS6Op2/kGBYctiMR9TbPnZyvC5MKmZJOye/AQoIAF4HHKHMheP7AIiwuMEdJmOfT3H4AsX6f9rrnw3RhEmK9Zu5YVLnLyRbukI66zHBsGRnBltFkphx4AW9B9A/APAFIIHMheuX/xxeQmKf7XNlz73MHzy037MGxckWv+zkJcRZ04Spozh8QeSTThVQ7iRJxdj7nZw8RPCzFxTjCfx5OffgcPmBXgLAekACmYt/fvViRo41RvbsPsMbFCd95DHHJ4Y9OMtJq86mfOKsac6c0qxqUYAVeC9+lsAnXvznQ/PfCItgqC9aKEtJyH47Ov2ZQC8EYD0ggczFP1Zg7KjxKpOpx0G+c9rGH54y4BjpI/f4P2VLVwx4ipqiwuIGO7OA0AHD/CqBPL5w0syFf1j3Y39CyBNFh983c9D9K2RpT3j30k8u++Sh+W+kjsvj9VUelha/+2Z9Kh2S7d3rAqEJhMMwFz7mDw2MTk67rNcOu/egk+ad4L4kx/0GOXxB5JPP2h8Rpo4SZ00znj7R3ykkjx8+NtOZq4cUPP9K4J2L8oWTZi6ckPNU1fGvL1bs4gqQZNB4sTwjLD5LEJFIj+HWNXv3orFxyfHJ0ybNXIgQunWtuqn+dFPDmZbGX4SylJjRC0H5AO8CEshc/FYyv3f7XNLgVCtdQqN2PEA66zEsqqeXNfLJhQ4kUM3hQkZgbwLYP4EWQlqT/Mzg4eMGDx/3wKwl/r80ECKAI5S5cLkc/+wADRo7ySKPtz9iqa915kTL9asOnsWioiMef6r3ccGw5LAHZ/V31s22NsV4aBDRk4BYgQAQ9IAEMhr/7ADJ08d1kPc0KbVcu4q3tjg+i+jqtNRfcjAg4vGnepuANFH/9TyH33fMYbvFEp0MbXJ7gvlnZxgAQgz4XjEa/2wHylLSbra32h+hrJbO4o2Oz+oo3kjqdf09i0VFS2f1G1Pa37Mkj88fMWqg9YYcPIwDeYEA4AtAAhmNf279Mb6QCI9E96aCmS5Wd376YX8lzbr+vdVxmTQHdh5NnzaiFiFIh+gNk03AnLnL5j7735ExXojglQwaP2Tm+/ywOM+nAgAngXAYRsPzVxCEbNQ4/Gptj/a5uh++tdTXypauEKb+ZpmZ6y91bfvI7NAF6ni3j4beKexRMu22Wh2fARLYE4ZvBGY88LuMB3534Zf/Lf/+I03HLTdmkAwaHz1moWTQeK+vDQAcAxLIaAR8P93+KzImaW409G6fa7l+VfXmn5CtOqhzXeAt1682zX/IjWW0mc1joTp2L/jMlkAa94QQxA8ILCCBjIbD4fAxrpUgBx7qGbLkkefb2xx0kHdS/DyB4nIJRQLWV0J0iOO3OyHPcV4IQfwAJgASyHQEfH9IoEAabhKKkJmPcKuvr9UfGsSJyYCk+J7wMS7rgmEcCyGIH8AcQAKZjt+cYJKhybXVren+uVhvRJJz1xvHLJwSqOszFhaZgD2wF0KKsCAQP4B5gAQyHb/9AspGjPpl379bIyIzU1LDO9v8c1GEEOIJ2sPCT126YMIJCAftDSs2Ah1AC+GlU7uHDE8G8QOYBkgg0/HbdmB0ajpCqK1bc/DcmUixZFj84CEymaSjdcAT3UQk0UikTe2t1683mnAcIcSXhAmk4b66HGthrxVoz6jJXq6mDQBeASSQBfhnO1A2PDVicGL3rSaEkMZoqG5soANg5BGRg6JjIsVhMWIxQkjU6ZYoiiQmiZSgyHajsaNL3aHp6jIaegy5b/ojnr2CIISNG4EAwCJAAlmA31xh87Z9f+TPLyorf6Go3xS3rVvT1q3pPThe1nfxM3vMZlOnoafU9YbL449++vlxi/7o0mpDgeAwAQGAsYAEsgABn8vhIIryx7Vm/n2LxdB9+sO/qarPGDsc7Qgq1Z0eXouLYdKExOF5j439r6UunYj5pW6c53i+Tj4PTEAA8CEggSyAw+EI+ZjJQvjncgJJRPaf36EfX97zZUv1Gd2tJkOHyqLXeajDHC6XLwmLGJocnZw6+IEHB2fluDcPD2PH59bDdXK5HAEP89ZiAADoDTt+SgARn+s3CbRnZOGzIwvv6Xl75cAe3KhHCDWfPDLg6eJoeezIsQihsLiEoVPzvLWquvrL8thYHA/AG+I8PB527VqjJzOIBRjsAwKATwEJZAcCPsbl4iTpF2eoQ1LmFNIPekijP1F3dvL5/OjoGIvZHKg1OEYkEt282WzoFfLj2iQC5vp7X3jhhc7Ozj179gR6IQDgESCB7IDDQSI+ZjDjgV4IIxCKRMrbt9ta28VioUDgqB9FQDAYDGazmSTJSFmU25PwMA6PqVueSqXy2LFjCKGysrIZM2YEejkA4D4ggaxBJOAaGGrz+Jvk5BG/XjiP4xattu9eTgGGgxCFEEIpSaluzyESMHcXcM+ePdOnT58wYcLmzZttElhWVnbx4sXIyMgtW7akpaVt3bq1rKxs8+bNCKF//OMfqampCCGdTvfXv/61oqJCLpfn5eUtW7aMPvHkyZO2ySMjI23HN2/e3NbW9vTTT9NHEELr16+fNWvWxx9/XFdXN2fOnDfffNO/Lx0INhh6mwn0hs/jMrxpjt94+Y8rhCJxoFfRPxSFEIqMinrpjyvcnkPMYAncuXPnggULCgsLa2pqbAdPnjz5xz/+saysbNOmTQih1NTUzZs3L1++PDk5OT8/nx5z+/ZtmUy2adOm5cuX79y5s7i4uMfM27Zt02g0CKGysrKlS5cuXrx406ZNO3fuXL16tW3AihUrJkyY8OKLL27btm379u3+eMFA8MKh/BNrD3gDvQnXGcEXihBCBoPuvXfWK5W3hEKhutPT9AwvIhKL+Tz+iNS05Stfd3sSIR+LkvK9uCovUl9fn5+fX19fjxDKycl58cUXFyxYgBBav379gQMHjh8/jhCqrKwsKiqixyCEUlNT9+/fTxuC9AxarXbnzp0VFRX0eJrVq1dfvXqV3l8sLCy0mYlKpTI3N5eeLTU1dceOHZmZmfR4mUwGhiDgCeAIZRNiAaY34XDTghCSSKRr3lof6FX4CjGDA2FKSkoUCsX69esRQnK5fMuWLbQEOkar1SKEKisrV6xYQZ/YY0Bpaam9Ira1tU2Zcqdmenx8PEKovr7eJqI0MpnM0xcDhDzM/aYBveFyORIh3LUEOXyMK2SwF3Tfvn02cbr//vtVKpVSqXTy3BUrVjz99NPHjx/fs2fP/fffbzteX1+/atUq2oNqg1ZNGz30DwC8AvyesgyRgKs3BXoRgC9hci5EWVkZQmjjxo22I2fPnv3ss8+c9EaqVKrIyEj6cWPjb0mTzz///CuvvEK7N2nmzJmzfft2OtamuLh4zJgxXlg9APSCuV82oE94GJfJsYKAh3C5HDGDDf3t27cvXrzY/khhYeGBAwfox73dmz1Yu3bt22+/nZOTk5qaWldXR49fv369SqX68MMPU1NTU1NTCwsLEUJvvvlmZ2dnTk5OTk7Ozp07//GPf/jk9QAhD4TDsA+cIDu6GZkMAHhMuJgnETFXAr1CZWWlvcHnAKVSqdVqwQUK+A6QQFai0VsDUi8N8ClcLic2QghF0QDAb4AjlJWEicAXGoSECaEoKAD4FZBAVgI7gsEHw3cBASAoAQlkKxIhSGBQASYgAPgfkEC2wudxIUcwaOBjXFaYgDqdzlbzxRMqKys9nwQAPIcF37ogQ6lUfvbZZ1OnTvW8xL5UjJmshNc7KO36ZkdtzYXr1xvHjc+clDVlavZ02/GT5ce6ujpzpj/43Asv9Xnuh++/Y3ucX/C75OQRrl79w/ffqT5f+a8vvnZmsF6va2lRunGV/vhs6ydPFi0IC5Pa5v9mx/bnXnjps62fdHd39xgcERHR+yBCaFLWlHETJm7d8pHtT9t72AOVqmXnv7+oPl85MnVEUtLwwsJCuhIKE7BVqVapVGPGjFm+fPmMGTM2b95sq4LmNvbl04qLi3fu3Gl7Si6Xe96Aaf369cuXL5dKpR7OA4QCYAX6m/fff3/btm10BX0P4XA4Um8H0L+6/OUvt22NjJKNG5+p6VKvWrnswvkqhNCF81Xf7987NmPco/mPHz/2c8Gjffe//XrHl/QDTZf62acL7RXReTra250cuXXLR6/+qW8xdo+9e/5ztaHB9ufVhoa9e/5jP+DrHV9Wn+/Dgvl6x5eaLrX9iba3YsP6v/b5dl292vC7/Ic1Xer7778/Jib68OHDTz75pHdehseUlpYuXbo0Ly/vm2++2b9/f2Fh4dKlS31xIY1GM2XKlE13+ctf/uL5nNu2baurq/N8HiAUACvQ3+zbt+/TTz9dunSpUqm03fLTmVLbt29vamp67rnn4uPj6Q4y9sZifX39jz/+qNFo7A/W1pzvNlhx/I4hmDF+Av3gZPmxM6crBg8ZOv/JItulL5yvyhg/gTZonv6vhQpFXI+1qVQtFb+U/1j2i80MWvv2320z2yyz1NSRLy1Z2N8LfOXV1+gHkVGyIz8dov+8erUhLi7eNu3Vqw020+3q1Yb9+/538JChObkP9l4SvWb7kRERETYblFYdWqRtw+zZ9c2OWzeb7e0w20ounK9KHjHCtiTH2K545KdD48Zn2l6jja93fPl44ZO2NVw4XyWXD6KHvfDiHx6e8YD9C6Ep/vD92XPy3/rbP2LCBVwuByFkX2msvr5+165dts5BCCGdTnf79u3U1NTKysrw8HB0b82w+vr6hIQE2vQZ8NwBM+1WrVq1du1auvhnfHx8ampqn4VA6dLYaWlpr732Gj0n3TLJvreRrXCMzay01VejkclkPdIEi4uLR48ejRCyfQWUSuWaNWvq6uqmTJliq01TXFw8dOjQmpoaeg1bt26lDyKEdu7ceejQIa/4WoDgBqxAv0LXl5oxY8aYMWPsHT5FRUWpqallZWWNjY25ubmFhYWbN29Wq9VLly4tLS2lx7zxxhtVVVUIoc2bN+fk5NAH//u//3vNn1eveXPVmjdXvbRkoUrVghB6e+2fN6z/K0LoZPkxm/1x4XzVIzOnFjya9+uF6urzlb/Lf7j38mgFKj9W5vhVbPvXp1MeyB7wxd64fm3mQ7Pox6/+6SWbY/DC+Sqb6fb22j/Tj0+WH+u9pIJH87b969MeI5ubbkydNBYhdPVqw8ED+9vaWte8uWrT+31UDyl4NO9k+TGE0Ib1f311+cu2lTzzfwoKHs1b8+Yq25J8SliYVC4f1Pt4VFTU9euNYSKM1j90tx40Qmj16tXPP/88Quj69es2udq8eXN+fn5OTs6KFSveeOONkpKSF154wTZbfn7+7du3nTzX8YLpjboBi18XFhY2NjZu2rRpwoQJ+fn5tH6fPHnS3rG5bds2+gHd/KiwsLBHIVCEkFqtrryLTqdDCO3cuXPp0qW0p4R2Nefm5k6YMGHTpk1qtdr24d+5c+eqVavUavXq1avr6urs3w0AcBKwAv2Krb5UYWHhli1bbDfLCKF333133rx5CKGcnJzk5GTbrW5paSl93F4yU1NT6cL59EGdEX9oZu6SF5cpFHEqVcvBA/ttltzvFz712dZPaCMmKTnlq//so49PnTS2t12CEHqq6Nm/rv3zX9f+WS4fNPOhWT2MxQ/ff+frHV/K5YP2fX+4v9dI6xPNrDlzHbwb9FL/d/+P9CVo/bZR8Gheckrq+5s/to20vaiuri76RT1V9OyRnw71uZhd3+xACNGn03aYzfS0TdsnPQzcPtXLJT7b+klbW2vvt/rFZa+8+PsF48emKxSKtLS0GTNm0KqjVCr37dt37tw52qRTq9XFxcW2j8o333xDKyXdQog+uH379jFjxqSmpjp5rufU19fX1NTQ+3mZmZlVVVWOK4Vu3rx58eLFNlndt2+f7al9+/ZVVFTQj23dcQsKCuytvTFjxtDHt27dStuytOG4ePFi+qIRERFr1qxBCC1btuzDDz98+umnnSxAA4Q4IIF+5dixY/PmzausrBwyZIhKpbLv/zJ48GDbMFsXGJlMZvt1KC0t3bhxo0qlUigUDQ0N9nX0V/zppZQRqbTOqZRKuXyQzb83bnzmrxeqbSNtx/v7ZX/l1ddeefU12o965KdDX+/40iZRtmc/2/pJwaN5/angyTO/3nlQfmzVymXh4RH9BYMcP/qzXD7INrm91hY8mhcTG2sTKpVSiRD608vP0392tLffN2x4n3PauHWz2WaD0nZYVeVZWgIdn/tJyRf2/sw1b65yfKH+OFVxkr4bkMsHfVLyRe8BcXFxx48fa7x65ccff6yqqnr77berq6s3btxIG3MLF95R4ra2tqSkJPqxQqGwaVh8fPyYMWO2b9++YMGCPXv20KU1nTzXc7RarUKhsP2ZlJR09uxZB+Pb2tpmzZrV51M2GbPHvhGSRqOxbyuhUCgqKip6KBztGQYAVwEJ9B90h2v7KvslJSX2fzqA7ibz6aef0nsb9ns527dvr6urO/LzUbXO4q1qd1Ozp0/Nnv7Kq68VPJq3899f9Nj6eu6Fl0q2FPdpRPaYRC4fdOZ0RX8S2B+nKk4+s2Dx1Sv3BN/L5YOcDBNlCJOnTHVgKyOEpCIeD+PStaERQqWlpatWraI/DwqFwpnASNqXkJeXV1NTYxvv5LkOoNWlrKzMpY205ORkxwN6ND9yCbVabf8nvVMIAJ4De4H+Y8+ePa+88srxu3z66af27iDH/PjjjwqFgv5JovdLaCorK99+++1vvvmGz+PS0aGK+Pi2tla9/s6Y6vOVzivQ1asNhw7stz/S1tY6eMhQhJBtQnQ3/EQxkEmh1+tsp8fExtoCJivPnqIf5OQ+2NbWavN/Xr16JxRz8pSp72/+OPP+LNtGJv2i6OvaJkcI0ZP3yeAhQ4/8dMh+JTm5DzpesD8RCbBN779j/1/Z3NxM21UJCQkqlco+c85+mD0LFixQqVRr1qwpKCigjzh/rmMKCgrWrFljSwFUKpW0lWkjMzPTdiGdTnfgwIG5c+cihBITE1UqFT2GjkyhSUtLo28BEUI2x4aTTJ06dd++ffQLqaysVKlUjrVZoVDcunXLpUsAIQtYgf6jpqbG/keB/ho7ea9dWFj44YcfFhYWRkdH19XVNdwN3C8qKkII2YLpN/3PliGJSbPn5D/zfwpmPjSr+nxlR3u7fVDogNAbgXS0S8Uv5VMeyKZP37rlo693fGk7PntOfu/oTRqbbrW1tc6ek0+fTm8xVp49bT9SoYibPSf/d/kPz56Tf/164+VLtTYnKkJo7dt/f3X5y7THVaGIe3X1my8tWTjlgeyoqKiDB/YveXHZcy+8lJP74Psb17+6/OWurs4eNuL8J4u+3Lb19wufGjc+88hPhxws2P9gXE6EhNfY2Dhx4kSFQjFlypSKigqVSrVjxw6EUHx8/Nq1a4uKiqZPny6Tyfbt2/fKK6/YbxvbU1BQsG/fvqNHj9J/unSuAzZu3Lh69er8/HyEkEKhUKlUth5Jto5I9IXoZwsKCuiP8YIFC7Zs2ULbtdOn/3bvtXXrVrpHEkJowOZ/PZouzZgxo6CggH6vVCrV2rVr+xxm+/PFF1+k7ek5c+Y42cgQCFmgU4T/sN/5sx2hA9nt28fYR7fbYtkRQkqlcs+ePZGRkQsWLLCN71FlY+LEiR3dFoKk6PyBHknZPRIM+ssov3C+ijbUpj+YZz/m6tWGYz8f7n28x7m2xz3cpPT+Ip0v3yMpoqrybELCYHqpPbLd7VMXVKqW40d/1nZr7BegUrXQO4V9emXtLxDM5RMAAAPGSURBVGq7nH16Rg96vy09jvR3em+3cH/vMIeDZFIBn8dFCCmVyrq6uh7ZLzRKpfLw4cMajebhhx+mPwD2HwZ7evcecv7cAamvrw8PD3ewidhn56P+2iE53ybJ+WsBgCeABAYbVpz04qYg4HVCoSMgALAF2AsMNmybggADEQkw0D8AYA4ggUGIRMQTQx8J5sHHuBES0D8AYBAggcFJuJgv5IMKMgiMy4mU8jnQDwkAmARIYHDC4aDIMD4fg/9fRsDlcKKkAowL+gcAzAJ+IoMWDgfJwvk8DH52Awz8RwAAYwEJDGY4YHwEGtoc54E5DgCMBL6ZQQ7G5URJ+VzYggoQsCkLAEwGJDD44WFcWTioYACIkPAhNBcAmAykxocKOEF26awECf/d/oDDQRESvkgA+gcAjAYkMIQgSKpLZ8EJ+B/3LVwOJyKMB/5PAGA+IIGhBUVRap3VipOBXkjQwuVyZFKIfwEAdgASGHJQFNLorWYrEeiFBCEYlyMLhxBcAGANIIEhSrfBajSDCnoTPsaVhUP9FwBgEyCBoYvehOuMeKBXESSIhVi4mA/yBwDsAiQwpLHiZJfeSkKYqAdwOChcDMkPAMBKQAJDHYqiNHoctgbdg4dxIsMEUPwMAFgKSCCAEDhF3QKcnwDAdkACgTuAU9R5wPkJAMEBSCDwGxRF6YyEwQzmoCMEfG64GDo/AEAwABII9MSKk1oDbiUgfb4nXC5HKuKB8QcAQQNIINA3BhOuNxEkfDzuEibihYkwSPsDgGACJBDoF5KkdCYcMuj5PG6EhAc1zwAg+AAJBAbAgpO6UPWLcrmcMBEmEfICvRAAAHwCSCDgFGYrYTATFmuoCCHG5YSJeCIBBo5PAAhiQAIBF7DgpMFEBHcePQ/jSIQQ8wIAIQFIIOAyOEHqTYTJEmxCyMe4YSJMCH1uASBkAAkE3AQnKKOZMFkJtmfTczhIyMdEAi40uQWAUAMkEPAUs4UwWUk2GoV8HlcswEQCLqQ6AEBoAhIIeAeKoowWwmQhmd+SHuNyRAJMLMSgty0AhDgggYCXwQnKbCWsOGXBCUZ9uPg8roDHFfC5Ah5k+AEAgBBIIOBTrDhpwckAyiEte3weR8CD9AYAAHoCEgj4CVoOSRLhJGnFfVV5jc/jYlwOxuWA7AEAMCAggUBgoCjKSlA4QZIkokvP4ATlfHAph4P4PC5CiMflcrm/KZ8PVwwAQNABEggwFIKkCDtF5HIQVOkEAMC7gAQCAAAAIQrcVgMAAAAhCkggAAAAEKKABAIAAAAhyv8PTfqEOUKPngIAAAAASUVORK5CYII=;" vertex="1" parent="1">
                    <mxGeometry x="20" y="430" width="358.62" height="300" as="geometry"/>
                </mxCell>
                <mxCell id="17" value="" style="shape=image;imageAspect=0;aspect=fixed;verticalLabelPosition=bottom;verticalAlign=top;labelBackgroundColor=#ede8e8;fontColor=#FFFFFF;image=data:image/png,iVBORw0KGgoAAAANSUhEUgAAAggAAAEqCAYAAABwcKjDAAAAAXNSR0IArs4c6QAAIABJREFUeF7sXQd4XMW5PbvqxZKsYtmyLffeKwZ3Y2OagUAIJJAX8njkkQTSEyA9jwRCQkhCCoSShFBCbwFjGzfce7flKlmWZEuW1Xvbfd8Z8cujq5W0u7oryfZcf/tpvTt37syZ2fnP/G0cbrfbDXMZBAwCBgGDgEHAIGAQ0BBwGIJg5oNBwCBgEDAIGAQMAlYEDEEwc8IgYBAwCBgEDAIGgRYIGIJgJoVBwCBgEDAIGAQMAoYgmDlgEDAIGAQMAgYBg0D7CBgNQvsYmRIGAYOAQcAgYBC45BAwBOGSG3LTYYOAQcAgYBAwCLSPgCEI7WNkShgEDAIGAYOAQeCSQ8AQhEtuyE2HDQIGAYOAQcAg0D4ChiC0j5EpYRAwCBgEDAIGgUsOAUMQLrkhNx02CBgEDAIGAYNA+wgYgtA+RqaEQcAgYBAwCBgELjkEDEG45IbcdNggYBAwCBgEDALtI2AIQvsYmRIGAYOAQcAgYBC45BAwBOGSG3LTYYOAQcAgYBAwCLSPgCEI7WNkShgEDAIGAYOAQeCSQ8AQhEtuyE2HDQIGAYOAQcAg0D4ChiC0j5EpYRAwCBgEDAIGgUsOAUMQLrkhNx02CBgEDAIGAYNA+wgYgtA+RqaEQcAgYBAwCBgELjkEDEG45IbcdNggYBAwCBgEDALtI2AIQvsYmRIGAYOAQcAgYBC45BAwBOGSG3LTYYOAQcAgYBAwCLSPwCVDEF566aX20TAlDAIGAYOAQeCCRiAmJgY33HDDBd2H7tL4S4oghPTsg5CEvt0Fe1vaEXz2KM6dO4fU1FSkpKTA6XTaUu+lVInb7VbddTgckPculwsnT55Efn4+evXqhfLyclRWVqr3PXv2RHBwMIKCgtSL74k77+dVV1eHiooKlJWVIScnR5WJ7zcYNREJlxKstve1r6MEJ06cQH19PQYPHozExETbn9FehfpcOXPmDDIzM9GnTx/1+5M51F4d5vvAIbBjxw4YgmAfvpcUQYgYMBaRgybah14X1hQEF5ILD2DXzp1qgZoxYwZiY2NVi7iIUViJwOrCZnb7R8uCz78U8iQGvPg+KysLa9euRW1tLUJDQzF8+HCMGjVKLUCeLv1e1keicODAARw6dAghISEYM2kqsiIGk4l0e1y6WwPDXdWo3L8KZ8+eVWMwceJEhakQ4s6e6xzrwsJCfPTRRxgwYADmzJnT3SC7JNtDTbEhCPYNvSEI9mHZqTUFVxQge9P76scwf/58xMXFKWLABVOEntEmtD8kOkEQISMEi0Jg/fr1KCoqwuTJk5WGhtoCT5fcy90tNQZ6Hdz17tq1CzU1NRgzZgzykycDDqPpseIY7K6HEy7UOkKbfeVw1SPoyBql0Rk9ejSmTJmCsLAwNDQ0KKw7kxxwfHlxHugEYebMmUaD0P7PLeAlDEGwF2JDEOzFs1Nqi6guQM7WZWq3O3fuXPTr16+JGPAzXd3dKQ26gB+iEwQR6uwOhQ6xpKmAO1VqEETwS3d1k4ROLnRthJQpKCjAxo0blcli2PARqBpidpxNOMKNQZXHkZl5EqUlJRg0birORg1smlWhR9cgI/2E0hyQqIWHh6ux0bVknUUSdBMDx3Tp0qXo37+/+h3KvLmAfw4XfNMNQbB3CA1BsBfPgNeWXHgQhw/sVQvkrFmzlO1TNAWyeJmFyr9h0PHTSQDf6+RBFxKeniRlrb4N9GPYtm2bslvThl41dJ5/Db1I7opxVcCZs0/hQf+OyMhIpRXgLn3IhMtQljgSUae24OThXRjWqwrDhg1TZM3bK6rvFQgOazS7BeIqLi5WBCEpKQmLFi0KxCNMnT4iYAiCj4C1U9wQBHvxDFhtCbVnUZh+AKdPnVS+BhMmTFBCxpgRAga57RWTMFRVVWHTpk04deoUho+bjLI+F4dPjD9gxZ7ahMOHDysB27t3b6UJI0HYs2eP8jWgb01eXh4GJrmRUvaiz49IvepphMcP9/m+tm7QiaKYGNj2K6+80tbnmMr8Q8AQBP9wa+0uQxDsxdP22kLcdUDxaeQf2ITq6mq1ixo5cmSXeHDb3rlLqEIKFlGLl5aWYt26dSgpKcHEGbOQHTHoEkKisavxFadwfMd6JCQkKE1YVFSU+pymAqrut27dCkYJUH0/eUQ8Cjf/wGeMAkEQ9EbQt2TDhg3K9DFt2rSm9vvcUHODbQgYgmAblI3z2e1Jr2rvM7pFbZw4F0wUg9uNYFctepceVY5ZDGPkAjpu3DgMGTKkSc0qtu5uAbBpRJsIcKy4OyZJoJqcO+PVq1crZ7vYKdeiLjjikkEwFPVwpa1Bbm6u2nlTU2A14dAck56ejkGDBiG0/jSyPv66z/gEkiCwvWvWrFEkZt68ecqBVQiOzw01N9iGgCEItkFpCIK9UNpTW5irBmE5u5GZka40BhQgXCRJDkgSJBSPwoae1J3lnGVP7y7tWoQkiFnoyJEjagdKARk1fiGqneGXBECJhYewb/tmZSaj0yF9Dkia9L2KaFuIVcXZgzi95hvNsQnugQrn+ZwmYUF1CK460axMIAkCCcx7772nzH1XXXVVE2k3v8euncKGINiLv9Eg2IunH7W5MdB1FlQ7F2YdV7ZXLjJMxkMfAwqPHj16KDJAUqAvQCZawQ+4u+gWCj95cQw5diSADH88ePCgIoBF/WZ0Ues677EOVwMqtr+rsODOmyYGwUUP0ZXoD875uuKjyF51f7NGusP74FjpgKbPkuOCEFu5MeAEQUjM6dOnsWrVKmXuo3nBaPM6bw619SRDEOwdB0MQ7MXTq9p6uMrRUFaIyMo8FfZGmytj5EkE6LBFjQEdn6g90J0QZVfFh4hK1uxYvIK82xTSwyo5ttyJ0h9BZcOcsRhVkcndpq12NiSlPh09jz2htAV07mOoIud74/xlJkvPyaOSL3sArrryJhNDrTsK2XlFqA9NwfVfe72piUd3vod9Hz+OEGct+vTqibjwOqRe9ZTfToo6adFxkPGj/8HmzZsxadIkldvCEAQ7Z4v/dRmC4D92nu40BMFePFutLcjdgOCqIoSePaxIAZPvcHGkipIpY6kxYBpf7qj0RDuGAHTSAAX4MdaQR31c09LSVEKmATOuhiu+MWXvxXb1rj6AqB0WM4EXnUxd/Azqaqux++2v41RhMEJiBiIyuBr9B47ExGt+0lRDXflpVBSexJEDW5B3Ng95GVtx3X/9BilDpnvxlJZFJCsmv7HmXOBnx44dUyGrJAhjx471WMavB5ubOoSAIQgdgq/FzYYg2Itni9qC3Q0YWJ2O48ePq10i0++SCNB0EB8fr17nd1KNt+vaAU+LU4CbbKoPAAJtEQSG+tEXgQShPq5fAJ7e9VV2hCCUVwOnT2xDv4QgFOz/B9yuWoTFDUW/+b9t6ljFmW3I3fKo+n9wRCJSZj+syjicQX51XjQI1t+j/J9mIYZjMsU5TYGStMkQer/gtu0mQxBsg1JVZAiCvXi2qK1nRRbSd65X8e+MQKDNkloDmg/0THDiXyB2WN2rWw2Uyd8f4JHqvOqtHvvirDjw8mtQF3txHSYmqCZX7Uf0zm/6DDI1CHA14BR9EFyNaY4bLwegC38euOVuaFZ/R5wUdYdJPY22/D4/+eQTZGdn45prrlEaQBJ5av7M1bUIGIJgL/6GINiLZ4vaogpPIGP3BpU/fsSIEU2RBxIXL4uKqDQ9EQFDDgI8SF1YPeeBaBAGXXHtRUsQ4kt3oee+7zVHOigKVc5PT2R0uxEa1ICgmpzmQn7xM3C76jo1zFGiTegYzN+l1b+AJkKGqPIcFDpa0p9CSLz5rXbhjwmAIQj24m8Igr14tqgtouAYTu3drE57k7TIVnUzb9IJgnhwy1+TLbFjg+R2u1B1dh/czXag7dcZGjsAIZFJ7Rf0okRbJgaqq5ld8WImCH3OrUXk4f9rhpQjaiDCR9/XJFzri9NQl/4y3PVVTeWoQehsgsCHWwm8fMa/u3fvBo8VXrhwoTrJkWWF6BuC4MWPIYBFDEGwF1xDEOzFs0VtkYXHkblnE6ZPn66OC9ZDufRFx3qSoC5QzKLTsUGigEl/73NoqCnxqaLkad9F7JDrfLrHm8JiYpAxFoIwZNb1qI1pTLhzsV19Tr6FiOy/oqLWicIyF87kV8AV2R//9f3Xmw7G2rbqn/jk/T8gPjYCKb1ikBhZh7E3Pg2n092pGgSSdTkpkuctMC02o4yoUWAUBpOXscz111+vcpPov0/zW+3amWsIgr34G4JgL54taosqSsepvZuUMxPDF3npZ9jrtk6r34G+izELj/8D1Z0Igq4pEgdUmhh40uPgmdddtAQhePcLOL7pL3A5ozFi3EzMuPLzQH05ovs0Rhlwrlec2YHK3K2I6DUJWdmnsWnVy1h06w+RFN8DGSu+5fMEGLz4T4hI8P0sBvnd6edm6Fo8agsY2jhx4kT1W5bkZfpv2+fGmhtsQcAQBFtgbKrEEAR78fRAEE7g5O6NuOKKK5STIi8REvrCIipKLk7cpcjCY/IddHyAugtBEM94kj05lpu927dvnzp7YOjsJajp0afjHe5mNfSuP4vDa15BfOhZDA4/0GhCcDcgPGE0Uhf9uam1ZVnrcWbjzxr/73AiJLov+i14Avl5OXjxd3f43Ksvff9V9E4d4/N9vIFJrDgmjD4iEWCkAn+XkuSKmgNmf7Q6Jxoi7xfctt1kCIJtUDb+DM1ZDPYCaq2NPggZuzZg6NChGD9+vDrSlqpKby+TgMVbpFov1xpBqAlJhevTBD1OuBBWl9WsErtNDLIzJfmjClsyYe7fvx9btmzBkNnXo7bHxWdiiMg/grO738bEyI+b4etwhiAoIqHpM3d9NRpqipuVoQ9CcHQqykvO+jwRouN6ITg41Of7eANDkleuXImIiAgsWLBA/W7FPCjaBF0bZIi8XzDbfpMhCPZCagiCvXi2qC2p+gxyDm5TyZGio6OVFiE5OVllSgwNbb546QLE+CDYNzCeCIIbDhwqHorq2sbQuajwEIyMORowgiDaA90HhTtSao6Ybnnv3r3KxFAd3du+jneTmiKOr0VB5jaMC1vmc4tIEMJ7DvX5vo7ewAyXTF7FvCWLFy9uOitCdyCW93yWEHmjQego8h273xCEjuFnvdsQBHvx9FhbREMFXHknUH0uW53iRw1Cv3790LdvX5UkiTkRGCpFlaXsTmR3qauiO6GpF+UjdIJQ0xCMotIq1DiTMOuO5xARHa/6XHz2BDa98j8IC6pFRFgwEmIj0XvqfbY6KepJryR8rrKyEsuXL1fjnjL1ShQ5Yy+qMRiBXGxauxIpMVXoV/lvn/vWVQShtrZWZUo8evSoOlCKDsbUJvCSsSO5Ey2CEAQTceTzENt6gyEItsJpTAz2wtlebW6kVp9ETmYGTmedUmpmqi6pSSBpIFHgIkSyEBcXpzQNjLXWFx1ds9De0y7076sLj6E0Y7lv3XA6kTjuy3Bqxye7Gupw6I2bcSC9BIWVIeiV3A8zr7wNySMWwhnUqMVx1degvroAJw5swN6tHyA/NxNX3vBVjL78dt+e30Zp3elUEmMxZS+T7lAI5feeatuzukVFbjeic3bieNp+XDY2CcEnnvC5WV1FECj4mQiJ4afUJvA459GjR6N///4tIpHYKUMMfB7agNxgCIK9sBoNgr14elWbw+1CvLsckaWn1JkM3EXSKYonOjKcSs5iIEngzoUvahd0lealoMosO7UGZzY97BWmUoh27cE3vo6gsPM78Yb6Omxe/jeMHNIPxYdegKuuQh0QNPjGNxAcHqduras8i4z3bwccQXA4gxEUlQL6IEQljfbp+a0V1h0UZRw57jwRkOOecsUNqAmNseVZ3aUSh6sepVveViR4xrheKNz8oM9N6yqCIONVUVGBQ4cO4cCBA4rI04+IEQyiPZBsqMYHweehDcgNhiDYC6shCPbi6UdtbvRw1CobJneVfHH3Elt4FBkZGYo8MDUzPam5i5EUzfIgluclC5XuONWRXY01sY/8X/7qdQeKrNhFEJggKXPZPagtzWw2PsGRyXA4nOozt7sB9ZXNHeHsdFIUgSOChPhxfEkQRo0ahfIBl8OFxrZcLFdSWTr2bV6rjrIeNjAZu9e/7HPK8Knz70J0XOf7ZeiEjr4iubm5KtqEJkJqEiZMmKA0fWI20sf1Yhm/C7EfhiDYO2qGINiLp6219awvgvvMYWRlZSk158CBA5WTI09+pOmBlxAE3TOei5W/eeE9pXyWxZLP4/c0h4i6nOTA32e1B5Z9BKF7JEoidiJQGGPPY56pQRo68xoUBjf6QlwsV5S7Cue2f6Sc/JhxkIeSXSiOt9JO+X0JGT579qw6oIkkgWGP06ZNU4TdRBp1n1lrCIK9Y2EIgr14BqS2fq58lGUfA8+g526Gvgk8IIYmCEZGkCyIZkHME2yIPxoE/ZhbWfh0pywKNmaW44mUJCoi8Px5VntgeSIIrtDeyDh7/tCevr1iEF6b3lSVJxNDd8mD0KipcKtdNKMWGL0wbOQolPe/DIyquJiusOJTSN+yQqnjKUj10w7F8TZQmqeO4qiTX4k6kTYzsyJ9RkjsbrjhBnU8u2j/JHdJR59v7vcfAUMQ/MfO052GINiLZ0BrS6nLRVnuSeScygRto1y0qOYkSaAZgrsaRkfw8vf4WX1xlM6IzZy2cnp25+TkKJMH1awSzx8ILUJLguCAM34iCoMnNOHcw50F59nVcDjcjf324IPQXQiCkC8KGR72w//3uOJzAZ0zXVG5w92A2t0foqSkRJ12SCGqkyNJY9xdCYK0VY8g0k1sPJqbCZRuueUW9btjP/TTWLsCc/PMRgQMQbB3JhiCYC+eAa/NARf1/AhHHXpXZoJqz4KCAhQWFirNAhdkf/0DrORAssRRTUztBdWr9IngYkgicuWVVyrzQqB2TkIQXAhGZr4bh07kIqn/ONz53VeacF777uPYueZfcDpcGDMsFYOSnRi85OVmTordhSCIkGFaZYbPDZ82F2U9G7NrXkxX36ID2LF9m9IeTJ06tckEJTttzpkLiRzoRIFznxqE06dP4+abb1YOmELIL6YxvFD7YgiCvSNnCIK9eHZJbdHuavQoOKxU1gyXo1OYqEZlIdYXZD3VszRY9z2QVMCMBSchoHMWHeqoqeCx1TQxUItw+eWXN50vEYgFP2PPW1j/zq8R0/dyjBg9AQ0F29FrwGT0mviVJpzLTq1FefYGVNSFoi60D/bs+AQ33vUbRPY4b9NnFMM/H70BVRW+HdY0/zPfx5jLPuPTmHrCVt99MnSOvgc0EYWNvRLVCPGp/u5eOAmlyNq+SvkekKxyzugOfyJMAzFf7MJG2ms1hbDNNLGtWbNGafCuvfZadViT7rPQnftlFz7duR5DEOwdHUMQ7MWzy2oLaahG8fYP1O7+6quvbnJi1MOvrJEIOnnQw7poSqCNldqJM2fOqMWeDpKOgVPQM8SFnH2bVIw4bcs0NQTqyj+1BxVZa4DS/agtOakeE5E0HvFjvtj0yIrsDSg+/l7T/0NjB6H/lU8iKDSq6TMe93z65H64Gs77LnjT5p5JqYiO9Xzcs+5wp9elO3Tqzmv0HcnMzFQkjkImdcbVqI5K9qYZF1SZsMxtOHnkgCKSDAkUQiDaKWu64q7snPw22AbreOqkRn4nHDeaFjiGSUlJmD9/vjLxyf1i1uvKPl3qzzYEwd4ZYAiCvXh2aW1xRcewf/Ma5RtA4S12Uf1wIGs4JBtMEwXtxTRTMAc9iQHv5eJHs0V0r/4oThiJmIrTOHd4uyrH3AzUVDATZKB2TXZFMQRiUPRdo9QvtmiJKOHnVKeTcPHExrS0NJUIq//ICShJGBmIZnVhnW6klBzBnh1blQPrrFmzlPYgUHPDjo7qBMHTuQo6aSBR5hjyqGc6B0+aNEmZ2fRD1iT7qR1tM3X4h4AhCP7h1tpdhiDYi2eX1hbiqkHh1vdRU12tbL88XprRDbyoBRB/AdnxcFdLWziTwDCMkos5F7/E5D5I6NUbQeFROOlMRjAaEFSQgZx9m5VjHeseMWJEU7KYQDgoso12EITSzJWoLjji07iExg5E3JDrWr1HV0HrfZddshAD/p/x87t371aamJS+fTF24lQcbPCslfCpkd2s8Fh3ljKdcL7NmzevyTGxOxMEQujJJERyzN8GEyPxd0Pz2s6dO5Xmh5o0mvH4O6EJjmX0Orp7f7vZtLG9OYYg2AupIQj24tnltTka6nBu/Wtq8RowYIDa6TAc0XpxAWREwpEjR5QdldqArMjBgDMYbqcTbi1pT9ixtcg8maG0BTNnzlRaBf2o6kCEONpFEHK3PuZzuuaovjPRd3brGRwl7FPPosf2iqZGhER6ejp27Nih/DiGTp2Dqp6D4HIEdfkcsbsBIbVlyN/aaN6aM2eOSkcseNj9LLvrkzwieniwEGiOG498ptaA0Qokxn369FGkwOp3wN8b84MEiizb3e+LtT5DEOwdWUMQ7MWzW9QWVlsKd8Z25SfAFM1jx45VCxsXML5IDhiRQAHG7IzhI2ejOiS6RdsH4RyO7dmK/LN5SE1Nbdo5sSAXVkmYFCjbqx0ahEAQBF31rJtxJBxUnNno7c6kOgOnzEVl3MBuMTfsbkSMuwLF+9YqDQnJIzVLgkOgiKOdfdAFvbxnu5nyfPv27YpA86h2Em2aTPQDt4RIkBTwNxWoaB47+3ux12UIgr0jbAiCvXh2q9qiCo4i7+helJWVKaJAgS5qU+6OmJWxfuB01AY1nlKnX9EFR5F1cIfaKXHRZ8ianlpWFsdA2l3PpX+CExv/5BOmPEdh0i3PICS8MdNkIAiCaBDYd6qg6ZNBr3YKEOJLjQzP1li2bJlSRfccMwvn3I3hcBfbFXniE0U0OUfo9xJo0mgnflY/EtH8UBtw8OBBlcyKJ67Sn4JzX3dctCYI052B7Wyjqcs3BAxB8A2v9kobgtAeQhf490GuOoSeOw5HVTFctdVqZ0ShxoWvuNc41FjC7CLc1QjP2aMcsmhSoFpVTrDjomhNchPIhfHEwfVY9dZjPo2AMygEd377BYRHtk4QKoMH4sy58qZ6ByUBzrpzTf9vz8QggoWkgDtMYsX3jInniyYdkgd+x7z9ZQNn+dSHC6VwdN5+pB/YpZz1aFqwJufq7hoET1E9nON00mUiK2YopT8Fx1Q3J+nRKVZTg/FB6NrZawiCvfgbgmAvngGtjc6CTMhbh8DZscOPrVFOWSQFdMZiDn1RGcvCaD2voTsvilYNgvKt6HMdSurP50mIrdwIVJyAA43ZGEkQUmb9n3ovfZf3/Mv+MxsiVdBMmBPXMx69+w1AfXUFystKVdSCZLokhnm9Jgd0XnR+5W4MqsnEto3rlDPiFVdcoUiROGmKPb8z54U1LFEX3JLtUxJ/CanVnQtlbtNUQNMcCQLNCnzJ/Xp/dDOTNUSy88fDPFEQMATB3rlgCIK9eAastkHVGThxNI0B2wgKiwRj+8NCwyAp/CMjo5CYmIBjwXQQ8y+vf3LxYezZtkk5N9KeLDHe7JQeEhawTgagYiEIdY5YHDieh5yzZZi26CuYff39TU975Yk7cCZzL8JDnbh86jgk9x2KlJk/bxEbr5MFeuwzuyTTW1cPngU3j4hmlku3W42Ny+XGSJxGdlBvlDsaY+UvlouOsAUbXlfmBJIDahA6kwx4wlGEvU4CxE9G/AN0LYAe+iukT8xlTAK2YsUKleODBEHMCbrm4GIZy4utH4Yg2DuihiDYi6fttUW5KhGSs1eFI3JnxjAyLniyqOk7Jcn8RtMAd3bO2GRE9UzEabSMYrA21FlXhdx1ryuzAtXF1BxIUpsLeWHc/Oa3cXDPZoyZ/d/o4SxEcHUG+k3+EqL7XtEEQf7eZ1FXVYzyujBUB/dG1vE9uO6LjzTzVLfuUGmjZvjiwEmzUX6ROiB6msyhDVWo3LdS+V3QNs+wP9EYCIkMpNmptR+YPj5CaPnXqv3ib4efSbQB39PsRo0Q+5Sfn6+0QtQCUfvDhE9yCeGw/UduKrQNAUMQbINSVWQIgr142lpbj8pcFKRtVYmMmJqXuxkKflnk6EvARYt/6RTHRY5lmdOA/+eLTnM0F7iThsAdnYgqR2NeBF7xdQUqZ0J0VZ5KnczFkeSAiz4XXO4Q9Tz0Xb1L9Afc9N1vI6ohC2WZK+Gqq1BV9Bx5G6L6TG+q7tzeZ1FdeLjx/w4n4obfjF6TvtYU324NZyQ2TCi1cuVKtXuuGDzHn6ZdkPdEZ6xXPhcUntxhi5+BTgqsnv6B7qiYNoQQWB0I9Xkr37EsfzccR5JvmhX4fyayouaM/gfUpKkMog5HE9EIVMROoDG6VOo3BMHekTYEwV48battsCsXuzauUUJq1KhR6sXFSw+nstpBZSEkMeBuiC86XGVlZan76JjIcEexoTOJD8kEd1PUHDCxErMw6ofp6KaFC5EgdCSKQXalngaVGL777ruKRIVNvcm2ce/OFYXmpSFr/1YVGkvnPT3xlswNq6alM/qj+z5Y/WMYwUMSQOGvz2X+HkiomeOAJJskmumTSQxIwvlb08NWdWLR3Z0vOwPz7voMQxDsHRlDEOzF057a3G44D61QMfS08TIcUTclyE5JPtOTFumLGstxISRJ4AFLtJmTPLAMTRUkCwzDYxIYOpnRrMDLenSt9dAaezrZObX4SxDopKgLFF19zhBRChbmkqCQnDr/Ghyvj+ucDnXRU1JqcnBgy1q1u77qqquUZ78ISplzuq2en3WmIJWER/Jb4F+SAyaqotOtLuB1CEl2GKJJgkBtGy/5XQnZsfbjQiTKXTRtOv2xhiDYC7khCPbiaUttyYUHsGvbliYnKf1kRk8e0/ruTV/ghEjwey6gtKtSq8BFnjH7JAmSilnq4EJqNSuI45ctnevkSjpCENhU2ZGSCJAY8LCeY8eOqcOsSKz6jbsMxdH05y/wAAAgAElEQVSpndyrzn1c/+pM7N++SQlOmqCoiZI5opMofd7I3OuslloJNNMiMz0yzQck2CTDnOu6Pw3nPLUG4oyr+ytY2+8pmqWz+mae4z0ChiB4j5U3JQ1B8AalAJdJcRSjuqQQNeeyVe5+hsjR52D27NlKCOmLVVvRBJ7Ig/Wz9qIRrGaLzl7o7Ya6IwSB2hcmzeFOlGYaag0k38GwYcNQGj8MlUEtM1Da3Yeuqi/SUYeg/ONI37ddCVGan5hVUD+RUdesdOVcEXIiIYnUmPFYZvoQXHbZZYoc6JoAT78VIddWLZzV+bKrxsM8t30EDEFoHyNfShiC4AtagSjrdiPkyColgLgI80UbKMPnuFOTy6g1/QP/xIbf41zGRp9ujus7CcPmPaTIGo/2peMnbdhUqw8cNhKhvYcg39FI3C7WK7y+AsFZu5S2hGSVTonchQsJ6IyzOHzBVvc9oECneY6ZLOnYK0eSSwZM/dwF87vyBeXuX9YQBHvHyBAEe/H0vTa3G2Wb31A7HIZU0ReAJEEWLuM17Tuk+h1r3n0CR/es9KmSASNm4KrbfqxMMlRRM+yNjm701xg0YgwqYlNR4Yzyqc4LqXB4bQmqDm9U/aYnP+cl+y7qeauPSlcLWat5gf9nRM5HH32kDiHTQxU9+fJcSGNj2to2AoYg2DtDDEGwF0+fa2NSnbyVL6izDqZPn97MmUp3QvS5YnODzwjowkMP1aO3O4VlWlqa8nynMyc1PGfjx6DBGeLzc7rtDW5mSMzA3p3blTPryJEjleZAwl1F1S4q+ECew+ELRnrkhGg4qPX5+OOPlYmOERdyloLedl+eYcpeGAgYgmDvOBmCYC+ePtc2CmewavlSZSflqYuiKtXTuxotgs+w+nWDp52o7Jr5lyGhtG0fOHBA+SVwV506eBgKkyf69bzudlOvgv04sGeXIgQkqwx7pTpezt9ge/VMhSKMu7ofQhCkPfJ/mod44BL7Qk1CWw6+Xd0H83x7EDAEwR4cpRZDEOzF06faQlGH8MxtKvHM/Pnz1YJsdRI05MAnSG0rrO9K9cQ7fC9hjjyMiUSBpzfSGa4mNBYh1UXKX4E7WPqSVKdOR52zMXyuu16xqEBl5iFkHT2gdtwkq71791ZOfXTU1G32/Mx6NkFXmxiIK9vJMdNPk2SkCY/cZqZE/r569erVYgi6Q9u767y4ENtlCIK9o2YIgr14+lRbr7ydKpaeMdiXX365SlbERc7qkd2Z8eQ+deAiLuzJVq2bHSgkqVFgZAPzS/A9x0mSB1HwMOKBQil+5HQUhyV1S7Qia4tRc3ybyqRJUsC8G0wWxEvHQA+l1UP+pFPWjIpt2fqFfLU3rz09vzUQrQ6I8hviUdTr169X5Jt908mOpFvulgNjGuUXAoYg+AVbqzcZgmAvnl7XFnz2CLL3blICRE7D8/pmU7BLEbDavEtKSlTEAwUebd0hISHK6ZTCieYIZuUbMuEy5EcP7NJ2Wx8ejWqU71+DM2fOKH8DhjEyUkPIgb67bm2nTW2JZN4U85j+HJ0E6HkGxFRh1c6ISUevQycUvu74qT0gQeBY3HDDDUhOTm4iPu0RlG41WKYxXiFgCIJXMHldyBAEr6Gyp2AQGhDK2PLdG5Wz24IFC5TmwNeFz57WmFr8QUA3A+nJgazmIX5HGzhf3J1j3DX+PC4g9wS76xGavlElfqKD7NSpU5v8DSg49YO62jJzsc+6GYJldaGvayI8zXErQWB5T8+WZ/j6O2H75HRGaurmzp2rCJwnIhIQoE2lnYqAIQj2wm0Igr14tlnbkNpMnDxxDDnZWSqckafhMcZcV113YnPMozqIgK4CF9MQ/4pjH+3hQhCGTpmN0rjBHXyifbcPqDyBzevXqsOmmJCLWo62hHlrgpmmFoluEB8A1sM5TRMLQ0UljwTxEBMMM3lSW8G/kslQ6hFNhGgO9JMXfUWA7WN9q1atUrkR2Fc5gIl1+Uo4fH2+Kd+5CBiCYC/ehiDYi6fH2pJLjiIn/YhKc8zFjgmQxo8fr5zYPHlWd0KTzCM6iIDVzCDVyXgKYVi+fLlyaky64iZUo2udFQeiADW1NagoLkTO8UOgaYTmLR4EpgtKEdS6NqA1QSo4SKSDnIFAzQTDQuWMBE9ws06SBqr96SNAsqybOOw4A0HGgac1rl69Wp27QH8fq5ajg9PB3N5NEDAEwd6BMATBXjybakt2lMFZmIWTJ46q2HkufFQzDx8+XGkPrAfDmGiFAA1EAKq1ag7kEWJjpzqc45uZmYm1a9cq+35h38sC0JK2q4x21MBRWYzoijNq98xkT3JUONtH/wGq2+l7wLwOclaBrhGQXXZrBEHPYEh7P59DvwseEMZ5zjlPUxrrZlnRODD6g46d/G3wL9vCciTONAXo54/IM/z1GeAzGSnEsEeSA57NoI9Zpw+MeWDAEDAEwV5oDUGwF0+EuOvQr+KESlHLRZIe4VTjcgHmTkkuyUYnQsUQBJsHIoDV6UJRF5y6apzvt27dqjIxDrziOtREnx/7ADatqerQ+kqEnGo8yZBzjX4uDGGk1orvKbxpAuCBRtQk8IwF7q75PXf1FNi6L0JrwplkggKemQtJiBjVQdJBIsy8HqIRYMN0U5qQEJ51QeLCdjIahCGjzFtAkiD+HR0hCOIjsXTpUpX86brrrlPP0LUknTEe5hmdg4AhCPbibAiCjXgOcBTi7LF9yvGLixAXSRIDJtTxtGOxawGUXZ6oe8VDXFTE3jpk6Yumvktm/bonuQ6ZHvImwlJP9iQe7tJGqUvqEBWwHnJmXbyljDVzXyDNM9IGaSf7JONl7bPVds52cmdMoURBnDBhPgrdjTb+wF9uOBrqUbdvmYqs4Pyj+p5zkC89HJFtYa6Affsa5yz9EJhamU6L1kPCrO0WYkDVPUkB/5IY8H4eZEUBr4+xdfw9+d0cOnQIu3fvVu0Q/xxr+KSetEnmksw7a/ilzHsSoA8//FD1n07BoikxpDzws7Gzn2AIgr2IG4JgA54Otws9Tu9G9snjajfFnRgXSR4lq3tkyyJpp2MUd3q8uOuTxdMqyLhLo6MYd4zcPTK0Um+X7okv5EKHRWLMZbHW/6/HlcuCLIJbhICVeOgx9foi39quTicnVlu5LnhsGMpmQs3abp006L4G1nBAkoP9+/crtTZt/FlxY+1sWqt1xThqEFl0Aof371WnUPIMAs5DOdLbOo4yXjQN8LAwtpnzhI6D1HaR3FDtTy0AhTZJL/0pmE2SqadZlk6IdDIkESE54JznXGxvXHQtDM0eMn+pcdm+fbv6P80TbD99E8SJ0jpX+RzeT3Iic1r8HoSc0uSxZcsWlQBq9OjRzU51tPO32CmDbB7SJgKGINg7QQxB6CCewfXVwLH1atGkepYLEBdK8THQs84FQq0piyEXOpIFLpZUpXLhpuqWql+x8cqiTJJAOyx3eVz8uRjL4ioCWycz+k5dhLWn74VcCDEQaGVR92S7t+7i2tJiSH1WgtGeMPJniK0aFLGd6xoRwUqwq6qqUoL24MGDCn8Ky4ixC1ATFFjtQWJDEcqzjyL3VLoiBhSmPMGQY6wLTU9tF+zYX7afIYF0LmT7pX+8jwKY84Rkgs/ge5rPONfpdMv3IuR5n/VZ1jHQCYKuTSDO1EaQXNFEx4skhY6UPE2SfRNtDp/BOS/zV59vfM++0ydi48aN6jdx4403qvmua9TsIgjV5cfwq/9+CPtr6/G5//kZvnD9pBbTruj4Rnzj0Q14/tkHEOq0fL33H7jpZ+81+5Bmn/t/8ksMiA33ZwoDJ5bh7n+dxPO/uNe/+y/AuwxBsHfQDEHoAJ7BdRWoPbRWqXLpiEbVLIWvpKjVbbi6GrQDj2xxqwhUqlGpJiZRoaaACy0XThIV7iCpXuXOkLtbEgeW4Y6Qiy6/48LJFwWB3MP3ugDXyYGu+tUJgCeB78lcIeVELWxV6etCX54rgsRqarATT2tdVm2ImG2k//w/SRnt70y9TKFGXIeOHI3cuNGMowtk85AcVIkzu9ao53KnnZqaqogfTQRsm8wD0R60lj1QJ3UkCnzRkZAClu+pOSA54NygTw1JAecT/2/VInkz12VMZR5I+2TcKfj5bPomMJETBTz7RwJO7Yb4Nuj5EawEnHOc5IC/zxkzZijCJOPXHoHxadDKMjB3zCgkXfNtjOpVhTdfeh4Lv/cJ/vT1yeerOZeG666ajS3585Bz8k2EB1mesPK7SHrgKO69Vs71cKF490q8lzcOm9c9h77+cMzT2/DbFbn4/l03+NSdC7mwIQj2jp4hCH7iGVRXier9K5Ww5UEw9ATnYqkfhasvgnwvi7VduxZd9U4HL2aM48IZldQXUTFxiqycjUxt0cNBjgK16FadPaUIAxdfaTf7wN0gd20UdHzPBZnCQHdU04W+mDb4GYUI66NAYVgnSQaFlh5nT2HAe7gTZZ38Ttdg6ERAd1Bj/fp3fg5ds9s8ERO9gIwb/0oMv7SJgpP4cdfNHS8JWXxKKmIHjUNxUKwdzWu7DlcDQo6vQ1bmSbXD5hz0dGqhrmWSflg1QXyQVXujz1MKYpkjQhx5j64JkDmhRyB46oBuntF380IOBHPizfppyqDpgTiTCJMAkZCnpKQ0/eb0bI5COkgweBYDTSU80VEIu7TZrlTLWbvewfefPIwX//4QQpzAvpe/hS+90gO7P3z40+5X46efuRrbY/ti26qaVgnC6DdG49Df7m4G2ewR0Xjgg3JcPwxwNdTjyK41OHmuHjGDR2DmiPN5NTIPbcahzGqMmjARp/fvwKT5CxBRlYM1R8owf/oYVWdVwRFs3J2OOmcYRk6+AoPiGjUTWz5Zh97DUpG2Nw3O+AFYMGUkQoIbVRwFpw5h28FMICYGl0+5DHHhjeaj8rz92LgnGy5XJMZMn4LUhOjAz3cvnmAIghcg+VDEEAQfwFJF3W6MDMrH3m2b1GJFT23aemUHJIuTvgjquyS7d7/yHIZw0dls7oJFOBLUz+te9XKXIKq6ABWVFaisqER9bTUqysuUiplCnvVTy0BVMhdmydPPB5AM8MWdGkkBCYHYpWnWEMFEgkABxp2nCB0KVtqaKXhIRqjFoImGpIRCzmrXlw5Jfz1pHvwhXrp627qrtT5T1PBiuqEA4oufE58hI0bhsKOv19h3pGCQu5EcUGtEgirHMlvnnSRt0oW/1URjJWeeiKCnz4SwWR0J23P+03H2hDE/E+EtGgJ+RnMZo4OYNpkaBmoESBQ4b6zCnm1geeY+4PzVz2EQgiC+Et6OQ211BUrKqhDRIwZR4aGgbqiemrqgT9UBDVU4V3gMdy++EYnffh/Pf3Gcqnr1I/PwdPXX8at5uZjxpU9aJQjDX+yPjY/f8Wlz6rH+xTvxuR9F42jVexjsqseHP5yGz//tJMKCg1FbVYb/+vly/Ol7c1C1/0/oP+UhIDYS4T2jkZRViHezczEg8wX0e2Avsj9+CuV5a9E/dREc0bFwogHFdQnYmXcEEyKCMGeIA1uyIxEbE4mq4kLc8/YR/H7JUJzZ+A/0v/I+9OwRCbjqEDfmDuxf/Rc0nN6B6AFXICExFg53A0pDR+Fw1kYMsmpFvAXWxnKGINgIJhOJufWtoL11d6vaOHEiBoxF5KCOHc3bq/Agjh7c1+QEZk0yoy++7S2UdgDE4eMiykxxFFwJc78AOKwGTu+fFIwGwN3osR/UUIfYgjS1KJMsUJDLiXgkECQFXKipCeCLhICaBi7YLEc1N9W73P3xIsGYNGmSIhn0VueL5g85iY/kgLtT5fmfkKDuF9MHy1EI6IJAFnrpnT9x8rrGR98N6+NIVTud8qjGJ8Ykhuw3NTQkPwkpA5Ad3Bt1jsbdVUevMNRjkONcIwGrrkFdXa16HtvKVw3xLi9RWiBiOmfOnCbbuhAB8X0R4a8TIWv7dC2KTiR0s4N1p9/Ild1Nib70OtozMch9rdWpt0+IoNTJNlHw08+DWjPONzofMlKDl04SWW7FihUKo5kzZzad9ij1+0Yoz+DGMaPw/qEyxPQdgsf+/iFuTDqGPyytxmM/urmxyhNPYdptz2P3ocP40XP/wS++MB9Y/wuE/bIKxR/+Gtnr/tQmQXAseqLZ0Iwf/xm89OHTGNevF84dWIpB8/+I9Mz/ICkyFFWlO7Bkwn1YeXw1Pj+4Lyb9+RN8d8l4FB5chl5Tb8PJZgThCTwxLwGZX92Mxz87DkHuOqx48h58cd0CnH73Llw5xIElf8rA969NRc4/bkO/ZVfB/do9+NqcVEx5aj/uHhML1Ffj97cvQO4dL+CepPcw+soPcKZgBRIigPzcfEQm90WUPdO/Qz8fQxA6BF+Lmw1B8BLPyPpyOLN2K2FJoUVBJ05g+sIkCxoXdxEkfE91NBdt/hVhqi+QYsumYKWdVdSrUre+Yxavb1ngKChoXqBAdY9ZbLvdO7KuFCg5jaKTh5Vmge2mwKY5gkKSAp8L9engZISGhQHBYajUsgaG1RTDfXKncuCjOYFEgztvOvGFDpsBV4MLMbXnUJHfqEIW7YMIfP4lHuIYJ0SFf6lt0P0BdMElBE3POWEVCiJI9WlAYUxCxDYyhI+aETGHSBRIbfxgOMKjUBncw8sZ1HaxxIZCVJ1JR35OpiIG0g+dBFkJjAhw+gNQ3a4nO9LnpK51kVaIQPf0nV7GKqw9kQt/BK6+L/EkqK2aIuszSE7p97Fp0yYV7cDwRf2MBf7ONm/erHxyqOGjlkUwtf5evRrA7NVYcXIArrosBRtXvIJ7P/MVHOi9GFs3voLp/c+HMbOuspz/YOaIh/DimZW4sXcqEqdfidSeESjPP4G1O87h2qsfxL/euR+NZ2Z+eq38LsTEUF9djHceuhm/3XsdPl79XdBYdXDZrzH2moeaNzVkEDaX7cFn+6bgla25mDMkGqg4iemJE/BGM4LwML4UMgB3ZZ7G/JRG09ep7S9g5ML/4EzBm1gyYgR+tfUIZicCFXseQ+Kj8ah6bTbmRY3CJ5XNH/nZh97Fyz+cjp/eOBePrT6GxCFjcNmMhfjdS3/ACK+ADGwhQxDsxdcQhDbwdMCNBFcpXEU5OHX0oFKlc8fIbG/c5eo7JVmsubBRsDBkjDtOfecmNlA+0rrb5f8phCicaLagw6Mery3N1IWdfLZt2zblIDf5irnIiWzcSQXiCnXXIry6EE6HE2HhYahwRKDc7V364DDUIbQsF4XHdqtdOPs2avoc5EWcj5dnm7l7jq4vUUQqujJPOcqJ57xEaYgApVmCwpECQk5R5JiIGUf+6poc+V4XOBwzYs/xJRmg4OHY8TMhQRTAtXH9ERQehXOuxhMPO3qFNtTAXZSFqqzGqAGOLcknSQi1KSRTfJEYUfjxJREF7AdxpMc/tTScZ9xJM/eGvpvvaBu7y/1WcwbbxflAzRmxu/rqqxVRlUyRTABFLQMjAZh4ieMohNyT5qIj/Tx9YDXeXB+E+746F0p3V3kYC0fejMeObMaHjz2OmjqXqr4wcwf++X4mvnHfL/HTRz6LKP2hGkFQfasqwKI+fTHs10vx7L0LkL3tFYxZ8hJycpYiWt+p15ZjWr8UPLjiGG6ZmIza/AMYnDoTG5sRhEfxnX69Mf6jbNw1LlE9Ne2jRzH9u/XIP/QTXDXEE0G4HV8YOwyfWZ6LW1uxmhUXn8SK99/Be8/8Dcdm/xHbHl3cERhtudcQBFtgbKrEEAQLnsH1VWiorkDv6mxlT2ciGe5quTvnzp67NAoj2XnKTofCiDtfel2THHDBVkfLRic0RQaEBIc0hRWK/VPd71CuDaisrEDusQNq18OFnjsfCgs9rEuaK1oEkhHaWSksHeOvtXd2BKi2+LzdqHcBpX1ahoK198jezgrUFechP+80qgsbCYRoNChURdMgglRIGfEWciBhcVKWRIDjTDOCRHdwvIN79sGA1AFId8e31yyfvw+vK0f98c1KQ0GyyfGjjwZf1MbIpTtp8jOrRZDfk9Bwt0yzzMKFC9sNMfS5sd3kBvZd1/iw79QgEEM6IZK88zOaHjZs2KCII00L/A3JsdS6v4VdJsCCwx9j2qybcMcvX8WsQaH498MPYH38XJx4/4/NkDu2um0TQwsnxd1PInr6i1iasxZzQvIwfsw0JH3x5/jBguE4ffhNfOuZfJQcfAvLHpyHr32cisce+S/sf/nHePiNoxYTw1M4/NJdGP+ljXj6pd8itiYL37nnQdz8znH8/vo+mOORINyDl35yO775UhFeefo7AM7igft/hjufXYslFS9h7INb8MYjX0dECPCvJx9E9dw/4K0fzO3ymWIIgr1DYAiCBc+gQyvUgsvFg7s5LrpUZdOcwL+6gxUXI1lw6GHNhCxUo1N1PnLcRJwM9303H45aIGM7ThxJUwSDu0LWJ8JB3/3IAklHtZGXL0RxdPPduL1TpfvV5oQLqZXpyiZdXVGmdvzEhOSJL3Ec5eciXKwCVv7P3Tnx7tWnH6rjB6HUGTiv7N7l6Ti+f6ciI3Syox8Ld79iRrIirftDeGo/v+dOmqamRYsWKcHom329+42ttUWiQeDn8pvjGNPHgCRx8eLFimiR6JEwU8tEssQxlXnA+6yEyy6cKop34Y6x12FDdR2mfO8RLH/wKy1APbH+WVz99U3Yv/sfLcMc1/0UV7w3Apt+J06Kjbf/7MaZ2JhyE1Y+9X3U15Tgi3eOw8drKtF3wjexfNVP0PvTp/z9wWvwg+e2Y+KtX0HhP/+Cd6hByHkN4//vIPa9+VtV6tTGX2Lhl/+AwrA++OULK3Dv5D7q8yVTZ+BHy7dgRgJQsf9JjPhjT2Q/90X13Yp/3oEvfG85gHH4y/JXcNuUxnuOLPsmFt7zMqqqgP/93Xv41ZdmdotJZAiCvcNgCIKGZ7+abOzeuFrtRLiDp3qXJEGSHuk7OFnMKZzohEdSQbsotQzlfaeiIcg71bvH4XS70SNvH47u26l2k/TApoqbz9RNFnIYENtbP3wuGtAN3IjtnZ9e1xaCeqWGcTcOktLIANr/G/973qmusSRGOxuT8Rx29248g8AmR8PWGh6XtxdH9jc6Z5L8MfqhNedKq4OezD9dayU7ahLUNWvWqHnC3bRdIXxeD0CAC+rEXEwo1J6RIFDrwtTMHD9q72hymzZtmvI7sKbwFlJvFzEIcLfbr76hCl+ZcRlGfvNVfOfO0Tjy4e8w4Qu/RvaZs0iMDGwOjvYb1/klDEGwF3NDEDQ8o3N2Im3vTqXapw+AmAFkUdHPpafKkmGFJAckBtzlJwyfjOrIJFQjxJZRii08ipMHdqi66BRJe6q0ibZyHiVM4ZIydREqwhNseaapJHAI0HyVv+kdRThnz57dpBnSNQe6toAtsarBdQ2CkEX+JVFYuXKl2k1fddVVStt1sV2iBRIHXh6GxayPV155pSL1vOhETPOCpFUWDKxkS0hGVxMFjhs3GfQn4UsigWhyokaEZjO+Wr9cyNj8Au6+8RtYk1+OhLlX4Z9Pvojrx/e62Ibfq/4YguAVTF4XMgThU6jokBiTvR0ZJ46pHylNC8zcRjUmL6pt9VAq2qvXrVunBHSf8TNRHd0HDQ77d/CJ5SeRvnerctqjKpoaCqrDmUOAjonDps9DZfxQrwfcFOw6BGLKs3Fw3VKlESIBlUt3KhShb7WV66227qb5HT+jqYnRLEyYxLwI1vwEVmFpfX5XC8u2RkZ3UmQ76URKjQkJ87XXXtuk5aPf0LJly9Tvd+7cuUq4Sr+E6HsKZ+2sWUECRx8JmkIYKcP1heYltpPaQraVpieJpBEHXfo9UaNJ3xiSoYuRANoxBoYg2IHi+ToMQbDgmVKbg9xTGSjNP6N+vFxk+UOmoxN3ZvzLa+/evUqDMHzSDBT1HG7vqFhqG+A6i1OHdimPdXrtc2fBzH1q1zR8DmrQDQKQA4rAhV8580sEH1unTFE8cpjkUxfQ/uRwkPslsoXChFolOssy7I+klpfKaREU1GRe0XfTFLzi8NqRNnTWCEl7mUODPj8kAQMHDmxGAngwE8kzo4FoaujqflHY0wTENjHign4n/gh49p0JxkgwOIZyPoXu1NpZ49Bdn2MIgr0jYwhCK3hGO2qR6izBoYYkRGWsR0Z6ugpv5O6MP06mcKXAnrbgOqS7eto7Kq3UFnd6B44fSVPaBO6QIqffbHvOg07pyCX4kMiaQmSsf1/5CDCxkdWvxVefAV2LQDjFP4VzknZ5nihK4ShpkcU0IZEc1vvtDv2ze4h18wKF7Nq1a5VT6pIlS5phyf6RML311lvKf4iOipLm2+42tVcf20GnZTpN0uShH/ve3r3efM91gGYW5k4hUdLnlDf3X4xlDEGwd1QNQfACT6erDsWb31a+Bjx+lqaGHTt2KDVgBIV0J14JldkoyjiI1GGjcTKUKZUvPUekToTbtkf1KtiP3du3Kmc6Cm9Rmet+Lb48zJPTHu+nUKLwJFGQ3bU8S88RIfcLudD/+tKOziqrmxjof8M+UpNGsqVrCIQoUShzt02HTYkC6qy28jnUGLCNU6dOVUQlUFoM4kKidOjQIUUUmPPhUr4MQbB39A1B8BLPuLJMFJzYrxLp8MdOdS4X+rKBs7yswb5isahECexJ1mNfq0xNbSFQv/s/imAyoQ/NVLrQ9jceX7QCug8D38sZBHwOBaQchsX2yU6cz/SXnHTFSOuEiP4HJAA0oVx++eVNO2fBkTh/8MEHqn80tdBu31kXCRp9I4g9oys68+LaRGJIbYU/JozObGugnmUIgr3IGoLgA54h7jqEleeiOrvxrPrhE6fjXOwwH2owRS9FBJLrz+Hg+o/UoUH0uNcvPWTRX2ysZIP/ZyZB2uip8WJyLzkESzIKSnikntI7ULtcf/tlvU+worc/nTGZwIxCmBoCOvpxp057PG399A/i7p3OoJ3VLzoXMoKCOVO6yqxBfxP6JzH/A30wOnvU1wYAACAASURBVKvvdo1xR+sxBKGjCDa/3xAEP/HsW3saVaExKETgEur42TRzWzdDIPJsGk7ub4zNl8O99IOQ2Fx/Igh0vwIR+OKpTzs9swwyDTNNYdxRcsfNvAv8K+cWeMq10M3gU83RTQxUqbNfjNpg1AI1BtTokezQx4PfUd1Oc45++mgg+8UkVRs3blS79+4glKlFYsQE23Mp+SYYgmDvLDcEwV48TW0GgRYIuPctVaFrNC9wJ08Boqfq9leg6ARBhKhubiBJoKaLQpQvJhYiMWA+DSYCEzW03CN/9bwM+mddPbTWdpIMsY/0NSC+7CPzIBBbag5IyCTFtpAwaybFjvaJbaLGgqSE2prudBEH4jF//vxuQVo6AxtDEOxF2RAEe/E0tRkEWiBQuvE1pfomQZADpPTDvfwlCK1BLfZ6PZcCPd5JEOjMRgc67qxJEijUrGFynhwg7W5jIKYJNQuMGtizZ48iDTQxMPJIzy2hp132V3Ojt33Xrl1qTLvCEdIbDIkJCQzn3qVwGYJg7ygbgmAvnqY2g0ALBMo3v6Fs0kzoYzUlBCL1r65Z0FXzkoSHuRiYAZRObcyrQUc/2u95WcMtu5MGoa2pxd2yhGrSN4FhyDStcPcsmhL9LAYZB39MO9IOpnWmeYNmje58sY0cb+Zx8TWctjv3y1PbDEGwd8QMQbAXT1ObQaAFArU731PC6oYbbmhKlW3N7tcRQeUJcj1boHwvwl5U83Tkowqa4ZB0rLPuqPVzP+xun93ThARB2s+2sl/0waCGhHZ4CkYJgdT76W+/aM6gMyCTNF0IFzVIdO6cMWPGhdBcv9toCILf0Hm80RAEe/E0tRkEWiAQnPaxWpyZQVEycformLyFVwSmpxwB8my2ibH61G4wHJL+EXKf7DT91SDQnPHmm2+CKnhe9Am45ZZblJOk3Zee00G0J3RaZLghTQ2MHKFXv1xCFPwNL6Xa/o033miRg8HuftldH4/FZtRHIMbA7rb6W58hCP4i5/k+QxDsxdPUZhBogUBc1makp6crdTdDHfUrEERBhKQ8Rw+l1H0f+PnmzZvVblsiLMRvgUSBJMFf34OnnnoK3/72t9UOno6S9KqnYMrIyGjqvpWM+Dt1dJ8JSTvNdtP2zrBDJg/iyY46DlYHT2+fzfuYg4H9uhDV9cy8eM0113RZGKa3OPtbzhAEf5EzBAERA8YictBEexE0tRkE2kGgz7k9KicBD2liFk6JEhCbud0AWn0QWL+uXuf/WYYCjt73PHSM542wbTzkiU6LPJ+hIwSB0QXcadP+T/U2DxmjbwB39Lyuv/568MAzajEY+vmrX/1KORX6cwlBEDyl/zQDUENCzQhTLstJqP6SHraNTpDcics4+tPerryH48rwUGs+DmubaBIjqevu/hXWdhuCYO/sMhoEe/E0tRkEWiDQM3uLOmBHDlASrYEIskARBSECQhA8aRb4GQUBHe7ovEiBzuPO5fhkqUNvo+7L0NYumgTh5z//udrJU91/77334pFHHlH43HnnnUpIMfPfT3/6U+UkSe0C8xf4c+lmBiFgFIY8uIkCnYSEqZl5iX+GrxoA3vfhhx8qEnUhX9QYkbAJ1szhwMgPal94aiQvYkNiRXJHHOnoyM947LxuruluOBiCYO+IGIJgL56mtgAjsGPZGyjKPgFXcS7CwiMwZOY16D9pToCf2rHqnQeXq4gBqnaZ9lcXsLKbDYSpwVOr9TwAOmGgBoFaDjouTpw4UQkCqwDlvXIypJ5gqbW20w/g5ptvxqlTp9Tr7rvvxhNPPKGaRa3FwYMHFXl49913FTkhSWH2P38uwVQIjbSPjoTirEgNBf0tuDvm98wJ4ctFfIgTIz8u5ItEgGfJEI+0tDSFA50tw8LC2uwWSQLJFi85SbKz5q23eBuC4C1S3pUzBME7nEypboLA3dNT1ILG3Q0XN17Pr9iJPqO6766ucutbihTw5EEuwuIHIMK2s6HVbfY6YSgqKsI777yjTiylFkGPtBCThO7D0FaoIIWwLoCpPWGmQe5eSQ6++MUvKt8AvlauXKkiAuwgCHrf2D5mE6QWgdoJnp1C4sMcEHqEhrf4L1u2TPkydKeL/SVp4S7fl4tOpDQDDR06DI5Wznvj+En4q143seNvj/401ET4qonxpZ2+ljUEwVfE2i5vCIK9eJraAoxA74L9yE1oXKRf/dGX8K9//Qt/+MMfMPyWbwb4yf5VP8x5Dts/+RiJiYlYtGhRk6Mca+sKgqCTExH64p9A/wDu5qlCHjlypFLJk4hZj6Zmed0Z0NMukg6ZDz30kPK7oDBhoh7uQJnxcPHixepIaqrrSRwYZrlt27YOEQQZHd3UINoZPnP79u2KnMgx2OwT2+2tP4KkdqbvQXe5GhpceP8/H+DosWMBa9KUyZOw8MoFHuvneNKfgfPaWxwD1tBPKzYEwV6EDUGwF09TWyci8Py3Pou33noLf3htGYZfsbgTn+z9o2LyD+LY3u1qp8zdltWBsLNVtLpZQT8Pgu0gQeAhSIw64P/prEiCQKLATIEkOXFxcU0Oj20JWCZf4s6du1DubvlcEgb6ILz99tsq5JG7U9bJ7+j811ENgidfDukjNRrUALAtDOkUfwRv8X/99ddVpEd3OtfgzJlc/Oull72fjH6UpLblq/97T6t30s+EETrtOT368Wi/bjEEwS/YWr3JEAR78TS1dRICRbuW444br1ZJcH780koEhXfPQ7N4zDNVwNxBy8FBsmPvql2XnAOh5wOgcOXnbCt33DQ3cNdM3wl+xrIUjiQM1DBQVS9RAZ6ErKT4ZR28aOPWzyqgPZ/OcdRU0BGOApynTvp7CqKe90H8D2QqSsgmTRskP5Jd0Zc8CLaYF9wuuPMa8eDlrq2GI7TRKVBdTiccvXp7/QsqLCrCs8/93evy/hRsjyCwTppxOM4kXl19GYJg7wgYgmAvnqa2TkBg6+t/xe9/8RAGDxmKH7+0CpExcZ3wVN8fMazmBNavW6eEIHefYqvVBbPU6u1O1vdWtLxD0jtTcHJHLep2vSTL0MmQ31MAMNKBwpWhiSQ2N910U1PSp9baZM01oGsv7O6v7lPgKVqDz2MkBftBQSYe/N60g4SJPhI8BbPdy+WC+1Q63Gdy1F8UFgCF54CiAqCutt3bVQE6T8bFwxGfBHdSMhz9BsDRpx8cqQMBZ1BTHd2FILBBJHtMwuQVRt6h4HMpzoFXXnlFEXFmLTVXxxEwBKHjGJoaOhGBtx9/AM/98Tcq6c53//K6ejId//qPnNCJrWj7UUHueoRWF6Pi6FYlVJkDnw5dXaUxsAMY0TAw0Y7Yndmn1gSsNTcB2yA7ebvDOlmfbi7RIxqEDDEnwkcffYSEhASVAVEOqPKGINCJkmGf1J60SoZKiuHavBZYswyorrID8pZ1MF30tTfDcdlsOHrEwkoQqNGRTJ3+N8CN4uKSJlOYNxoEPos4L126VEWqiGbJ/zZ4f6fulMr59eqrrxqC4D187ZY0BKFdiEyB7oTA7WNiUV5e3qxJdDz73YpDXd5Mh9uFgRVHVcgebepcvBi2x4gAag+6k7e3r2DJQkzTAGPm6WPAY6PbIgguVz3qG+rR4GrAqdyDOFuYgcLSM4jrkYx5U76gmlBVU47/e25Js+b0ih+IyLAeiIqIxZ3XPNz0XX19LTM+welwwqntpEVAiZmBAko/tZG+FR9//LEylVB7QHOHkIj2CALLPf7447j99ttbJXiu7Ey4f/tTXyH1v3xIKJw//g2K3GhmYhgyeDC++Y37/K8XUBqjH//05worXt4SBJalWYnaqM4MA+X4sM0cR/6+Xn75ZUMQOjQDmt9sCIKNYJqqAo9AwelTzSIB+EQKhLjkrotNH4ZcnMo8heK8bGW75yJJb3dmoaO9nv/vSFbCwKPa/hNEbc84eGYnZCgk8yW0ZscvLjuLP71+D2rqqtDQUNfsAQN6j8G9t/y5VYIghUkkHvivV9V/3W4Xfv7s9Qh2hiAkJBw9Y3pj7OA5GDXwcsTHpighQYLAuUBNjfhZMHsjwytpGmFEBc09Qgrk6O22ek/fiOeff16FqLZ2HfvZdzC4uKB9EG0s0fC5u1A+emIzgpCYkIB58+Z26CmuhgZ8sPQjJex9JQicI8yvQPNTZ11WTZUhCPYibwiCvXhekrX1CypDdkOPS6fvbjcSq0+juigP5QV5ihTQXk8PfzrakRgwIRI9+HV/g/Z2q90dQC7GdEajqp4RGZOnTMSxrB1Iy9iIrLxDGNJvMm6Y0xhuWlNbiZ8/e53HLoWHRuNn9/xHfVdXX4uf/s1zBEq/XiPw9VufVuWqayvwi2ev91gficR3v/BSk+CX8E2OCyMp2GY6VVKbQwJRUpaP11c9gntuegIOh7NN2Ol/sGrVKqUFau1a/q27EVNUgLG9eyMyUOaFTx9eGRaBfWdOo9ftdyHhivndwklRcCHuJGM81rzjpg7vfg18JkmcmDWMD4J3uHlbyhAEb5Ey5Twi0Ks2D6f2blJhYyHJgxEcFYtCZ2xA0IpBAYLQeKxvaUWB2lXyio7oiaCgYPW+CP6l6m2rwT1RibrqSrjKC1B3LquJEHBxIglgCCCPS2aaYobuWVXcrFt2twEBJsCV6k5/Z/Pz8Pp7z8IRVYj88iOorTtvbw8NDsdP/uc9BAeFqhb97qUv4lxJtnrfIzIekeGxIDnoERWP26/6MYKcwWhw1eOjTX9r1gMZ275JwzBvyh3qu5LyfPz6hc957OmYwbNxx9W/UJqluvoa/PzZazG031Q4amJRWx6GK6YuVvkPqMmh6WHTvrewdNNT6NtrBL58/WPKlNHaRQ3E3r17m47D9lTu7IE9WP+rH6GushwJ0T3QJyoKMQ4gJioakSEhCPKTNDSEh6OqvgHF5eUoc7twprISBWVliOk3AJd/58dwxyc1Iwh9evfGTTd2zDmP8/SFF19ShJeXLyYGlmdKcWrP+vfvH+BZ2Vi9+J/wPbVIPGXTOCnaB70hCPZheUnWlHx2l1Ir0oGLiwr/cgfdK6UfcoKSERwchDoEoxbnva/bAkoRgLoilFacQ1xDJipLjiAn/6iyYXt7JfUcgF49U5FMW3bMEOSjvxJQtUHeRTuEok55nDvrKhFTdgo5OTkq3I+LEcPwSAJIiOikRxMCP9P9C3QnOW9t3d72rSvK6Y5gBYX5eOLVO+CG58x999/2LFIShyqsDmduQXhoFKgJqKluzKzYXjrf1vpH/4O8wpNKU3E0awcKS06joroE5ZWFuGnutzFl5LVKg1BcnofHX2okFXLFRiVh9qTblDkiOrInfvPiF1BR1XhoVK+eA5UmgZ97uqiFYIKltuzqVbmnEXIsDQcP7kXu0TSUn8lBXVUlpZeqkokK46Oj0SMyChFh4YhqqFefuRitkNALbpcLtZXlaKiuQmVDA8pLSxQR0K+QqGjEpg5EysSpGDlwCGqTeqPSQhC62geB7aW/B003TMXcGZeQV/lrNAj2om4Igr14XnK1hRxeqQ7codMaw+FEmFLtRzU71e4UDNy9UbDys6Nhgz9dNtUeAHA3oJ8zGxkn3sPOtGWora8OCI6R4TGYMHQBBg1ajCwMgcMRrJze1CJObYTbjdTyI0olzRedISl02Ad6v5MQ8C+T+0hEgicyIJ7zsmhdqKYF2ZFzt71k1v3KMZAq92f//X84W7v90zFyIMgZhEF9J2DR9P9G/+TzgkGwYcY9OjcShzFjxqgDgfzFxIo3G0GtQZAzRI3J7iOr8caqX3qcP9PHLAHJwsfbmucOSIhJwX2fewbhYS2jFHjaJNMScw60dlUXF8H5x4cRVFgAx+QZcCy+EUjshePL3kfOzs0ozcxATVmpIk1uV6MGTC6SA7kczIPgcMDhDEIItRD9ByFl0nSMuOGzQHkp3Cs/hHvjariDglH2tR/A3TOxmQahZ1wcpk3z70RMaQPn7ifr1iu1PS9fNQi8h8m2qFGjJoFE2htfD39/8KJB4DPY9n//+99Gg+AvmB7uMwTBRjAvtariXaU4vXOVIgBMBMQfKYUBdxEUsIw5pzc0P+OCQw2DCkmcdROqQ2MwJOg4lm9+BiXFx1BRVdJIFjrpoqo7JDwJYwddhZjgwagsPKdMB0zaw/4wnpsvLpA0HVAzoucx6KRmdtljuMN+f90flRagtq4ad13/GIanTlPjuHbdSqw98gSmj7oJs6fcjMiwGER8mqhKogfYcMGLoZ7MQUACyVh5OgtK0ihfOmjdLeokQ/wjNm9dj5O5e1HuPo5qd36z6r9x27P494qHkV90qsVj42NS8M3bn0NoSETTd1S3MwU0x1/CIj21l8/Of/IRJKQfPf91WDgQGgZERAI9YuCIT4Q7PAJ1UVpCr7Bw1MecN28ElxTDSUfLijKVN8GdexqorgSo7tfMFMVxCYj/2W9RVFLarXwQpPN0cKS6n793rgOygaCZx+5LtFusl/PBOCnai7AhCPbieUnVFlmajfStH6sDbOT0P/0wHy4QFChcMPjjZejfrt07EZZQgLzygx4Xah3AqPBYJMb1V6aCkrCxiAiPUXZr1hUVcX5HRwc2FQIHN8ori5DkOI3S0iycLcpUamnxVWhtcBwIRpgjAamJkzBtzDVISkxWAkzP6kdhwcWIJOhCzmfgzQRdue2f2LTvbVTVnFdz904YjPtufUb1PS8vFx8u/QDDho7AjBkzmiIH9F2oCG9ixhMid+3apXbhJGEzZ87E8OHDfcZR91jne/p6CGlgop4NGzYoMsrsmtT+7N63DcmpkSipPYGD6etx3cyv4cONf20Vgp49euOrn/0L3PXBytmORJEJlUgQ2tN4nHrjRfTdsNIbeDtc5vSQkej/jYda5EEg+brj87d1qP76hgb85a9PKxx5+aNBsDaAY0QtDLUxxJGhpnalrJbxl7NBjAahQ8Pf4mZDEOzF85KqLaQwAye3rcLs2bOb0uhKmlvrgkqfgu0Hl+KTXa+i3uXZhBAfQxX+KITHjsbgfpNQFERTRMeuMAeTFh1HVl4aqkrSUFZ8ArmF6a1WGhYahSkjF2PskLkY2GdcM894Xb3dnsDoWKu75m46HD791v04U3CiWQNIyiYMW4DrZt2HiLBoRfo++eQTtehzsadgkkt3aOSizRMDKbhJLBjhQX+V8ePHq5evREvUyTr2fE//EKq1SQp45gXJB3etPBCKxJXhmCSRT772Pyguy2sT3PCwaIxNug1TJszy6Tjo6qyTCP7dz+H41O+g1Yc4nQgdNAxwNj9CsaGoEA3nzno18OWfuwuxM+e3IAh9+6bgtltv9aqO1gpxzP727HO2EgT9WSQePOabOTQYcurrHPBEPnRHRZMoqUPDbwhC5KCJ9iIY4NqqMnaj5PgeJC+8q91dTICb0qL68OJMpG9dqVTGzLMvuzopqFL5NtRi77FV+GDDn9X75pcDMVEJ6BE3AnOn3Ilsx8iAdiEM9Wg4m47MPatQE5KJGmcuSsrzWvV54K75lvk/QJ+kIUpzwUs/xyCgje2CypnQ6Om37kP22cPq6YxGGNpvMm6Z/31EfqqxkWgMaoNWr16t/DJob+ZFHxNJWENBQALBY5YZCcAwQTp00tRAVfPkyZN9ThwlGgSxN/OZ1E5t2rQJzM/AdNb0cWAbqNqW8xOmTp2K7LNH8Jc37vUKVeZa+OzcXyAxNtWr8ixUV1oC/OzbcFp8DKwVOKKi0feZ1+AMC2v2Vel7r6H4xWe9el7VfQ8ietioFgTBq5t9LGSHBsHTI+WcD2qgOhoSqZsZjJOijwPcTnGjQbAXT/tqc7uw9DffxGuvvaZ2YW8fq+p2BIEmhoxtK5VKl7sBuWQXWVx+Fk+/9XWUVRa2wCUiJBYL5/0CJZGdkyKZO7u4nK3qxECqjZluVxzPthx4D8s2P9MsZE9vMG3sdy35NVKShsPBf3Qk+9S5keWoiqdPw4WoVaiqLkNYWJTKTsiLJO6Xz38GdOj88pLfIKlnY7gatQYi/Dm+FMy0zzPtMu3Nni6q6IkxSQTnB+vgEc9ikvJl96hHUvBZMsd4RsLmzZsVQaWjLJ9JMxcJAw9novZg7LgxKodCS4La+s+VTo9fuPLXiI1K9uo3XV9TjYbfP4zgM41hna1dHSUIjHyofeARRCX1uqAJguBD8xO1UP46ruraA9ZpTAxeTVevCxmC4DVUnVswpSIDX/78LSptLz3HuyNBoAbhxJaPlVqXi76o4BmF8MaqR5GWvgkud3Ov7dTkMejhGoeYiN4ImXRjp4DqgBsxWVtx6OABlVOf7WU0hR5lwHh8pgHesOd17Dy8DC7LTpDCMTG2Hz4z//sY2GdsExkoKs1Vquub5n1HqeEvpOt49i68vOxnmDLyalw/6+tNTT9z7gQSYvsiNKTxpEEKXNGcUKjLONMBVRw7WY5aAxIHvrjgM+KDXux08CR+dFbkrp5JlqhR8JUgiJ1Z7uNzPvjgA0VQeN6FHOHM9lLDwTMUaGIYP34s9hxbhdxzJ5RPSl5BBsqqWpJW69iFBkfgM7N+hKS4ge0Oq7KzP/8kkvbvCihByA4NR+pjT4ERD93psKZ2AWqlAMeKWiYSOX8dV2VecI4ZDYK/I+H5PkMQ7MXT9tqeuf8zKnNddyQI8XXnlA8CVYSLFi1STmO09b+95nHkFWY0wyKpZypumH0/+iePw/Jly5XACJ7UevpaO4FMrs3FgQ0rlIqb5hARWCLorDt/ajz2HF2F1dtfULZr/XI6gjC0/1TcNPdbiI1OwnPvfQ8Zp/eojHzfu/Ml0I+iu1902ly57QWs2fmScuBkn25d+CAmDl/osem6XwELtKUp4YLPl/XkSgp1hsDSL4AZDcXEQOGuh4y2dl6F7qAoGpwjR44o3wOmfZb6xJGUhzMxAyKd4bhDpSZDP5+BoZHU/KxauwzJfeJRVVOCovIzKC7PRWllPsoqz6GmrgIhweG47rLvoF/S6HaH9eTy/6D/R2815T/wdENHNQjHR4zDiK99T1V9MRAEIaDU+NBHxZ9zHHSib457bnea+lTAEASf4Or8wt2ZIBCN0COr1G7tmmuuwYm8TUpVX6flMaDT1+wJt2LO5M/DAafa7XFnp44ZnhJ4DUKQqw7utNXKHj5//nyV4U0/+a8tYVdTW4V1e17FrrRloLlEv4KDQtA/eTQyTu9t+ji19xjcfcPjTTvvzp8t7T+RavaPt/4D63Y3nnHQeDlwxfjPYMns+9uvwIcSelgiSQDDXkkQqF1gJAMzUBJ/OeTHarqxPkoIHf/SIZE+ENRgXH/99So3BcdVLpbhoVJ80WmRfggMsRWVNHedy5cvV5qv1pI30WmzrKoAZVXn0D9xDIKCQtrsPXMd4OHvI7im9TweHSEI7F3l136A2BFjLiqCIKAyVwY1CSTy/l6GIPiLnOf7DEGwF0/ba+vuBCGl/AR2blqLmsg0nCrY2az/vROG4K7rHkVMdGLT5yQG3PXRy3zo+KmoTRyKKjSm5g3ENaj8sPKiZ2Y3OrHRRs2rNe1Ba21Ytf0FbNr3Diqrma+h9euaK+7FnEkdCzULBA6ss6GhHu988gR2pn3U9AimR7525ldx2diOpej11GbdqZDf0wchLS1NCW2qk+kHQrOAJJaSOlojbXoUw+7du1U9FPzUSOgHNIkWgSYQ+idwd8qkPdQ00LRETRfv57PtCreTtlf8+BsIL2t9jjgiItH7sb/CEdp8zpev+AClb7/S5tDXwYGgh/+AkJjGEN+LRYOgd5o+CSTyJJH+XIYg+INa6/cYgmAvnvbVpo4xrcNz37pV2W3fSCttVMuHBE6Y+tP4Hu4KbFzxNRRXN08+M3viraCwtEZ9cedGvwrmt+fuj2rF+iEz0eAMbcpq6E87PN0TV1+MrG0rlLaCGg4KBz0M01eSUN9Qh9dXPoL9x9e22cRv3PYc+iQ2evZ3t+v3r9yl8kPwosMlUyMHqq1Wx0Jiz/E/dOiQCnekOnnWrFlqBy/ag7bIgRAEEgo6IPKExltuuaVZvgohB6K9oP8O5xqfSTJAMsF5wP+TXNh9VT79O4Sl7bO7WlVfbVQ0Qn72OwQzCdNFShDYLxI/Hvjkj9OvIQj2Tj1DEOzF07baehakYe70iWpB5YuLGzP7Pb2xcXHvLteRzd9E3tnzC2JYSCS+dN2jGJjSmENAV+frtkKGvjEemgs1ExINGj4awSnDUQgt01wHO5l4bj/27tiqkvnQMU4uPYlPe2ptaxNou/7l329GbV1lq61Ljh+Eb32+eTrfDnbFttvLKgrw5zfuRVVNOe7/3DNNUQq2PcBDRXryLOJNTQITJzGihGGJ9AvxlIFRr0oPZeP77du3K20EM3jydyHEQPdpEF8IfkYzGOcbTU30c1i4cKFPTpLe4lPw3quIW31eQ+Ptfd6USw+PxNBf/7VJcF6MGgTiQFMUx45+Jb5ehiD4iljb5Q1BsBdPW2srOH7evi0VJwztnLBAbzpyZMv3kJd33qwQGRaLu2/8LfokDm0mjHXbsC6QaXuWhZvJbug8SFtyZN9hKInsgwYvD3hqra3ufUtV6mR6uLNuK0Hg/33dpazd+TKWb3muXXgYGXDLgh/4XH+7FftRgF77yQmDmu4sKj0Dl9ulIhUCeekaBCtZ5LgwWyFNTTT90AQkY9FadINeH8MbeZQzhQi1AhT6Ms+knO7wyLqZ6pnEgmYmaq4CcZ3esh7Jr/2doR9N1cf/77cRNm6S+qxy63qU/Psfzb5vKuh0ImLKDFRt3+Sxacenz8aIO/6n6buLlSBw/Kj1odbPl0gXAmMIgr2z2hAEe/H0urYwdy1QUYj6+sYwQNrcKsITvL6/iTCgvIUa3+dK2rihCFFwazH/UvTkzh/jVPbGpjtDHD2w5PLvY8qEmepHbRUOeoia9TAjqoFJFHhULM0OvOh1zgx9JVF9FTZFzhifupVcdgJ7t6xTSXyoxvZknxdBzwAAIABJREFUWvDVxHA6/xj+9PpXvGoH4+j/9+Yn0T85sMmf2mvM9kNL8d66P+D2RT/CmMFzOpWwiElAF976ODD1Lv1DmOeDmgCGRfLSUyhLeX6ujxfnCZ0U+T3v1dNiS1n+FWLC95yXNNeJz0J72PnzfV1FBeoffQihn/ohxN//AKLnLmqqin0o/sdfUbb0nRbV97jhVsQsuRVnvnsPXEy8pF01DDV96FH0SDmftfJiJQjsNv1HuCYsWOBb6LAhCP7M2tbvMQTBXjy9qi2otgzh2bubeV3zRu5sKvtMQH1o22p2R0MdUiuOo7ikbYc5rxrjRSEurMHJg5AfnKROXsw/8EukpZ+3w0dHJKKPYzHGjhmvdoP6ot7eDl0PoePZDQxPY/IdZlpjXD2JBQkCkxvRuzknPLW5vdrRaEtX5+d+GrMfU5SOY4f2KbMMk+cw94FdF/MefLL7VRzP2oGisjy4XJ6TBDUKpGD88K43ERVx/kAeu9rhTT3pOXvw7Lvfbir62QUPYMqoq725NaBldPJIDQLDEem0SOc0cVoUs4RkTZR5pBMM+jHQ2ZD3STZHIQVWjQXnEecTNQiMagjkVfToDxGTmwNHeDj6PvcmnBaHO3d9HbI+f60lHNKBPn/5F0KS+6Bi3SoUPPlosyaWOoPQ8/fNzVYXM0Fg50keGaGia//aGzdDENpDyLfvDUHwDa+OlWY2v4KDqCk+12Y9AwYMwOGQ8yrhZoXdbiTm7Wo6jrVjDfLt7ojeA1FZugkfbPhT043RET3x5av/rMLXqCam4xd3jLq/gaen6N+LalhPwsMwNh7AQ8LAF0+IpKZBvygE+Cy+RBVJIcC6U1JSVMgU7dP8vj2i4hsSjaWraypULoH1e15v9UCo8UPn4farfhqQ57fVZuY3eOxfn0eJFp7530t+g2Gp0/zpqq336ASBY898Bow2YAjq3LlzmyIL9Dki2gNdE8X5wZBZkgNm86TmwXrpBJRhjfxt+ZOQxxcAyl79ByI3r4UjLBx9n38DzvDzJ0SyHldtDbK/cF2zKqOuWoKEr3xTfcYjoHPuuQ2ukkZtGq/yPv0Q++Cvmt1zsRMEjjXnx8CB7SeqEmAMQfBlprZf1hCE9jGyr4TbhYgT69qtj4ce1w6YDldIZIuy8dW5aMg/qT4fMniw8sh2Wg5+afcBPhTgAnvwUJrafYVFRiEvfjRqMp7Ctv1vgactTpj3d4wPLlM59hlTTqHcWrIb/bFWAqEv5GqRdLubNBF0MqMamo6N/KvOeKivV3/1+/ieQoKqahIDOaLXV0dEH+BRRXmSZElFPg6cWIf1u19DhSUU8nMLf4hJI86rmX2t35/y//jPgzh6auv/s3cVUFVlbXSTIoIgdmBgoGLHjB3jqGN3jjE65jh2jD12jt056tg6dncnGGCBGIhSBqB0/mufx8HLE+QBj3D+d9ZiAe+de+K7956zzxf7i720Tb1RqFo6eZ7hyek/sWuk+UFqBJhPwcXFRYBMJnLiqVEZkSDvs/yM7dOn4NChQ+J+N2jQ4AtgoXyO2A9peJlYLDXAonK+H69dQJZdf4uPLLr2hkXbrrFfc/zv5k1G8O3rsZ8RSORbswMGZuaxn4V7ecBzaC/GporPXhctiUJDxv1fAQROln4mjFTRtOgAgqaS0qyeDiBoJiet1DJ7cVlsapoUJr55n++7L6rm+PAE4YF+YiOsWqWy+D61Fzye1F68dBN2Xq8cKifJcPetMMv5HUJNSqCg/0OhuqU3OrO0aepYpO6noA4S5ALP38o25XXytxSSvF5qFKRnPOWj6Zg0uTdfqxMZGQ5SFT97cxeOrudBvwWmpv6t3QpYWeRLafMaXX/D6QAOXV4Wq9UolKcM+rZZFJtwSqNGUrGSEhzI55c255s3bwraXW74NANQMyD9EeIDnWRmpAaBDocyD4N8ZpQAVJobCGKVOUNSa4rvHzvBct2i2M3dvFlbmNasj+jICAScPIygq+fjmBeMrAvDokuvuGG+9FXYug4RHqrcDm+atkPBxnG5Kv7rGgTOm8CxcePGGmt9dABBu0+1DiBoV54JtmYSFQy9559PdJp0G1WsJkIRl70t3wcnoWqnv0KVypVSHRxwnD4+b+H67FkcgKAcv8Ur1elPhpxJ+/HXgEt8YEC2qaTEVbYhnRuVYYpKcKD8XEnfmxYgKqH7SbDg+PQcoqLCUb9k0hyuNHlG1OtQ+/Tw+SWcuHcQgWFBsMiSE8O7bkIm4y+1UclpXxvXKIGd0qeAGiKGLpIng1EOZFrk5s9kT/RDkSYEueETlNI8weeOdRJ63vjcUOPEkFq2mdolIiQYwXMmwNT3vVa68mNui+lLkCVHrjjt/T8AhKdPnwqgSPOTJkUHEDSRkuZ1dABBc1mlqKZ+iD8yvb6bpDZIJMPF1BW5hA8eF8CcH58hNCwsfQCCiQm8cn6ZLtvw8WlBWtOmTRuB9DWhMlZqD5RCUZoWlBu+cvFX/q1uYlAHEekJDpTzCvF1xauTmkVAJOkhSaCyUf46OPXWF3UqdkSpIjW10aRW2+B9k5wFSt8T3j+GvDKMkQ6MNG3xe2oV+EOQQG0Cr6UzK/9v1apVLI1yfPebbVILxsgHmdBJq5OJpzGH0QNQIiQQmfX1pf9ssroMiorC/ZBQ1Fq3+4vr/x8AAn2PeP9ovtSk6ACCJlLSvI4OIGguqxTVNAwPgJGbvcZtcAF1c3uFsLDQONfYFC0Gmh+Sq0EYPXo05s+fr/E4WPFrGgRLvRC8dTgltBqtW7cWWga5yWvSSUJmBtmG0hs9vhOi0jat9DVIyhg0GWdK66Q1QDAv1BB5q8e1Wad0Dtq8XsmNIQGCOrij2YGhrwSffL74I/1OCBB4jwlImbGRzofKnArqWqZ169YJamcmFkuL8nDnZjjt2AhDfX2UKVIUhUxMYBTwUdV1PGHDyljlMPOscA8Kxv0XzxAVHY2cduXQYNZnx2A5/v8HgMC50pTEDKyaFB1A0ERKmtfRAQTNZZWimgxtNPNyEolpNCmvPTzw4f17VChfXoT4Sce8oGCVl74IiQwMECcivkBUw3GBZMhYy5YtBQkNN2uexlq0aCE+t7W1xeTJk7FmzRoRD965c2cxlG3btuHnn38WYUVceAlAmJqX8eLs19w8a4ImBrOoQHjeOCqcypjRkaGF6g6Imsz3v15HBxA0u8MS2Cm1UHwGGdXCMFgJDKTjKrUIfMbJmUFvdysrK+GcymdfCSinTJmCPn36pIlJjjONiojAh2fOsF+5AH4vn6lwAaCKuDEwgKEaSIigx350tAoAxYjKxMISlQeMQN5K38MwntwEDAXe/M82zQSbzFpcU4YN+T2ZV2vnMh1A0I4ck9OKDiAkR2pq1xSAL4KCg8Xmz4VN0CNHRCAbAhEQbYxIQxOQu+DelbOoVKFcoj1ykbx89TpsixdDw4Y/ikVPlvuOKh8Eql7/GDNa2OYqV64saGSXLl0qOO6pSmV8OGllSSlLx0Eyk9Fmy4WW3t90KGzfvj0uXLgQGy0gPcIJEJjYhm2yvcOHj6gAQjwmBuMQXwEQuDgz1IzARQcQvrzFOoCQ6GMfp4K6Zknpl8KK8hnjs04tA30R+N4RGNBfgSCBm5sEGiRV+vXXX9MMICgnExYYAN9nzgj+8B6R4oCgggDvnB/h3WMnGGUxQ5ZceWBVtAQyZbVEJgtLWBQsArPcX08d/vrNG+zZu0/jQ0fS7oCqtrGxEYYPHZKcS7VyDU0MXLO4tmhSdBoETaSkeR0dQNBcVnFqmkYFI3PQW/i7O4sTDE80Uh2udMKSJyKqUV1cn6NYURsUtP7MhhZf9y5PVSRIjX5sIGxv0uGO7UuA8NHfH2PH/iFYAvnDzX3UqFHCq5vqVp62aMPt0KEDyFjHjZuaAqpruaASHPC7nTt3ihCxV69eCTDA8EB6k//555+4ePEi1q9fj+PHTySoQSga5CK0FVQB0kNcciCkdmRFMm9bul2mAwiaiT4+B1f1aBXZknzGmNuBGwm1XnwX+bzTyVHpz0IfBD7vMpunZqPJ2LVogpw5ew5MTVVmPW0XrjuU4+qVK7TdtMbtMRMnx8CDjiZFBxA0kZLmdXQAQXNZwSQ6FOGhIcjm64Lnz58LOlCq1GkHJcsff0s7OE8vdKAicKBmgYsYT/279u4TmoEC+fMLdK4srOPm/gZPXZ+iW5cuKFnSVrShTIfr6PQgNophxvRpYmFgSBiBBBPf0L+AZEXFixcXCyVfLKoiZ8yYIXjrqX2g1uHo0aPo1KmT4BU4fvw4+vbtiz179gjzAgEHQQMBw65du7Bq1eoEAYJMp0w2O6bUlfZkzis+h8EkiPs/VVUHEJJ2O+PzTZHhkfytBKLqkS587vhuUqMgwyNpYiO/gjolc9JGlfFqL1qyBN7ePqlCnEaTCM2Mv/TskW4TZ0IvrinMp6JJ0QEETaSkeR0dQNBYVtEwfXZJqDK5IDGpEDdahmEpTQCJNff8+UusXrdObJ6025uamMC6YAF4eHrBy0uVaW7S+LGxRDHqpyUlQNA0zJGZ8wg0uEAmp3zNSZEAgRqEevXqCYCgDFuTC7ROmwBkBIDg6/IvIkM/JfoIZLIsAnPruonWS40K6idh+TxJcKDkQ1CasqS2QPnMKb8nSCZgTo0ohr///hu//PJLqpkvOA+aDOloydwE1P5t375dmAfXrl0b2y/rHTlyRIB/+hfxnfzWC+dC8jWdk2L63EkdQNBQ7tmj/OF65aiwb3KjJZUvtQREtwl51ys98ZWL1cePn3D85CnYOzjEUQ1WqlABzZs1iWUAVIIDuVAmByAoU0ZrON041b4GEAp9fCTITEiRq86Hr5x/cvr9L12TEQDCiyPdER7wJlGxmhf8AXlrTEy0XmpUUPdfUU8VzT5lHaW2Kj6woKzLd+DSpUtaJ0qin87y5ctFiC9PuY6OjrHvA/tjmnFubtzc6WzMzf3AgQNCq8j/SfC0atUqofVjlAW1dmQP5Of0LWKh/9DevXsxbtw4AXIY/syUyNSG9OrVC/v27RP1uJnye/ZBcwsBO7kfSIM+bNgwYX7kYYZkVHQoZkQHAQWdmDkG+h3R1s850TFQslPyHmzatEmAK86TwITy5JjJ5JqahfOmLHQAITWlnHDbOoCgodzNQ97h2dWjYoFhQiIlEY96XL7czJUbPO1oDEtSORiGxmY7lP9nNTeHcSZjZDI2hnlWc/Hy8zNlHgEugskBCBpOMcFqVGE+e/5cgCNvNR4EsihyQaMpg0mRlF7oCYGnlI7nW7xeU4AQZZwL4VEGCU7RWD8CemFvExVBfGGO3wJAUE5MqU1QvlNfC3eNr57UPmzZskWcqmkW1KR43TmJPJUaf7UqI4IY3kv/n82bN2PChAno168fpk2bJiKGRo4cKU75dBjmBi3zlZDVkYWfk8eBm3jNmjVBbQSvHz9+PP755x+h+SOB1MKFC4VWke8YtQM0Xf7111/CtNismSqvA/0slixZIkAADzE8ebMNAo+VK1eKNYUbPMmiaFYcPny4oEinGp8An7+pCeGY6dDJtrn+0HeJpgaCBsqSpsghQ4YI8MM1IbUKTbLsmz5VPXv21KgbnYlBIzFpXEkHEDQUlbmvK17cuy4QNu37Svu6+kKmbJInBb64bzw8NezpczUuZIUKWguCGAlIpJNicnkQkjwIsYipAEJ8UQzUIDDRDk8kNLmoq4jTiuI4OfNKy2s0BQhPP1jB8cGjBIdWtXJFFMyS+LOUKEAwNI8FIgZ60dCP/JwZND01CKlxT6Q/w4YNG4S/DqN6EivPT6yFy775yPd9K5TpORv6hnH9heT1Q4cOFZoAOgRzE6dT7+DBgzFgwACsXr0a3bp1Exs4T/z0U+Km16RJExw7dkxsxgy/5A+1BDyVUxv3+++/i++odeB7Ls0m/E0AQn8hauu4BjGk+eDBg2Ijl/UIHrp27Sr6pkmUmggCDZol5syZI1KpE1zQIZljmz17tmCjZKH/EUEP5yDLwIEDhW8T50BAQS3J4sWLExNhir7nPSOgopMiNRsENpoUHUDQREqa19EBBA1lRTphUsDyBWLMtfKkIk8o/ExpI6XTodODh2JRSElhyFYZu9ICJNy8dVssBDIXQ2ra9+XCSt+Il25uQrvhk7tSnKkU8HUSUQ9SgyC/VPoipOYYUyLXtLxWU4CAAu0RGJ0jwaGZ63kj6vX+RIeeGEDQz9MQnwyKinYywReGHv8C0arU1f9FgMB5UbXv6emFFi2afzU3h5f9cdxb+zm0z6rEd6g6Ygv09ONqdqiKJ/jns8/oINKNM0KIp29JSDZo0CA0bdpURAlR/U9wwogjcjJwHeEGyDA+brzTp08XY6TZgCd0Ag6+5zzZ83NqLrlpsh43Qq4L7H/EiBHivjHqyMHBQZz26ZQ5d+5cocWgBoF+Quxn0qRJwpmamzzbp+mAWgauKdRQUJvB/zkHWeiQzbbd3d3Ro0cPEGhxDKlZqDUh8KHmleCFYdmaFB1A0ERKmtfRAQQNZZXZ9YJYAMj5Xq1aNeGkKDdQ5SlZyeB2776jeMC1UWj/K1XSFocOHUaOGD55a+sC0INeqoQ4yTGbmGTCS7dXwkua8/TNH5fRLIfnbbHYcBHkiUQJDKS5QRvz/9bb0BQgWJYdgFx2HROcruuNjQhxOwTj6BhWvgRqJgQQggJ88cTND6GZiqHrsE3iapf7Z7F//XDksjJHtXKFYZm3VLr5IKTmfeZmunT5ClStXCnBuPoAr2e4MqUpQ3DEUPQMDFFnxhmYWOX7wtdI3e9Bjl39HdB0TvFdp84IKcak9/mdVzdvKvtSN3Wqj0+2xd/xOYfK+vGZelIb9NP3gBwXkVFR6NSxowA9mhQdQNBESprX0QEEDWVFoiPz17cESJBEQrSN0QZHVR9/lMlkmC/BweGOhq1rVq1SxQrYvmMXSpYsEcPLptl12qrl9uoVLGt+3ryyIxCeDmdESBlPHpJmWek8ltoLibbmltrtJAQQQqJM8cDFA76BkQgJi0T1JoNR46f+CQ7nzN45uH1ui/jeyFAfmYyNYKgfhSIFsqFQLhMYQMXUGR9AWD+tCYoUL4Pcmf2Qt1RTZLdVqW2D3z+G1425CNe3gFHeOvB444GazT6rmFNbNqnZvjpInT5jJsIjItC5Y4cvHOz8nt/Hrb+6Iioihu1UTw8VB6xErgoNUi1CITXn/q22zTX20uXLiIphl5w0caLGfiM6gKDdu64DCEmQpyEiYfDJB++cLgvNAAECnY5og1SP+adK3iMZfgdfG07RojZ488YDR44dR7XvvoOZWZYkjD5lVZ84O+N9UCTKtOwtGsqlH4QPz53g7vJQ8C9Q/SlPLAQImmR0TNmIvq2rlQAhBBZwfuEDr/dBCAhS5dowMDRGbutSqNV0IIra1Ulwct7uj+H56iHCw0Lg7nITHm5O+OT/VqQPJntvdovMyGdlCJvStVCq6YI47Tw/OQwRfg+A6CgYZs4JA5Ns4vuoiCCEf1KlFWaxLNEWuSqlL72utu6uelTE7j17cMv+DvLkyonOnTp+DhGMioTjhpHwvH00tuuSHcej8I+9tDWU2HYuX74sHBL5ntD3gOROskjuFPk/15b379+LEz59CWhWkIWaO5of+O7Rt+K/UDjXM2fOwtPnLUwzGQlHSUZlaFp0AEFTSWlWTwcQNJNTnFo5Ij7g3TMneLu/EKFCdFykel2aGvjb2eWpeLG1WfLkzg0bmyK4eOkyjp04CUMDQ1haWkBPX1+b3cRpi5s+badZTE3RqGVbhJrmhNknd7x8/kx4V9PUQr8MhjspVZE658S4tyTowzPc3TcIL3wi4P7aA3p6+gIQFLCpiJKVGiJnNnOE+Lkic/bSyGRpk+D9DPS+gyDPWzDOWhCGJjlgaJYHxmb54Hj9ANye3saLR1cRFPABOfPbos+EuL4K31oUQ2o81DQzLFuxEmHhESiQLw9atmgRm+QpIjQId5b3wwfnm7BpMhAl2qhs+9ouNMeRgIxrBx0S6YDHcdFHgAcOOhkePnxYcB4wVJGRCR07dhR+B3SCpPMy/X7o6Ni7d28RAUHHRfpIMbyRgIGncPoUMEqKBxlew9TJBBKSMZXmUmr/GJ3A6Kz0LlxP6PDs8uw5IiOjkMXEWDhLco3RtOgAgqaS0qyeDiBoJqd4a+X68BAP7toL0wI9bZkMSToqvnJ/LV48bRaeJkjVzEKnIkcnJwQHh2hV/RkaEiIWK4Zkso/w8DAYG2eCuVmWOCGMNCcwmoNzTqsMedqUZVq39ezhZexe0R+Zs2RDIdvv0LD9aBghFP4vT8HvCVP5qqhy89acCnPr2gkOz//FSXjfnBsXxBlkgln+mshauCGMLQrjidM1vHKxR7MeM+PU0wEElTi4oZ4+e15I3CabEX7q0B2ZTExjZfX66l4UqKn5qTWpzxIBAkMJaZ7csWOH4FGgwyNzpNC/iYVRA9z0GXFAh8WJEydi1qxZ4ocmTpKfEWTQmZDgnNFSpE2nNo8aCTo1EmAwpJE01Ixo2LhxowAMZFQlSODmy7YZ+tm9e/ekTkOr9QlUrl69hicuLoiIjBLasLKlS6NHj6SNSwcQtHpboAMIKZEnaY7DnoskSIxU4MtJlRhffLdX7qkKEOSwedogkRE3c20VagJk4ilDQwNxyqCTIvM78G8uWvTGJjDQkSFpJvV3Hk/x1us5SlZoCD/X/XjnuBHREV86sCYHIHw5An3k/n4MLIrEpafVAQSVpPjOTJsxAwaeTsj/+gTCrKuj4chVYuNNi0KAwM2c5gJu0IkBBGZapUmif//+cYjZaMbjO0kVPM0PDInku8mwaJInka+AZezYsSK0kusTwxyZWI2F2odbt26BNOnpWaj14Br67MVLREapgHKuHFYYNXLkV6NN4huzDiBo907qAIIW5GkU9gmvL/0rVJXkA6BKTB0gENUzvEg6MibWbWQkkz/px3lBlBoEXk9QwkgJLhSpVQh2ypcrG4fOVeab0Dkgai71iFB/vHfciIDXlxAZ+plzQL0Fi2ItYZKteIINB797iI8vTiTacXxOijdPr0VIYMJ9y0Zz5iuB0t+1SrSPb7nCpVWj4HJkpUjBzC0pxLoWCvz0m2AHTO3nWt3EkBhAYBgjQxKVhWGH5F4gGdLMmTMFMROJoJiQisRlJ0+eFOyLLEzjTt6C3bt3i9BHyYtA0yg35vSiZOahhpqMB9SeBKqSa7EYGehj0G8DRRhoUosOICRVYl+vrwMIWpCnpBum6o4aBCJ5dYCQO8aR8e27dxr1mM3SEsEhIXE4FNQBwlPXZ4K8JKmFC6BF1qyMl/ry0piXNCSUfasc6CpWqIDMmVWMafIlVjp/pfaCmtT5ZcT6moY5amvs8QEEbbX9LbcTGRGGK0sHwfXstthpREMP3nnrwj9nBZQuaYtyZcsKUqPUKjQn0NeAfjqkPaafgUzmJs115FXg+84DBbkS5Klfjon1SYJEswRBDdccmjTZHs2dSr8CHiToRyQ3XG7K1F7QREgNRFppTuTYuXaQW4Fy8PL2QWDwZ54YA319dGzfNpZmOqn3QAcQkioxHUAQEuCDk7lQGZgWqaA1CZogHIYB3nh5+7xQ65GulLZ5vvjqAKGojY0qBbOGfgkEFAGBgcJmKIs6QHB3fw3315+9zzWdGKlYS9rG7/UstRF8iR3u3BXq2IoVyguzyVvn2/B+fAPWVRrBIn+JWIChAwiJS14HEBKXUWrXiIoIx+lpHfDa4VRsV4YmWeCe5wf4mX12DDUxNkKhQgVRvlw5kfdAV7QjAZotqfWg/4Sfnz+CQkIFz4EsBAfNmjQWxE7JLTqAkFzJxX+dToOQVHlGR8MwMgSWId7wf+0qHngCAjJ9yWyGaQUQHj56BH//rxPmxDc9MiLSVhlfkT4FPLm88fAQVWhiIEDQ1wP2/14Nvm4Pkbt0dVT8eRJyFKuATGbxt5VU0f6X6+sAQsa4uycnt44FCEZZLNB83hk4vnyLE6dOC+c4ZTEyNIBFVnNUKF9enL4ZFaBpHgf12TJp0v9zcXV1FZoQppcPCQuPBQa5cqk0NQb6emjXprXGSZkSkqUOIGj3KdMBhCTIM3NUMDJ7OcH5yROh+qdqjlkdqarjSYMnacmHoB7FkBoahMfOzvD94JuEGSSvatkyZQTnAucX5OuFnT1tER0ZLhqjn0TR+p1Qa/BKGBhnSl4H/wdX6QBCxrjJ4SGB2PWLraBN7rTJBQZGqsRNDBHcsHEjgkNVz7V6MdTXh6mpiQj3ZUggtXk0B2gawZMce3rGkFjqjmLkmLHIZGyIoYMHi4iLlGojdQBBu/dLBxA0lKdJgCc8HM4JL34+yIwtJvcB/5YZF+l0wwecGoQHDx8JXnZZypUri8CgIDxz/fzZ17pm4iP/j/74qNAQkFq5UsWKsZft3LMX+tBDrlwpf7HiGwvncsveHh3atUWhggVFFWoY7u2cgztb43Kxk5I2a14bFG/wM+xa/Q7DTJk1lOz/RzUdQEj7+xwZFoLLS36DnoEB6gxfG7v5fPJ5BSMTM5hktYozKNrzN/79N954eCEqxhcnvlHr6+lBj+q0aNX7YGCgL+L2v1bmz50twg7pUKgrENkZydXAhFZ0rCSVfErBAeWqAwjafbp0AEFDeRpFBCPiiSphCb1/yQ0uGQOpNSBIUOapt3e4g3v378e2XrtWTUGEcvfe58++1nVJW1vhWPROQbZEv4FaNWvGXkb/hHl/LUJEJEMQY+hhNZyPJtWoXs2RIyf69O4FIyPDOJf8O7Ay/F49jrcZo8zmyFfxBxSt2xEFqzUTLIH/70UHENLuCeB76H7rOG6u+wMfPZ+JfAr1Rm2ATZ0OGg2C7IYnTpzEBz//ODbyhC42NND/wjyhXnfBvDkiHFGGHmo0kP9wJTp0372r8nFSJrhL6ZR1ACGlEox7vQ4gJEGehqEf4XEqnjyiAAAgAElEQVRlv7BF0ueATGTSZp+eLIJPXV2FA6S2Cx2IytrZxRuL7Ol4GScmNQcdv75WzHIVRImGPVC4VhtkK1hK20PM0O0F+LjDLJe1GKMOIKTNrQr95Iu7O+fg0aEViFY4wGUyy4aOGx/BOIuFxgNhuOCt27fh4eklgEJCSoXkAASHHbOw/NRTeD2xx6cCVVDcDBg+fQkKRbli6bxVeB7IzJqeKFtvEgb1rIk3l9eg3tgzaFCCVMvBMC3WDPMndAeZGzztd2H82lNAeBT0jaLQoMN4dG5oixB3B4wYPxehhlkAbz90WrgFP5U012j+r++ewYK1W+AXYoBPzs/xy7qDaG5HX6MwrOtph8V6C3BvU0swCfbVTbMx+6ILcpI/pUAFLBo3DJfnD0b4r8vQWfX4f1EkQFBPEqXR4L5SSQcQUipBHUBIkQStQ17C/soFYV4geQnDhaTfAU0M1CrERzNMZ0ZGODDagTSqJCdR8qqnaFDpdPHVFUPx5Ni6RHvXNzRC/TGbUbhm60Tr/lcqvHVxwKERdYQTHB060wsgEMBR/hmhhL55A8/16xHm5aX14eRo2xaZKtph32+VEabgeqCPTA7bKmg2+2SyfWS8vLxw+vQZlUbvwwdB00y0oIraB5IDEKQALqwYjefN5qO34C4Kx+ABwzF59XLkjKlwfkYrOH2/HM1NjmG4cyMc7FNEfHNu4QDcqLIQoyv5o0zvg7i7e4AACwQP69qXRr11j+E8vxWCux1Fh9KGCA/yR6Pft+LoxkEx9YCoyGA8fvQUkVlyopxNXsU9CUDjtn9g574VYLaOqPBQtBiyCbtX9YeR8xFU7nMV1k6LscYtANYW7zBh8DTMXLZCXH9ndXvcKz0XFucW6wCC1p/ytG9Qp0FIqsyjo2HmcQfOTneFcyJ5z7nxSwdFaUdTt6cxqQpjl4mcSZdK6lNyj8+YMQMrVqwQTIhTp05Fy5Yt0bhxYxHPTLKTgQMHJnWEaVY/LPAjdvayRXgi5DtVek5FuQ6jtGJjTLPJpaAjrwdXcXRsI7GJkGui5cJLMM9pgVcn+6Wg1aRdKnkQ3j+7jyNjGsK2kUqLk8fus4kqaS2mvPYtW1sEu7ikvKEEWih78iScHHfB9fyO2BoEpkXqtBPOtCktPO3yMMAYfobqMSEbNXfi80SYTElkFJ+JIQ5A8DiI/vM/YM0iRYKoNwfQb94HjG0fHgcgRD89jB/WRuPf9k+wOuwXjK+dK3Z6vjfnYHXIL/gjyz4YVx+GYXtf4q9W+dSmH4R5P+RDiy0v8HR1d1yrtABz2tqq6rhtwYh/82DhiLhMnPzq7JIB2J1nPAa97ILrzfegv11eLBlQC9POReC9y83YPv6dotMgpPR5ywjX6wBCMu5CZoQjyuWy2MTp0fzdd9/FMiSqZ3WUzccHEPr06SMoUbnAECi0bdsWp0+fxoQJEwTrWe3atUWUxNeLNwa2aIP7MXmhWsy7iHG10u7E+PLaIZyd2TnBIWYrXAatFl2CgbGKaOm/Xp5f3IMrywYhPDggdqqVfp6IUk06pgtA4CDe3D2Hk5NbIToqEvpGmZDZMhdMsmZHzhKVUbBaC+SxqwGjzJ+zBKbGPfpob4+7VasiR5s2KLpoEaCvj+iICDj36AH/K1dQaOpU5OnRAzAwQFRgIJz79MHHq1dRYs0aZGvSRAwpKigId2vUQMSHDyi2YgWyt2ih+jw4GI4//ojiK1fCpFol7OxZDNZVfkKNQUtiTTypMaektMkDQ+IA4QD6z/fDmkW/KJq2xx+DbqN/Z/04AAFPj6DO4iAc6P4CayJ6YVytzwDh09s9WHynJiY1zoeITz645eSK4E8XMGVrdpz8p79Kg/DuMcxbHse7ayOQ6dUB9Jzlg82rYwCs22aMPWyNOb//8MUUh/XvgOlr9sDE7zLKTnTHk+VdRZ13L+7BxTMAG4f/gbqLtsL01EKdBiEpD0gGrasDCMm8MaaRgQhzuSacFsmKJrnQudnzR5XoKFzETZPljHHQjAMmJ/qff/4peNBJv0zgQIrm8+fPg4CB5omKFSsKljE6Qibu2euOHoM3YMuyKUCYHzqVyYEpV4JRKlfagASqsE9NbYc3d84kKEmrIuXwfZ85yFehXjKl/W1cdn/3X7i7YzYiwz7nWKjUbRLKdxiFDz4vcGBt2mmDipaph/rtJwnB8Xl8cmw9rq0aLlI9qxeG/JnlLoRshexgaV0COYpVQm67GjDNpj02Qf+rV3GvVi0UnjYNhSapxsVCIOC9ZQuqvX4N41yfNznXoUPxZulSVLpzB+YxkTvRkZG4UaCAMFGUOXQoFiCwHfuKFVFk+nRkb94cHnfPIU/Z2uliWpHvv5yffH/5XicKEBCI4d1GYMTWNZCme8c1fXAg23B0y3slDkC4svJ3HCg4CTPrBOKHnqdxfH9/ZBWdhuLw4NrINfk8fHbvgt0vvWHDrPCRIWhfuCVmPz4l/B0IELLUWArvR6tg9nw7ui6PwPalPWKG/Qad+/6D9evGglWjIkPR3KYn5hxqhtHDzqF520riOdoyYzM2OmzDvQte6N49Jp/Dq60YtiMbagef0AGEb2PZ+uoodQAhBTfRJCIAIY8vg7SoTKNK50WaDah2JDjgD8Mg+R2JhoYOHSpoUZmchPzqy5YtE+GSdHYkNSqjHFh+++03kFiECZG44HBxSRgoKABCuD96NvgJUw9dxP6hA+GQUx+5jH9Cn7pumLP5NnyQBROmToPT9GZot84e+idHotXRwri2ZhBWdC+GnouOY/KoBXgfHYHIqHCMnL8Vpk7LMPPv6wjz1UfDWfPQxG8LRp58CWPPkpi3eQS4hQT7emNXr1KIDP9MmfrFJmRgiNLNB6Bsu+HIkl1p79TsBoT5+MB93jwEu7pqdoGGtTJZWyNvv34wK1tWwyu+rBYa4ItrK0fg+cVdsV/Sc75s26Go0mOKiLl/7/UcBzaMTHYfSb2waJm6qNdqWJzLbm4Yjwf7FmvcVJacBfDjpN3IUTTl7KMSIGS2tYVZ+fKIDguDfubM+GRvj+CnT5F34EBEfvqEqIAAGOXODa8NG4SGIXubNswoJ8ZsmD073u7eLepZNW8OfUNVZI2BpSXe7tmD0jt3CoCQXkUdHHAc0h9JIw0CAK87/2LSMnvUqsf0y49w4V5JLFvUCz6X16D9358wtC69E/xw/U4AZi+ZIHwEHu0ejlUu1qhinR2+b+zhYtIWy0bUh/u5pRizyRnNGnyHiPA3uBJWE3//VjdGPKE4OPVnuOVsBDfHS6j663x0rvr5vXTcvwhLLr1FnQq2eHNqHUx670auQz3h1mwzJjSiVjMap8bUgEONtchxaSLuWbfFd1bReHLtDJqOWgqfbX/qAEJ6PYha7FcHEFIoTMPwQHy8c0JwopN9UFIVU3PARYGESvxdsGBBARSYyEnpyKjc+HmtKq7aQIyK38koiYSH6Y4fbCvDx4inryh4PiyNe8E7sLd/E+QccwbdCnogs/VsePotg6XLv2g05S3W9w3DpdL9EDllBPaH58LSee3wa/0DOH6kBOaeN0WrmpVQpmh+RAd4I1vuwThyczIs8QIz+m/CwhllMMNvKFa2iRtD7rh3IW7/zZNhNAwyZcYPY7fi1oZx8H/9NDaVsZxD9YGLUKx+FxhnUZ15EitRISG4nj+/UC2nStHXRxUnJ2QpXTpJzfPefHjhhFN/tkHQB8/Ya2lOqdh1PMq1H6mBBihJXaa48qVF/fD0zFaN2qF5qO2KWxrVTaySBAhWTZog6/ffJ1Y9Sd+HeXsL50e7ffvSFSBw0NJRWTkBUgzzgKALc/wsFV0UQ5Ie8XSrrAMIWhC9fnQkSkS8Ehv7Q724GchyhHji/TMneHt7ixTKBAqlS5cWmgWaFliUiY+U/8cXDfHlcBUaBEQj/NAALMsxBnprpsFu3mY0MvVA5ua78OHicGR+exFd+lzAutUdkHvaU3xn6Y8peS7ieERZPM/WCrt6F0FYSAj2TeiGXise4ajXKbRp+Q9enhquslvq6ePDtfnYaj4YY6rE3dw5hwNDquPDc0fUHLwMJX/6VYSZPTqyCjfWjP5i2IYmZqj5+zIUq98p0TsQ/OwZbhUrBssGDWBRvbqob2BlhRfjxiE6NBQ527eHaUmeuACDbNnwcuJEYZfO0bo1spQpIz7XNzPDyylTEB0Sgny//QYjKxXAifD3x5tly1Bi/Xrk/fXXRMeirHBpUX88ZdIfhdqe4KDlosuwKmyXpLbSqjLvyfHxTeDpdDnRLpvNOyP8E7RRJECgj0HiZrOk90htQ5nDhzMMQFA6LdOpkdpAHUDQAYSkP9npe4UOIKSB/A2jI5Ep1A/Rbx6I3A0ECjQrMAqCgIGaB+XJQy6g1ChIZsaEh6kECGHY+3NR5J7xAPZThqgAQo5AjPq+EDrtew7D839i9vv22D20DDrm+w55Fm7DgrLOyNpiJW46X0U5x8XYatgG3SoVwoWVo/Ck/jS87F0U1dbfQ2uzx/hlqQtmNX8bL0Dg+HxfPRan06q9psfxGv/o+Rw31oyC+221NMXMKpm/OEo1H4BSTftA3yAuGZOcMwHCbTs7VHv5EsZ58sSK4tnIkXi9cCEq378Ps3LlxOdRoaEqbcP796BXu1Wjz57Y9uXKQc/ICJUdHGLbeHfoEB62apUkgODz5BbOz+2BAJ9XcW5L3rK1UG/MZphaJd2EkgaPYWwXDAPcP7gaArzdEuyWZpG85evCruXvsK7SUJhJUlJiAYKGjWTie2FhAfodBGmYxyC9AYJ8XzlFaRqkBpHRSK1bt9YBBMW912kQNHwR0rmaDiCk6Q2IRpaQ9wjzeQmv508EixiBAiMhGK1AoKAkXuL31CLw84TLJ+xZtxEeQaoaeWp3R6dKVrh76hSsajVCIXH098OmVZvhn70MhnZsIOq5XViJ4NI9UDJXGI7tuIKmXVqKz//dth6v3wUiZ+Hv0LUVT+v+2LJ6E3xDzdGyT2/k9L0FZ6PyqJw7aXkX6EHv6XQFd7fPhNeDK19MxzxPERT7oQtKtxgoPOyVRWgQbG2Fg5t5pUoqIBASAtchQxDq7o5CU6bEqq1p237088/Clm09ejQsf/jsif2ke3cRdlhs+XIYMt01gMCHD/F81CiNAILH/QugKUXdIZORAZW7TULplr/BMJnRGgMGDBAmqKJFi6JVq1ZibCR9IYgkc6e2S7CfD8iGGfoxJvzlKx2YWORA9qIVYdfyN1hXbZysoWgKEPINHAijXLkQ+OABQp4/h0WtWjD//nt4rFolohq+VtITIEj/AwnupVaQvkTXrl1Dr169NAQIgdgxazxueCtmal0FS0Z1B8KDMXnyZPgHhcG68k8Y1YPRHVG4vv5P7HSKSdpmaY0lU0d9vvjdIwydvkb8X6nrZPT8XvVuhfm+wugpC8Tf37UdhJ/rKrK7friF/fezok19lVYuNYoOIKSGVLXfpg4gaF+mGrWYK8wL/i8fiSgImiaYe8HW1lYQKcncDgmFTCbul6DRENKt0rMLu8RGS/u9etE3NBaESgQLJBgyNs0KaWIwLVUKesZapm3W0xOx+cWWLo3XxBAZHgpPx0t4cHA53jic/mK8ecrURK0hq2CRv1iK5PnXX38J/ousWbOKfB8EB3w2Bg0ahCdPnuDx48dwcHAQYbDz5s3D27dvRXrx5ilwyvvk9VKQOYX4v4sz9hj6hi/mU/+PLbCp0158/vLaQTjuWQALa1tY5CsGOjTKUrhGS5Bum+X1nTPCiTXglj0+jv+6g2SBESMQ/v49qD1gpIP7rFnI3qoVXkyciDy9euHZsGEI/Up68/QECHLuUhNIoEC/pLNnzwqNYadOnTQECDEtRXxC8zytsMztHIpkAcI/eWN0n05ov/oYamUzxd39SzDrZDD2rB6FDa0LoPgCV9Qpaoa3rifRqMsBXL2+Cnped/D7mDWYsH0NbBCBPSP7wrFCT0zvXh2r+jZH7XWnQQPc9F++g0XPwxhSPyZqxW0zRuzLi4XDv+RBSNFDrrhYBxC0JcnUbUcHEFJXvom2XiTcHa6PnODj7SXCIXlipEaBGwW1B5KcRemPoFRlauankOgw0qUCN5mb68chwMdNRSqkVhgJYNdyEIqU/hGPa/6I3D16wMBcM6rYpEzIY/VqEW8vfRAYuhns/xau53aIpFRREV/muTCxyCkiFGx/UpDaJKVTtbrz589H06ZNYWFhIcJgV61aJbgw6NR66tQpLFy4UIS/kmTr2LFjwqZ9+/ZtASRSUjwfXAFTIEeGqlRQhiZZ8NOMw3A+vgGv75wFNQ3Sx6LDOidkzVdU1Lu6fDCeHN8Qb9cd1j8QibtYjo1rAk/HizDxjUSB61/JF2JggAJDh4r7W3jKFESFhwuAUOjPP4WfyL06dVB6927cLlUq3meFfWUEgCBzCxAgMFnbhQsXUK5cOcGVkiQfBDWA4HxmGf7JNBgzan8W+YmZAxE9ehk8On4GCPz27tJmMOu6B3dntkPmQcfRQoFdf67bB+PPLsD+Hs3RdtI6FC9hCyMDvbj3MQYgzOxtgyHNGuKqnwkWbDuDJnYW2DBhABYcvgP9qEBsPeOMCgWSx2+iAwgpeWvT7lodQEg7WSfcU3QULD65w/fFA5DWlYW8CkWKFBFAQZ5KpOaAi49ciL5lgMB50mku8P0bEQng6/YoXhkZBUWj0IWEQyjVLzJmrPxXTprxdUInRYs2zUSmSmo4SHREs4h6oYaj+sAFKPFjD63G2W/btg0///yz6I6MmuPGjRMAgUBgy5YtWL58uXgmDhw4ILQI5NFg0cb9f3FlH87N7ibaazLrGPKVV/FVREVGIDI0GK4XduHtk5uorciIeHBYLbx7eife+9Vt52tkMlc5gV6Y30vIMzGAwPBH49y5halI+B5ERcHvwgVkizERvT1wANYjR8K5d2/hgBpfyQgAQZlbwJ7kUHfvCuBHDWFKAMLlNWPg3GgeYpiWxfQdj0zFP6YTUHJpXIDwdmd/HKs+C879BqLZ9t2oqbDYre5QB7lmXEIrm1DcmlML9Wc9gF79UQg+psjOGgMQCjr/i8rLVqGWXihKFxuOszdaY95sPyxe0hnRUeEIjzKAsWHyGCp1ACEjbDyJj0EHEBKXUZrVMIiKgHXgU8GBQK4EpkAtX768AAosSu9vggZlOGSaDTKVOoqKisTHN65wu34YjnsXxOHTNwyMQuGLiSejsh47VkQzeK5bh0AnJ1jWrSvi5Z/275/oqH2/s8L7HPFvPLw4k5kVqvSaJswfJjGbX6KNJqHCrl27xP3Nnz+/iHLZtGkTypYtK6i5ya3h7OyMP/74A8w0ePXqVfE/ab5ZJ6UlOjpKECk9OLAc7VY5JAp8uAm6XT8E78c3RUZPRq4owzy77XyDTOaM0IfIqPjw0ErkNCmErHsfJjhUk6JFRWSJjDoRwJHOpzEkSUGPHyMyJET4JiCCiYy+LOkNEJSaPZoVLl68CE9PT8GQSqCfEoDw+OQS7DQfiqmKoJIzC4YjdNB8eHWOCxCO/1EcNqPuwWFaB2QdfgzNVcocUfo26IchJ9airIJHzfPqGkzYkwkbF8cwOMYAhAJ+59Fx6mwUiApH1xItMPnuCRg8uwz724ewcsttjNyyF62L5EjW46cDCMkSW5pfpAMIaS7yxDvMqReAqLcv8PzJQ7FpMI88fRNYpHc0/07IRyHxHjJ2DfLaezpewPPL/+LV9SOI8PRJFCAUGDlSOC7qGxsjwtcXTAyUs2NHeKxcicLTp+Nh27aCnCeh4l3WCJ+s4zqDxvpD1OuEvBXqJ9sBMaXSPnjwoGDWrF69ukjylRqF2oIA71fImk+xm2ixo8ScFA2zZUOe3r2Rp08fZClZMo6JgWDhQYsWKDBqFBwbNMiQJgYlSRLfWYK6M2fOiIRs9erVE/laUgIQwv3eYGCrDuh76Cy+t8iMhyfXY8a/7tixdlIcH4QPL8+jSetNOGe/GXh1Bf3HbMOsvatQEJE4On0kLudrhjk/l8PQ5m3Qcdc1oV14tHc8VrnVw7KRMT4HMQChXvh+nC01Fgsb6cOmySY8/KcRdt0yxq9tKiLUfQMmXauNeZ0Uzo1JeF50ACEJwkrHqjqAkI7CT6zrnL6P8fDOLcG2WKdOnVi+BOmbwOu1oWJObBzp/f2bMwfg2rBNgsMwtLJCsSVLEPjoEWxmzRK8Bn4XL8Ju714RpfCoUyfB2hdgb58oQCDlsFUhO+Sv3BBFardDZovknZDSW2YZrf/EAALHW3L7dsGUaDN3LkyKFBE+CAUnTYLn6tXwPX9eUCx/vPJlBIyca3prEDgOafojMyp9R+h/QN8RRiIlCSBEhmDB7wvRY/F45JQBQ+GBGDx4CHwDQlG4RhvM+K0dqZlwYdEQrHfwF2LIkq8k1syb+Pn2e99Ht5Hzxf/V+y3EoDoqOuvQ98/x69DJ4u+8tbtjfn9FdMq7y9h22xI/N7HBlrH9ccrTCHOXrEJ+SxOc2DgVW889hYFRaSxfOx7myWR01wGEjPaGxj8eHUDI4PfJ4NEpQeVMgECgQLMCzQtKcJAaxDMZSSwyiiGhMeXs0gVG2bKh8NSpogpZ9RgSZ/v33+L/By1bgpTK3HwSKqYDOsD2z7nImkdlzkmtwiyALFwgWXjylDk7+L/UCvFvfk7HVZa+ffti3bp1WLp0Kbp27SqcF0npLcm2WIeb09dDYlNrVom3qwlAYPRC6T178GLsWBHJwOgS8lbQ7GCcL58gwPpaSW+AoAx1fPDgAW7evCk0PjY2NgLIJwkgJC7Sb7qGDiB8G7dPBxAy+H0yC3mHl9ePi42EeRzIm2Bubi6AgtJjWtIyczr/NcCQGEDIXLw4DLJmRY6Y7H4fb95EyMuXyNVJxdLI02emfPngs+NzGmD1254cJsXkPDrqAIEJupgVdMmSJbC0tMQvv/wiNn1GMowaNUr8zciFH3/8UTi70T+hX79+Igvo3r170aNHD9SsWVOkBQ8ODgbTCtMkldGKJgBBjNnQEHl790aB4cPhOmyY8Eugs2KY52cq64Tmlp4AQQkOCOwYYUJfohYtWsDKykq8kzqA8PnO6QBCRntD4x+PDiB8A/epoP9D4ZTm6+sLU1NTwb7IU0nu3Llj8zVIrQKBA0+hGfUkmRxxJwYQmNyHSXqomjbKnj2OiYH2a4bGFZo8GU+6qTz14yvpARDobOjm5iY0AiTSoYMioxfI288T5+zZs0WYHJN8EUBQZT1kyBDBjUBNAiMbCBwYIsmsoAQQ/I7RDxmtSIBgVqlSLOultsYY4u4Ov7NnM0SYI4EC+Q8uXbokNH28P3xndRqEuHdbBxC09fSnbjs6gJC68tVa65YRfvj40R/RHo9F5kc6PZF9keRKuRRpcrkQyQiH/4omITGAQCHbzJsH3zNnUO7kyTgAwWPdOoS+egX/ixfhfznh/APpARBIfHTjxg2xqdOEULhwYZHym9Erv//+OyZOnIh79+4JwLdixQoBEAgWhg8fLsDDmjVrULt2bQEU6MRIgNC/f/8MDRDIZZGra1etvReyocdduqDkli3pmotBhjgy78qJEydEiGq1atWEtk8rACEqDAfXHkLdX9vDUs32f3nvERRt1hz5MidDtHfXov12K+ydryLBSqjcWdsXPbZE48iV9SgYEYKSlcbgiuNS5EIwVnYujWFh0xC0rzsM4Yr2P47Djn3L0L/17yjWvAZMPF3x3PoHLB+i6kMHEJJxn9LhEh1ASAehp6TL7PrBiPT3QeCbp4Jpj0CBJ09S9BIoKFND/z8BhKzVqyN769bw2boVZFz0v3JFhDzS98Dqp5/wmBwDUVHprkGgOYFpvlkYpvj+/Xu8fPlSaAaYLpyaApoVWrZsKUIdeU8bNGgA2rQ/fPgg4ukbNmwo7NskTCLHP4m1mOOjVKlSYLjkr0lMOpWS51HTa6UGQS9TJmQuVgx6+vqC9jroyRNV6ucsWWBibS18Dvh5oKOjaJq0y+RHEIWfM8yRGjIrK2TKnz+2e35e5tChdAUIHAzBHJMznTt3TkSdlJHJwqQPwq5tOP/vfniGRyJ7kfJoXN0O4cHe2H/wLCKi8qJF1/oIfvoA3iGv4eQE5ChdDI0qFENEgA8OnHJDdnxE1ZYNEOLmgFM3nWFS8ge0rZQH985dQf6atZD50zMcOnUTKFQNXWva0BsRR/89CbowFqrWEjVtzGJlFhH2Cvv3XkEB/WdY4FAKe+e3xqOTu3HvPVCqRmNULByX8rxdw1/xQ+NIuJT4C0taWGJ09SJovuM56uZ0Rtc2G5D/wSkMf+oIq0dr0fqfTNg0ICtGPGyM7R1V5GabFk9Bi2FTwFZ1AEHTNyd96+kAQvrKP0W9F43ygLPjXbx76yNMCoyJ54+MciBAUOeG/xZBgyYaBArSOG9e2O3fD7fp0xHh54cSa9eCLIkeMRvy14SdVhqEFN3wb/hiArZ7tWsLlkSyI8ryuFs3+OzcKRJomZUvH/u5y4AB8FyzBhWuXoVFDVXwPxM3MRFXuLc3yp44AavGnz3vb5cujSJz5iBHS1VOkfQq9Aui1ocaHVJhUyskQ5Ppg7Bk3lLs/pgFw8pnxc4pvRDd4W/c6FcCk089QOT1WZjlUhdt9bZhwNs+eDS5Gn5qMwKb9i7ExwvLMOVNIwSO/g2LXNZhaJ/ZOLxnDiZXbYmRV65idvMOaLllMdb80gObT57Cv7+WQWi/04jYPRvZxqxAixyhGPJDHfTbexNlcjL4wRsds1bBYs/nuDCyBfZZ9sG8lh/Q9JIdnkyoiS5dBmHuphUoKCMogk6gzYjn2Px7XtTudxf3r02Dx85e2JRlJDqbnMbCT10w7F1vfGi8HTg2GNftlmBohSDYVm0Ak/ojsHt4PVjmLYzcWVUN6gBCej2hSetXBxCSJq8MV1svOgpWod5443RD+CiQ0pUnSQkO1AGC6iCmRq2a4RNTujYAACAASURBVGYVd0CaAoTYq3g6leUrWgNlLzqAkLoPgffOnXjSpYsABwQJsjj36wfvv/9GtdevP2sKyBLYpAl8T5xApVu3YF61aixAuFGwIMI8PGB34AByxCS14pf0M2Ea7/yDB6fuRL7SOoEAszdSe8AIE/ofkCBJCRA2rZyHwiXLIaT+ZHzaq0qDrq+fCVmyMMdIFHLW7Y9NzQzg3Hg++toA+4bXx8cu/yJ83wDUn7YRI61bYdHedph0Oj+2TVMl9WIZ27ADWs78BWO3h+LS4rbA8/UYfaI4+lpfQcWuc5B90CG8mvOZQyPI3R55et3EuzODYPjmMEYuDkWVkOnou+k5mLczPCQY8895Y3BtlRbh6rRycG14DD2rmWLwj3Ww7CwJq85jyqIQlA28jtyTpqFa+AEM3mwD69Nb0GLXXyhroIrSCQoMQFT0QzQvMwHb3M6CWTt0ACHdHtMkdawDCEkSV8atnCPiPdzvXISfn584udDkoEzqJO2j3xo4oMQFQChRQrWxaLjha3qnoiMi4L5wYYLJmjRtR1fv6xIIuH9faBBIiCTZEXkFoxOYopvaH31TUyAyUtAs02+EhSYGA37Owg3Y3V08A8rPmbchxNUVuXv2RKHx49PtVvAdo6mHjqU0BfE9lGGr6j4Ir+/bY9P86Sgy+SCGtuqL1w/WwSQmo/alVWPw9Kd5+JURt5/OYey4M/jwOhPW7h2JVvlbYdG5AZixIRgbF/b4AiAMnOaA+0cmA9enYbxbE8zqTHAVjscXLmJml9/xx4MnKJsdiPR5AIsq2+HzahZMH27Gz5uyoLvlv/DrtQOd88UVYVRECGoV7oQRW4eDrCDPzq3BqxY7MLUq0GncXJTSc8GUWRsQFRmGKmP3oFJmd6yfNhYvL26EQ7HeaBdjCdo/bTBCei1DF2sdQEi3hzSJHesAQhIFlpGrZwvxwqs7l0T4I0PfyJsgiwQIynwOGXkuyrEpNQgW9eoJtsQQNzcEOzuLapkKFIBp6dLib6Z/Ji2v2Fxy5ozdjJg6ONjVVXxuYGaGrDFq608ODoh4/16jdM/firwy6jifjRkD/0uXREiqNkvkx48iy2fJTZuQ2SZ1mCCV45W5UfgZ/1amaSe9Mn2DyFtCkCDfNwkQ1q9chX5zZsNaTw9hYdkwdNYEuG0bjq2PomH13hsFukxApVdbPgMEAEObFIDxb/aY38RMBRCeH8TBWSPwJjQzHngBe9YvwMwWXdBy5z9w3zQGtz2N8OCVP5YuW4IPpzdg+b1XyBMdjWCD0pgx41dkEwlRg3Fo1u849doMWT8+g0veX/D3qOLo3mEkbL6rAJ/g7JgzfxwKmPKd2oNG6y1xcWpDIQZf1/PI0+UkPlyfg42DW8Leshs2z+4oknrN6FYdoY0WY3rP6gjx98SfPdojwKY6MhsEITp3NSwYrQI1Og2CNt+A1GtLBxBST7bp0nKuUE88vn5WOC+S4pUUzcoEMnJQ35ImQQCEkiVR9siRWLszT5lPuneHz/btKH/hgsi7wMLTKO3U3PTpj5CjdevY+3DL1lZkBqx0+7ZwiGN5f+wYHjRrpgMI6fK0fpudEhRIE54yJwrplY8ePSqiUGheIHCQ75lWohi+TXHFO2odQPg2bqYOIHwb9ylJo8z69hGc794QIZDfMzueoWEckPAtgQNOPMjFBfZly+L7Z8+EtoCFoMelb194bdggNnzzKlVUACEsDDcKFED427ewO3gwjtPabXqUk3Dq/n3oGaryLvhduYL7tWvDdssW5OnePUly1lX+/5OAMucCZ68kKKNzoqOjowht5LunNOvpAELcZ0UHEL6Nd0cHEL6N+5SkUdJxEQ9PiRA6xsaToY9mB0nbm6TGMkDlT3fu4GG7dgj38YH16NHQNzERvPxvli4VG76JjQ3y9u0rRhr56RNezZ0rbNk0O+SO2fTF57Nni/qmdnbIHUOaxJwN5PfP8+uvKLZ4cSrM9iaGjnTEkgWq8bHcWjwA3f/cAbPKvXHg3CKodBmA89W/0aXpMLzP1RSnHv0DWyMViHl6fCmqdJ4k/l640x6/Niked5wOK2Hxw7gvxj557z2MbBiXOnrTyDY4VepPbO9TIRXmmrImGcZJ1sGMXPgeschMqvQxYKFT4smTJwU9Nt85JmmSmgZZX8ek+PnO6gBCRn7KP49NBxC+jfuU5FGavnuC53evizjsypUrx9pK2dC3pkFglkb78uUFffLXMjImWUi8QF8fhhYWqHz/fqzZIVntxHPRm1v70Lh1d1i2nocrKwfFoIPZyPyzPTYsGIT3R1dh3qMieHlxHgye7ETOltMxa+4yWLofQZf5p/HisROi7y5A3a7/YNY/C5EbHujbcQR+23oFI39SZNG7tQil/nyMFaM7xxmFTflqKJw9xsEv5pu1gxrhmN1sHPitsrammax2yPvANMj0+OfGyaRGzFrZKiYygRvx27dvBbV4QmXbtm34mfwWaVgICGRUAt8jCRBcXFxw5coVYVvnXOR7Jk0R/w9J1ZJzG+IzfyanHXnN1q1bReQIeUR0JeUS0AGElMswQ7ZgGhWMT45nRdrZNm3aCJ8EJV/8t7ZgMQY+gKyCISFalXdkUBBMbW1hUrBgstsNePsQ03Z/wMxBtSEJ7jwe/ot2Y49iaudcmHbVOhYguC6ri+W5l2Nxx7LA6+swrdoDvu7OOD+xBg4UmInVvzcAIgMw1C4HGux9Cdu3N/DAuBzakfQGwM0F9bE2ahw2jI5JzcsPby3C96vDcHPjH/HOIfDVPcxctQtWxRrA8M48XJAA4YMrZi1ZC79MBVCvhCl8CrbFL99ZAR9fY8OmLXB+HYra7bqj6ffFROibtgqJhKiKJ8kTQUCnTp0EUGCOiSJFigjiJ57CmbciKCgId+/eFSf2YcOGYcaMGbCwsBBROvv370eTJk3E852WzzPfI/WkWqRWpnMiAQ61IPxeggPWJx22rnwpgTFjxmhVLDqAoFVxQgcQtCvPDNVatg9P8Mj+miBPYspZLrLqUQzy/285DDK9he7vcRv9Vr3F1ulNYwFC7JiuzUatrVk/axC8TqDUj2sxaGQn+N7ejZP+9XBx62AsqG0H46lHMaxBYXHpqcFZcK/9XYyp+1lT4HXnAmr3GYs1e8/iB5ssn6d9axGK/XEbMwd8josHsuLHNk1g7HUFFYv9CJuWLWDi74l7dx6j0vRT2NMzF2rlKwHD2o2RKzoAZ4+dRf11z3GwTxH0+t4ad8zLoWT2zHh19yYm7n+AZnYWWhMzWSEZDvjTTz+JvAW1atXC/fv3RfIpahN4+mM+CdIVHzlyRCSw4umcyavGjx+PefPmibEwiRX/T8siNQbsU2riAgICcPbsWWHGa9asmWDCVGrppMYhsXEqw5ITq5vQ98oTufoYlGNObvsZ/TodQNDuHdIBBO3KM0O1lhXB8Hc8D09PT0GgxEyALPK0JRc7ybyoVJ1mqImoDYYLMe27MtUxuR/oZyELNx1mvEyr4uN8ELl7v0Dw1WEwUe9UDSAEvT2PstV/QVS0IaJDP8Gu4yocWtAWC2qX+SpA+PjKAbkrNMMO+8dobZMtbi+3FsHkxxnIn/OzDIDi2H/nBD5s7Y1+3r3hMq2WuGZ69+/hUH0l1pTaj5I7K8N3TRvx+ZHpzbAu73IcbHAWVj0dcfvvoeLzYL97qLHQH37bekNBP5Vi0TKXBPNNkHGQnv/Tp08XuSU6d+4s8kmQZpoAgcCAmS1ZqAVjHgoCAxYmrKJWgcmQ0spsFp+TIp8/ch/Qx4e02Ey2pXRe/NrGrATmMjursn5CEUjqQEAZxizfa+knwfakP4TysxTfxAzYgA4gaPem6ACCduWZ4VozCg+E19X9AhTUqFFDZIKURS4qEjB8CxwJzGXATYKZLDnetWvXxmY7lAshN55Vq1YleC9oduHGRHloo9xd1RkDPk3GjTGl8QVHZRyA8AlDzazQ4tZrNCidG9ER7zGycgn8eMMTn4ZWx8MfN2B6RzoPhmF1Q0uYzXVGt0oqF8azf36HjaWOY1vnuPz44suvmBgurOiNpZknY19vlWbi4MQu+DvfKCw3X4hxBgvxT1dVnoPLa/riL4PxKoBg0xe+SsEYdIdXxBbEZETQhsjARFWnT58WJoWOHTuKDXXPnj149eoVfvvtN/E/AUL9+vWxcuVK5MyZU+SYuHz5MpgFk8mtaH7YuXMnRo8enWYAQWZNlaCavz9+/ChMJDK0mMBVmiE4j6+ZP5QbvTRbSKDO38qQSgkclL4P6lqC+DSESsCRVkBKKw9JMhrRAYRkCO0rl+gAgnblmSFbMwz9iLc3jwgTAzdFJnf6VhcNbgy051JjsH79eqGmnjt3rtAm8CTJ0yY3jIULFwrwQPs1syJyzgQWdGAigdQ///wjTqA0v6SkXNswCr2mf8LVF6uRIz4K6zgAIRhzKmTFnYZbsHF+FwQ/OoaqP/bFlRduMD83HsWnueH60V2wfHUAJau2xTn3UJTNo/JqeO96G59yV0Jh83i8Ab4CEJ6dX4uKQ3bBwf4ErF7eQpO6TZBv8nlsbvoG+WqPx/FbV1Ah0gM/16kN/fH2OPjzB1SoOB7z9u1Bo9JZ4XJuDoberIzj41QkOWlRGBHAezVp0qSvOimmxVjU+5BOilJDwHeKGgSaGKi1InuisbFgIor1Q0jMP0IddCgBgtzQ2S9/2J/6Ji9BhBLoK99v/v0tgH9t3E8dQNCGFD+3oQMI2pVnhm2tQIArHB1uioyBJFCSKnl1FWZGP2FQO8D0xix0DONmP3PmTCxYsAAbN24UamueOgkOqEX44YcfsGHDBpFZj+Q1NLMwnG7Hjh1IsYOU1ylUrrsYB28fQ4GEyAHVfRB8HdCrY29sOuOILDkKYMDolZg3ugX09YDVExti4swzCDQrhd927MOC5iVjn6fTE2riTodT+KOCwvdAfntrEfS+H/HFs9dz5jFsGlUNa0YNwpBVu2Bp0wAtSgXjXaPFODCgLPZOG44+c1fCP1N+1K2SDxaddwkfhAtrp6H/tIVweeOPYrXaY93WTahXKJ5+M+zTnnoDU6ry5bvCHCgECHROpD8FAYLSxPC1d4qbPk0L5CrhBq/0ceDnNJcRABB8SNOFnF18Wgol2JD1Mvo7rc27pQMI2pQmdE6K2hVnxm4t86tbePbYSXh+M3xM00UsI82K6mc6pnH806ZNE+poag2oMSBAGDhwoAAITJtML/eePXuKBZsgoUWLFiKRFfkhNm/eLDQLKSn+V5bCbvApXDu9GwVzmOLmkj74zakMHNYPS0mzaXJtWJAbjlzzRtN638Ek8hPWTuiIO3U2Y3XLXGnS/7fcifqJnc8TAQKjKwi+pYlB6XSY0CYtzQjy9M961Eg8ffpUANnAwEABGqgdy5Ejh0j/TaZGggWCCqlRUAIXdW2B0iSRmDbjW74vHLsOIGj3Duo0CNqVZ8Zu7bUTfJzvCIDAheZbLN7e3hg8eDDCwsKEQxt/pkyZAobO5cuXT2gTCBCoXaADG09gdBzr2rUrunXrJhZxOsgxxI51qVlISfmzXT7MPuyJ8HDANEdu7LvsgsYltZtrICXjS+jaUH9PlLMrCdc3HxFlYIDslZri3a1DqdFVom1yQ6MdX25svEeyeHl5CfIh5jXICEVdg8DNl5s4czBwQ6fJi/TmLJoCBNaVYZH8zYgOhngSAND3ggD33bt3IlMkAQGdIWkq43cEytQKSspnAgmpwYjPWfG/rk3QAQTtviU6gKBdeWbo1izdr4uTCUOx5CKmHLA2wqzSWwB0FqMH/JYtW9JkKFGR4fgUQDUwYJTFHOaZJBNCmnSfgk6iER4ShICgUETr68PULCtMDLUZp6DZ0Bhh07x5czx58iR2Q6VZ6PDhw6IBknzRMZWbb2qUrz3z8X2n3Mh5GpdauEePHuH69eux0ULx0ZvH156MipAbtwQbwcHBwiQmo3EIAKipYHgouSMIqOirIU0KEgxQe0FHZJreCCDoOMmiBAapEf6ojMaQ90k90iKh+xfftcm512yH5Fk6oqTkSC/+a3QAQXuyzPAtZXW7KhZbahAkpe1/7URBuy3n9F8P58rwD5uGA3RzcxO8BzQFcWOjA+qtW7ewevVqEe5IZkJqh6h25wZJCmMZ3qphFwlWkzZ8GZHA50b6A8iNW27qso7M3igblQCBp3tSLTOyolGjRuL94nfyZK/cBGWb6uCAbXLzP3bsmCCCYkZW5XMsx0swQA0a5eHj4yPGzHocA4EDfSL4PTUx9LmhXKlZYFH6KMj5SjOFnIuSBEpdePGtFxKcKDNb8jo5P8pOyk9+LkGLlIt0wFSXU3ygSo5Bjlep1aFvkQ4gpPTN+Hy9DiBoT5YZviXTZxfx5s0bARCkk+J/DSCk5U1wvbgDt1EVXeoW0063gYFAliwI8nXBrF1e+HNAnS+Jl7TTU4ZpRX0zGjt2rHA45SbZsGFDARB4OuffDG/kJvTHH39ohSApvo2a5gye/mW0AgUlNQXSlq+040uNAusxdNbe3l5oPUi3rAQAEiio8xGo15EAwc7OTiRai+/9VG686lwm1CrQHEHTDMEXQ3oZwcNwUpojCLCULI9KPyTOQdme+gYsZaG+yStzTqhrDSQwkH2qO2KyvhI8yLblvJUATXlP+L38UYIInYlBu6+2DiBoV54ZujVj57PixEETA1G2rqRMAmfndsY69MXOPxqkrKGYq4fX6Ixfru2Ejc9d9Fnshi2zWiOTVlrO+I1QW0CzAk0O3bt3jzURESCQeZEOqNzoSKvMQlpjbZBhcXOTm5bccOQmpbThK4GA8gQr6/Az5mO4efMmSpQogQoVKghfAZ7OlZEJ/JsghO8h58rvCxQoIOZC3wH6zJAfghoIOjzKkEl5B5WnZSXBmdy8lZslwcazZ8+EBobAgfKjZoLmBzkujjs+x0UJQtRP+spNWQkGlEBAaXpRjls5NiU4i2+jl9dJLYyUOe8XfyhH/qYsOTf+UHb039BpELT3vusAgvZkmeFbMnh0SqhqqUHQxuKaVhOmCpW213Xr1gnVKU9B3FDy5MnzxRC4SFSpUkVENtAxkTZdLrg8fbLwZEeVttIRLrnziAMQwoPg7fkWwVHRMLfKjexZVbZfRITgjacXIqONkStfPpioEjTC78Mb+H0Mh75BZuQpkAvhHzzRpkYLDD97FI3yWMD9bRgK5rWAfmQYPrz1wceQCBibZUNuKwsY6Efinac3zLNlhqeXPzKb50JukZQpCgFvvfAuMAxGRpmRK09uGGkziUJyBaXBdUzUxHtMIEAHPZIjMSJFaWJgM4xEIf3y8ePHhUNgSgo3KW4y/K3MzsjnjfTJjBaQm52S5VD91C41C2R9pI8PN3Vu8Bw7nYHZvgQFL1++FGYE+hjIvlmfWgtubBwHT/98xumLwTEoN1O5YasDBuVGrtyIOW5qEejjQQDD954mEP6OTzuh1BooT/dK1b86E6t630rQpNS+yDFLTYD8ToIvOW4lKJDgjfOgXJydncUaJnkh5LgkWKAsdQAhJW9F3Gt1AEF7sszwLUXdPyo2WC4Q9Hz+VgpPQMWLFxeLAsfNTZ+nM0YqVKtWLc40qH4mVz9NKYxqIJkSyZV4SuPCwmt5wuOCmdISCxCGlUOzvMVw2u8jwqMBkyyVcSHAHt8DGF6nDJZdeYgoGKJMjdm4d2UUvA6MRLEuSxAcEgk9PWM0WHoP/R52R8fVDkCx+nh/egzy/uwIv6tjsHVwCwxZcwwh4VEwzGSK+afvY1htS/xSMg8OeBnD3z8YRibm2Hb9FergAop93x4BYZEwMDBCu3H/YNf0TimdZqpez+dReUpmDgYmb2IWUicnpzgAgZsBwS1t/Y8fPxZJnZJblKp9pcqeGw1NBSTYou2eJ25u8gwrlNoG5YYoTST8jsCFwIIsn3z+CELpKEifAP4QJHCu3Jz5bFLlz+s9PDyERoH+C3LD44ZI0iWe9tVBgfqclXOR3/F6bq4y/wr7uX37tpAbZcgxSmCTEOhQnuyVfUpgIVNf8zuaNTgH6SvCuXKjZj8ES/SBoAw5f/5wzPH5HShly7/pU0FNC4EB+5BASj4z/E1HTPqlUN70X9EBhOS+FV9epwMI2pNlhm6pgMEnPLt5VrxIVF1K7+YMPeiYwXHR5cJWrFgxMW46sk2ePBl//fUXRo4cGTsFLsJSDU1vZhYuvryeCz0XL57q+JunKhZXV1csWrRInFrJkcCwRwIKTYoECAubeiB/p6vwcFiGvJmjcWLpcAw5WhrOJ8siX53tuHd0GSz0fHDtzkvUq10TbreuwMsgH0K9H+OfzYOx8dVABN0YjS5la2Cq0zVYvzwRAxBaon6x3lh84QSqFTDDu8dHUb7Jbti/XIRxtmVR5chDDCpuhXG1SsJg8C601d+F+mNe49j2QShbNA/uvQ5B3Uq2mkwl3epwQW/Xrh3q1Kkjnk36HjCUlWRYgwYNEveLQIHpoemUx/vKvCJSI5SSgSvV9WyH//O5oMaJGxw3WKquqakiARJP9fIapd2cdak54AbMcEw6F1JTQJBBIMtNjc8ttQEEBuQzkBwG7FepMqejIfskkGU9aQpU+gqo+w0oT/dyHkq5yI2Ym+yNGzeE/CS4UmoR1PuQY+NvqWFRmhVkX3R8ZrscOwE87yPrE/wR9Eiwws/p+8S+lcBHXZPB8fJdphmJfhSMYKHsKTtexwgsOR6lLwL/3r59uw4gpOSlULtWBxC0KMyM3JSVfjC87U+LBY4OX8rwJ3XP5ow6D6qhaVOlhzsXTibI4cIhy7///itOn1ycqTGQhfNjIiBqDbjBMGMg/6dKmyYHLmC8Ti5KtCNrUiRAmFryOHq/6I+rw4qLy/wfHIZdx714dagyaq/Mh6sL28dp7tJf/dFt2QnYVmmMombeWOtcC4HxAYRdNvjxdwdcPTA79vpqxWtixa2DWNa8IaZevQueL/cNrYkbVZdgRtMcGDnxD6xZuxfhkVZoOWwiti4airRLW6WJ1OLWYe6FESNG4N69e+I+cAMZMGCA+GHhb24SPIUSFJQvX16QYBUurMotkdIiVdVSlc1QRT5jVatWFWPhxs8fgkdurEptB6+lSYsbLx0peUKmYyE1DzIske+bZEEkWFBu5vGp1uV8lBux0mFPfp+Q86ISICijM9gewTLfGYJlzk9dQyCBBNvgveDJnZs0C+dN8K0060nNBU0rBAlsk6CGawsBEAED5UOAzh+CL4I89ivlpAwHJTAiGOB7SQ0MNQYEVXSw5P2mhkAZ1aGUgRyLDiCk9I2Ie70OIGhXnhm6NeMX1/H6uYsgDuLLrnS84sCVTloZcSI8RZKxjgCAWhBu8hIISJUs1ZzUNnDhkYUnPNpzudhRZUmtw4QJE0TyH9q8Fy9eLBI+sdAhjuptTUqsBqGZN/K3PwN3hzUokCUKRxYMxshzlfDkqB3y1fwbjqfXwFIvGJfOXkP9po1Rq0xeDN3zDJ1K6OP4tmFovroYAgRAqIRxt++guJfUILRGg+LdMPf0KdQunBXe9/ehQtsjuPfsL/xR80uAMLq6HuyDCuKnMjnh63AQTVoPwaTbbmieV5PZ/H/WkfZybjDcEM+cOSNOqrVr1xYbPk/B3FS5YTGPia2tSiPD+nzmeHKmbZ/PIcEmVeqySPW+fLfSU8JK7YhkfFSGN3Js0lzCTZzvAQEF3x3W4+ZNME4NG+cq63JDl4mq6B+iBDjqIIaAgdohmgYJXtgOwRTBBz//X3tXAqZT+b5vZhDZpiyJbElZspdSlmSnZE3Wn1+WRCikJPQjFVlbaI/Inm2ICVlHtvwx1klJsk/2sc74X/fhGa/TjO+b+c6Yb77znOtymZnvnPd73/s95zz3+zz387zUGJBEUJ9BYlC4cGHrPcWfvU1b1iwGZ+8yJQjO4unXrWU5ewD7Ni63VgE0mOZqxBQI+dsgTNEV+0YvAKsi0v3MXQF58KVD0kAvg/mikvQyGRPJEVeiDC1wdcqthvmvXr16iR72DQ1CaTQuXBzzDh9HTGxaZA0phgkR2/DcvUDfmuUxctmvuIJgPPxEN2xeMQqfN3wSPRaswWWkRZaQu3Emqg6Ox05E/3oFMX5PQRxZ+gbuu65BmNqrCbp9Mg/RF68g/Z050GfCMgxpkgf/iYcg9C51CMUrt0DU6WiAVfhqdMXRH0cnelxuuMAML4ix5z1EbwULN0mlURo5roKZYUEXOZ8bqSFCQsFwBFfN1AtIrQExnqbRjW/Ff7txprHnODhejlG0ANJPkmoSaBIiCinpzqe3gZ4UruYZDuI1fM44Zh70/DBzgB4Bhg5MD4kpeBSSxM9J4hmO4XfQ8PN7SQroYWGIht9LosVwRXxhj1vhpgTB2btKCYKzePp1a2kRi7Q7l1qrISr5ycztXgR/rNXOVRr3VeDeC3xJc3tgbg1MsSUFazzatm1rkQR6F8yDJZUpXOTKhys9vty46uFLnyWahw4dapVkpg6BWHADJ2obvDkuRZ/GBdyBrJnSAzGXEHXiNGKvpkHGzNmQOeN1D0bMZfxz8iRirgYhe8hd17IK4v7Gc7Pi/JlzuCtHCC6fP4Uz0bEICbkTJ05fQY6QTEgTe+Va1bzLMQjOkBXZs2RAmjSxOH3iFO7kygrAxbMncDk4MzLfEYwL587gTPRFBo2RLVt2pA+6/dURvcEupc8Rl7S41blypXeKXgNWMJRQgpBTeqVoIGkseS/x2eHKmUaO+gS6wCXTIT6j5g8EgWMhoaGHgM8Ox2I+7+w/x8hwiXhLzL0e+HcadpIDPkcMyTG8wGeydu3aN+maBIP4wgD8ThJ3Pod8JqlTIBGhR0E2rTKvs+99oQTh9j09ShBuH9Z+8U33nYywcrVZiIXpgJJqxM7xBeKPBIEvIbp8Gdvki4MvFIYB+IKmSpwvPL6gGSYYMmTITTjzZU6CwdWdlKal54A7PdJ9X7MTsQAAIABJREFU3KpVK8yZM8d6WfIFSbemeCX8YsK0E8mGgJm9QBL2888/WytaeplkwyUz/56iQ+oRaLDoYaAHgUaN3gMaNtOomTUU7B6wZBuQh4Z5f4eFhVnufCmaxBU7Qyp8Npi9QUEonyU+N/K8Sf85JmJArwEJEkMG/BvJBJ8bE095n5ieA/nZzJ6QlEdTdCgeDTnfvM4TdupB8IRQ4j5XgpA4vFL92eliL+L8ljAr1sdNjfhykJQjPrjexvpuJxB8scnLiz/z5UShpbh0SQqY2sjViL02Al9iXBUxVZIHiQWJkXkw5MAXP8fPIlLiPr2dY9Tvuv0IiOHj/7xPSDjpWWrYsKHlQaDxMkV0JJR0tVPLwvuJLnt6D5hdI8bRbgSFdKe0B4H9YPYOCQL7Tfc9SRGfd4oA+TM9iyQHrARJEbD0XcbGc5ldwQUGyRFJEs/n9abmR8IMZiEnM4RpJxJCGOLDyqyp4A2GShCcfY6UIDiLZ6poLc+Fv7BpRZgV7+MLjm5V+8PpL6sebwBlGIFxS6rb9VAEvEVADBnPp8qeIQYaIRZgYjxcVsFmSqO4zrkKp1HlfSd7Q5jxd+mDv2h72A9mGoSHh1s1RfiP/WdmD7MGaPwpsmS2Bom3SXhEUyHvCJIEEimKHfnuMMfKn+3ZE2a2hIm5kClp3wxLxHeeN/OqBMEblLw/RwmC91gFzJkZcAXp/ri2syNLwpYtWzZubPKQijZBWLs37D1gANKBuA4BrohJELgilnRG00iZqYap8VngWJhSynDdww8/bHnSOA56TlatWmWFHRgqYVaB3TibngQx6uYNYp5vD1PaSZPptZG24iNW3t6A9u/WNEdvkfPuPCUI3uEUcGcFXY3B2Q1zrRcEBUeMSdpXAiajT40vxYCbNB2Q4wiIwaK4lQSB5ID6HH/U4vgyeI6T3gKGB6gZYFhEQijM3BCxoYTuzBLT9v0gfOmH09fayYxu9+wswkoQnMUzVbWW+9w+bAn/2co1ZqhBXIt2Zm/GFFPVAB3urJIk3wAlEaUQ0B8OcaGL+5viPGpVqMbn8xBoc83xMrWXhaAk68JMQyR5oPiQtQ44T3wXkCSYImZ/mLeE+iDzqR4EZ2dJCYKzeKa61oL2rcdfu6/VvGe4ISEvAh9AfxQw3k7A+UKlqJMbRemROAS4eZY/EQTzPqf4UISs1LOY5Y0TN0r/Pdv0IEipZZMEMYuBYl2GGpjmSQGiPczov6O7Vq6ax5QpU7TUsoMTpQTBQTBTY1NZr5zGoY1hVqES5kZLgRh7rDDQXK5JmSu+UJkBwVxwOQ7v2Yjth7KietWiSAPgwNZ1OJyxMCo8kDMpX+F/11y9gvVh61Hi6Uq480ZxSqufO9duRO7yFXBXes/dJnb+RBB4f4s4jpkJVPezxj/7SNFhIHoQaPwZRqGXgBlMLAEt3kE+/6yRwEUACYJsTiV1EDzPcPKe4Uk0LZ+rSNHZeVCC4CyeqbK1AtGRWB++Jq7ELPOfzTrxUkwm0F6aiZ2s+AjC3CHP47UfsuC3TV9YRuXDNlWwvvgATH+zRmKbD+jz/ZEgiHFkJUDm91Okx5Q9CTsE2oTwOeZYGUpgBhPJLjMRiAM9CCtWrLDSGBlmYRqkP4UWTW+GPTxkZlxoiMHZu1YJgrN4psrW0lyNRaY/ru1lz53oZGtliUH604siJQFOiCAsyNUEb3RshsJpDmFM9+5Yk+clvF9+C5YU7olORYIwvlt3ZK9fCV/sLISlr1XEwXmvY+Fdr6DDk/cBl06gadH2OHDPH/jzanlsXfc1cuISvm32EN5cfR4Dp67DS1Xz49TfK1C6YgtcrP4WDk3sxsQ8fFDrAYzeBkxbuR1VHrgLq7/qiWb9p1kQrYg4hKJ3X0fr8hm0LlUWS0+eQ5lmffHj2J44e3wdypZ7DmcvP4XwQ9/j6HejsebYIgwfDjzStRXm9W+D6P0bUK7uDygXvBdDw6fjROhA1Ov5Oe5+aToiBlbGey90Ro1PPkOeP6fhkXo9gedG4dC4FsDJLahWrA52A2g4IhzjW14zuinpQbCvQPk76wGwpgFd6/SckSBI2l4gkmGOmXVEOF7WcSBJ4OZXLB1NLwpLLNMQU6jIAmQpFWIw50p+NqspmoTAzLqit0NFis6+IZUgOItnqm0te+xp/LE61BIlsd68FAuS1VRCBUt8SVFKbWAlRBB+Kdof6QqXxP/SjsHUX2Pww7HSeLfEaoQW7Y9XHwrGiNZtUerdtzGuRjdM370YA2u0RavQiSieiXWSo/BUtjwYvOcEiv0zG698eg6D6xzEt/k6YPCjOdChcQ/0m9wPb1bohG+3LMKhDauQpXRVbBzXC5H1+6H7Q3fgicpvYdbspnij40Z8O7snEP0nfv07E8pdD3McXjEMYQVfQtsCWfHntnW4miUETWsPwvKI7xActQCvvn8ALYttxvhs72FyixzoXKcdus2YgEsL/oeFBV7GpkYtMGLDAAwatBrffdULWxetwEM1a2FQveaoP+JVDHhtFpaGDcdf37bD5JyvI9+K73Df/z5A1Qwx2LRsKe5/ohZCMqYcQbDv2MgSv9yIiPn/LJXMkAI1OEWLFrWIjOzfEWgkQQw+vQUsHU1vAgscsZYD90fg35n+WLx48bg9EMwKh/Ksx0e25FkWg22vhWAuMuyZB7zWLPmeEO72v5vtsLoq6zowhEINCUvJ6+E7AkoQfMcwYFooeC4Sa9essjwIFDKZ29PKIE0tgpkGGTAg3GIgCRGEbZXGYs5HYeieZT5Kd26Id1fm/jdBGDERWRa8gmxtBqDfsDWY/dZz177JIgiNMOnESuTNuAOdqw9Fz/YhuNx0JEplTIePXmyPB7p2QYcW87Fvz2CIDGDah33wWO/h1nbPPZ5ohDahs3Fq/iAsjohEunSFUfu/3VHl/ms6iMvRJ/HhyNFYuSYSFStWRas2D6Fs/RF4rUVZcKeGbEUqosK5n7G71jB0KATsntgNM7N3RPD8N9Fp3Ey0z/csRkxvjP5heTFlSMM4hPrVbo76g9uj7/cXsHp0I2DfN+g9vwDeqpseYybNw6JFh1GnzrPoNagpsqaQB4FGRFafnD+mM1KQyEI/XCWz8iazFrg5EO93s2hPIN7TYojpPSEWLJ7EGhAUajLVuUqVKpaBlX0lRJxs4mjuUkmMTEMtRlwWFPK+MDVN8S06+P3En58xzMF9Hjhv/Jl9YX9J5KifsO+SySJXJHscBz9TguDcnasEwTksA6KlmG2L8c+xG0VThN3b053MbXJTSyqUrxOUIEF4ahqq/PAE2se8gr0dYtB8fm68V2E9PsvQFcOqpEefOs1Qa0IoHrmwHC2HTEKbzgPwQoX8BkG44UHo+80deLPqrxga1BlfNcz1Lw/CyV3hiM5dDnsm9sLqR4fg3crXPQg/9sXvuy+hUvkCQPRcdBuXBR/3urZjZ/RfW3EiV3HkzRCM6X1b49yzA/BRmxexcMdy3HNhP9b9HYRLqz+OIwjAb3itYVccCmmDKV82xnMkCHEehNcRGb4EeSvUxJBnXrA8CK93HYc1KybEeRCa5otFjtKlkP3qJbxa5GG0W7sbZXOnjAfBjFeTFHCFSUEeV8osCkRjwnk1NTeBej/T4IrBFkNOrwHDLCQKLKREoeYjjzxi6ZFkq2deY3phBC97VpPpTTQ9jrwH5fvsXghZZIholKSF6ZgMebC/ZjtyrV04SXJB8sD55FiUIPj6prtxvRIE57AMiJbuvXIEu9Ytt1yPVDpz3wPzBWp/0M2HPyAASKQHYfHozthZ6TP0zPklhu+sij6Ft6HzTznwWacSeO7+UlgXE4vWNV9EgxFDUDXrcVTNUgjfHj2DQtmvf9F1D8LZ0qdwIFdtHJo/DEiiBmH+e8+j09iVAMpiw96FyMcQBo/zJ1CyTDlEnb6ApzuNxqR3njc0CA9gwY6VuBw6BL9V7Y9W13nLiG51ENJxEf5bMhrty/0HAxOjQfjzZ+R5rCWAYPScvg59K9+bYhoEMSo0NBTnUYzIcIJZPTS+KQ+08IKs9M2VvRkqIFGgBmnjxo3WM89nn6t1OccMGZhtyc6M5p4Vco35rqAXgL/Lng1mP2TDJn43d4xkm9zdkR4eFmmiaJp/IxHgHjIkLkJ0eC1rNpDYcMO1qVOnKkFw8EWsBMFBMAOlqVxHNlkvUr4oGGqg61FeELJqsMchA2XstxpHfB6ExIz7UtTvqPHJP1g+oILl2reOm0IMiWktdZ2bUiJF8QzQDc1dO6na526NNDrmitruCg9EgmCGWuyrfXm+t27daqXxPvTQQ1aWg7nXAg00DTzd/9zYiSt9hmdYeZJ4kgSY+1LwO8QbIyRAfpeQhfzOao4USZIU0INB4STfNTJ/5n4Ydg2DGepUkaKz7wUlCM7iGRCtpb96CXdH7bDYPF8KrN1O4RJfFqZLUGKJATFoLwbhE0G4fAbLw9aifN2ayJKWFROuH7GXEL5wPcrVfRJ3BHnRiVR6SkoSBBoZ7jdAI8QqglydyirYXOWKQFGyd1Ip1Al2Oz71v50IyW6NxIpaJHpamPIoB+P83D6dO0OyjgLP5wqeJIHvCB4kCgzj8O+iF5B3hUlMZJFBrwDJAUWGJG9ckJheCPs18Qmj5XwlCM7etUoQnMUzoFrLdu5vHN25AVR9Mz+cRIHZDWZcVwYciCsu+2T6RBAC6s5I/GCSmyDYV8SyemVPaey4lTM3YiJBEDEiPzO3JA5U7YE5W/Z6AvxMQoiCGY0+vQjEjemfFHLS80LDHxEREafhoPfg8OHD2L17N5hF8Nhjj1nnMoWSWgD+zMwQqUwppEz+J3ngAoRei19//dXyWDDt0pyH+MiAOR6T9PDvWgch8c/mra5QguAsngHXWqGgkzj023bs+22P9aBXrFjRcivKYY83BhwAxoCSlSAcmIGu42PxyZDnAxLC5CQIInAzwwRS3IurU+7/wNVp/fr1Lde1SWrdQGy9uaHEEEvYhZu40WjT0PNnCRHQK0CvAkMQgh29CtzjgSJQhiWjoqKsUAS1AlxQcAvpfPnyxVWoFKPO86l72L59u3UedQ+mt8KbftvP0UqKSUEt4WuUIDiLZ8C2du+pXdiyab0lXHrmmWesF4DJ7t3wovWeIMTiTNQxRF8B7sqRE+mC0uLiuVM4efaCdX/clSMX0gVdxanjx3AhNi1y5cyBNH/PRNePz2PAq7WRJm0QcubIgTRpYvDPseO4HBuEkNw54EVFY7+9/5KTIMiKlN8h6Xn8mQaIKY1UxnN1Klscy6rZDfestzeE4CZEgKt7EgN6E2joSbBItpgOygWCGTrgd5AkhIaGWqSBONNzQO8ChaH0ElBb8OCDD1piQhIIfsbaC9QzMGOifPnylrfC1zlRguDtjHt3nhIE73DSswDcfXC95Q58/PHH41YQphAp0EHyliDs/mks2v18H2a+fBYjQotj1EtZ0OOZoegzbgj2fdMUW2pNRbmtIzH+/DPo/vD/YdrFbhhWMhT3V5+CmcvGYufwVggZGobYoc9hc6m30fSeA2g1LQ02fNrshrgxlYGdnATBDHlJHQMaPG5tzIJAjI3T82UXIur+IjduIkljjE+ELF5C+d8UHLIFYr1p0ybLEyBEjAsInsfwJOdAPBGysKCnglkHJBLUOjBbwVdywL4oQXD2xaAEwVk8A7q1TJdP48iGRZbngO5acQc68WCnBuC8JQjfvd4FuQeNQy1JM7x4ERfO/IEWHd4Azv2OIh0nI3j6GDSe9CUeveP6yA/MwItjovHV8HbYt2gwZt3bGzOblUeWYkWRCRew45dIbN4fiTvTx+U/pAbIbnLnJ1epZVMRL1UQaawYR6drm+XDZStzESKyY/6yEZE/TGRCAkbB0+yjPUWRRYqo8aBngYWWmMlgkgq2QVEjsx7o1aE2geFKehUofJY6C5wbX0mbEgRn7yYlCM7iGfCt0Yuwbds2a0VG5bLEegN+4NfFXPbdHJdPG4WlEf8gf92e6Fjp2uYHU/p1Rda+n6B+tuuoHFuGus2n4v3Zn6N05ED0/aMpMswcjTpff4VKmW8QBNEgCEH44ZWXMWnxNygkJCIVg5ycHgTegzRCsmqlaI5Ke8a1K1WqZLm1JRwmHgYxfL4apFQ8JTd13SwUZWZz8Gd7SrOIGvk/ww7mJk/UIPB8ki8pdCREzPT0SLvSCZk/XxcbShCcvSOVIDiLZ8C3FhRzCVHhs6y8Z6Yk0Yvglpestx6Efb9MQofvDqNXgxB8tiEr5rTLiTqvfIMeHRrg61HDcU/7z9Axy4/4cFN21H/oHCYcewILm/0dJ1IUglBx1auYfLQEnn0gCENDT2HZ928iXep0ICR7oSQaGMa0uUrds+eaoJaeA8a3xSVuCmqF2PpqkALlgbcTKBmX/F1+F7yEaDF0sHLlSkubwG2i7RUUeZ2EIe3eCJNoyM++vkuUIDh7RypBcBZPV7R2559rsW9vpJUyVrhwYVeMmYP0liC4BpBEDNQJD4JprEwXNkVw9BqwbgfT7bhLIasl0nNgGiExam7KvPF2iiR7wU6YzBLL4hkQbwPbJt4//fSTRQIaNGhwk3jZXn3RU1/sngpP58f3uRKEpKCW8DVKEJzF0xWtFb7wO9asXG5VPGNtBLccShCSPtNOEARZjQpR4P/0GJAccFdGpjAy7MWa/FLRz95jSYmUkr9JH1FgXUmhoVkgyiRgJiGQMsdS5ZDXUOvBdEVul00dgpCMlPDOKEFw9r5UguAsnq5oLWuai/htyVSrIh3duLK6DvTBK0FI+gw7QRDEuIuYjSEFiuNotKiEZ26+bL5kGjiJfZvuazO2nhKGLOlIJs+VpvDQ/AZiRw/NkSNHrA2UWDyJgk/x0PBzbvQUHh5u1UcgQSOeKYWpEgRn7w8lCM7i6ZrWTq6aYqUpsbiJWa89kAHwliBErgnDxZK1UFJEit6AcnonFv16FXWqXStXe9Nx5iDGTopEty5VE0xz3LXsB8xau/PaZaUa4a1n4mnH3u6+JVh1pRQqF8nlTQ99OscpgmCGGZg+RzEiPVlMZTRz8013tYQZOAAJM5giOV/j3j4B42cX2zUH/J2VEVevXm15GFhemcJEao/oPWSIkTUSWAOBCwaKQoUgpARJUILg7A2lBMFZPF3TWvDOn6wXBdOaWODEDYe3BGH+0B443XpM3M6IXmFzq0qKB9cjX7X52LdnMILjaWzigCb4Jfvz+PS15sxKx4K3mmN6+tYYN7AxJNMy3j4s7Y13LrTDwPrJHyZygiDIGCStkdX76Npu0qRJvNs2m14E7lbIsAL/mYZLBHRezVEqOkkMvYzV/nt8QxFPCz8TI0/vAckBPQgkBAwh8GcWQGIhpSJFiljZCgzzMLRD4bKEb5QgpKIbJoGuKkFI/XOYIiPIcHArDu7ZahEEvhjccCSOIIxCwyMfoFidEYi+ch6vTN6F1vgKU85lxVddhyJ95fZ4/7EodBo2B3VG78bEp5aj08tTMTt8OXLXeBfbpnTGxVNLUb3Q88hQohL2Hi2DfXveRs8qFTF1x1/IVKgi9m5YgKvbR+Dbow3QKtsm3FuzO+5t+QEO7jiJhU1XYEX+EehbKwRvVbkfX0amQ5cvFuOdRmXwy/f98Wz3CejeuTquVuqLN6rFonGep7Aj5+PI/08BTD/xMbaP74Hm/afgzsytEfH7qJs3mErCZDtBEMxQAXdnXLp0qVXpjwSB+yuIYTOrATK2zhXwrl27rNUvPQ3MvxevQUoYsSTAl6hLTENvFocSfBIiB+bnQihY6XD+/PlWPQmKklnQiAerIbIU8/79+63fuUhgmIfVEjXEkKjp8uuTlSD49fT4b+cyHo7An9s3WSEGJQg3z5PlQWj+AYoFHcLDBQoh7aHFaNVzM4a0O4G3T/TB5DY5MLxlJWTpvhRdypzFE9mfx8ztXdDpnb2YO/F17Jj2BtaW+h9mv9AZo9Z9jVy7F6BU0w3Yt6Q1DmfLj3zZMuLH4d0R9cL72P5YLXTa+RGGvTIfI74cgJM7xuK52Y9i/VtXMXrEaRS5Mh/nXx6OZiEZ8X69yqjw+pt458MdWBXaC1uG1cKcEiMRPH0sKo8bh8euHETevAMREV4FPb+/A1PeewFRez/Hu7/Wx8hmN/bfSMpd6RRBECPG7Ya5QyPTGOnWNrcGlvAByQONGAkCD1Hhc+MhGjJuQEYxo92j4A+kwZsVf0LzIHoCfi6ZBNRp8CCRis+rYG4FzfOkhgFLIi9atMjSHPCfSSLoXeA8sPw6tR+cA6nEmFIkQUMMSXk6E75GCYKzeLqmtfS7l1plVKlcdnOIYebIrpiy5jAebP8Rhja415r/ayGG93CudzusKVEdz+Y/iomhwRjR/grmFe6H14qnw6h27VBi2ATUyh6Fp7I1wqSIV/BF6F0Y1PNpHNr5GQbtao3NE4Zi8Zx3EXJmF54pPxmz9zRFl+r9UPQ//8W55VNQsN+XmNJlAr567TCGH2iAMR2fwOF1YzA7a3t0STcX/ZcWQp4dg5G2SidIEKjQHYfQd1UB/PT+M8Afn2PsjscROecjvPnF57j3ylk0zNsX73yRGf0WZceLTxe1xhNSrCqqF8/h073tK0Gwx8bp5uYWwRQm0vVtr8bHkAL3YWCWA93iFNDxbyQL3DeA6XlMg5RaHmJUk6s+gng1TO2DaCNk90LRRxBoGnTT4JqZG56Mrxh7tsNxUlzIFFC2T50APSgkSVLMSIy6TLBJIFj5cPHixVbYgN5C2c1VzjH7bM5RSpEsJQg+Pab/ulgJgrN4uqa1s2tnWCsHEgSqmt1wJCrE0LA32jV4F8cjx2P3t73R/ccQTPZAENr12Y65s99E2KCWyNbhe3zfuDGaTpuMUkfm4dG2kdj38WmMwMvo+2QmdK3XDI98HYawsh0xMPRRfLiyAD7p8gha1q+A98Mi8FGvPnj5vYk4OrsPvkrTGl+/WBozvpmKyjXyoWXz77F87Vgs61EXq2qNRK4fRyJLj4/QNMcu5M37KXZEvoB2PRdjxowPkXb7AmzOWg1P3nenT1PsK0EQD4BZoGfNmjVWLf8yZcrErVwln5+lfRcuXGiRgMqVK8fdo/yc7nHuHcASwXXr1rXc5+KWZz+TQ7RoEhAhBPKd4tngd9MgkxxQAGwnApLFcattqc1xMOOAoRUSIhY2o5GnoJDkgJiRLEgKo5AV/m9ueMX2qC+gDoHbOTNLwSRjKUUEEroZlSD49JgqQchUqIyzCLq0tWPLJloKZqY5+ttLIrmmxFuC8MuUTxH99MvIMrUu3gqNQeU27ZBl+yE0b3QP1uZpgSb5g/HD8OEo0KEPymc+jT6N3kHfzxpiypfLMX/NauRvPQJftqVwcCc61+qB4AcewYnzRfHd1+3Q9YVa+D0qN9p2qYYr97+I2vs7Y0G6V4ENY7Do77vw9mMn0WdyJMZ+8jGiYzOj3IMhmNi1ISZFAvVfG4MedYphb/gEdBk0He3aVcfVIo3RumJ69KvVHjszFsOKzWmxZ/8oHFv0KXqMnIOMWSti6rTByBjkG6pOEQQpycsKfizxy1ABXd+SwSBGlMaRFf74WenSpeMq/IkxZmoet4EuVaqU5V3g9bJq97RCTwoSQhBEFCn9lNAIwyEkLPRwMAzAsAkJOA9zlW5mYcTXD7Ndjo/tURtAIkWCcPDgQWzevNnyIpAcCfGip4GkiuSBWUlmeWSSFuo9GI7hgoAZDCIA9bdnXwlCUu7OhK9RD4KzeLqitWJX/8bPS8KsVQhfrm45vCUItxuPcY2qYsn9bfFFv0bXv3o1niwyGQv+mYZCXnTmvf82R4He41E53QY8MeYU9n/MbAhnD6cIgrixWQOBBpBVE7mypfGTYj/sOckBwxAksAwxmBkN/JwGmeI7xs5r1qxpie+S0+jJSp195PeI0p9iS67QKfajgRaDTaPOcdEoS8hA9AQ8JyHDbGoXGIKh94BEgIafB9tasmSJ5UlgaWR6Fkga2AdmJbFf/BsJBT0M8l1MJ2VaKbd6J7mQsslKEJx9TvytNSUI/jYjqaA/OY9twc6IrdYqR14iqaDbPnfRXwkCB3bq2EFEnblwfYwZcF/BvF7v2xBz4TT+PHgcSJMW+fMXQHBQGp+xsjfgFEGQdrnfAkMMrIEgbm9ZPfO7Zs6caa2Eafz5v7kZEQ0tDRxj6zSU9erVszIcxHMgRMFJEKRksRnvp8eAOgkSAxIVejMYEuGW6vSQsO8UYZpG38zkSKh/4mUggaLxZzs06nLQ0HMrbOJCAkIMiAlDLbyWwkP+TnJFISePiIgI6xpqNgoWLBhHWuz6BScxS0pb6kFICmoJX6MEwVk8A761dLiCmO1LrdUGVyAsb+uWw58Jgr/PgRMEQdz0NO4kBzSi3HacOwjKSpefMT9/1qxZluegevXqceSA54iLn21RuEd3uxBd08vgtA7B3MSIfSTBodFlWKNYsWJWqISrd3oy6E0ICwuzPAhmASgZoxlysM+7EAhmGHCPBIYO6EEgAZKDhIQaDH7GeaHegd8vXgZqNIgvvR30EFKETKwFK9Y+EM+BehD8/cnzrX9KEHzDz3VXp7t6BdGbF1rlV7ky4cpHXlyBDoYShKTPsBMEQVbS3HeBJZZJTqtVqxanPxAdAuPuDDEwBEYNAq8T8aIpsKOhnDdvXpyWRu7j5DB6ksXA7+B26Vu2bLGEk48++qi1cjdX4sw6YMyfq36SBK70zT6ZP9szB4QgsJAR/zFU8fjjj8dhJDPI51dCFiQm9roQ1GgwRZR1ENhP9v/8+fOoU6eORbycJlBJv7NuvlI9CE4hea0dJQjO4umK1rL+vQF/RO62Vl66m6MrptznQTpFEERVzyqKFStWtMILXOmK0eTqm5sHkRAwLY8u+oQMPq+bMWOGJbqTeHxy6RBMDQK1Afv27bNc9SQ49o2jmI7JrAG6+hs2bBhHwsUDIl4PscAhAAAHnUlEQVQQc1ymV4HaCxIMGnZ6UMR7cCujLgTG1DmQiLEtpjPTY0jPDIslEVPTG+PzzeFgA0oQHARTCYKzYLqltZLpjmPZogVxmzUlx4rLH7FUD0LSZ8VXgmCm+HFlS3c30xcpphNjxbLLjOnTbU9ywPi5pxg5DSkNIdX5efLkuSntL+mj/feVZvohhYmM55MAMLxAL4J4AkhaSBioQ+A57Bd1PlKzwJ5hIb9LaiJX+czuEO0BvRM8RwhKQiTB3LHRrsHgZwxHUNjJcIRUU+Qo/c2ToATBybtWPQjOoumi1i5unGO9dFhJUWLAgT58JQhJn2EnCIIo52n8KMBjBU8aWBpcCv727t1rueN5T9I9702cnNeY6ZDJIVA0V/5i0BnjpwaCGgN64uR7JY2Trn1qCPh3ejfkGTOzB8y+CoGiroEelAoVKliiR/EIeMJC2jK1EiYpMz0Lchf448JACULSn9H4rtQQg7N4uqa1jAc2Yf+e7ZbL0S1hhvgIwo7wBdj211ncXbYeahS9IQRzzY3g5UB9JQhiZGnARKRIrQFXs2ybxoxGlFkN9sqe8RkyWdHTe8CCSiQajPd7kyXg5ZBvOs3UQTClkEac/aSng6RGwgamUeb4SCToBaC3RPabML0BprCSxIneA4YWSJIYOjEJgt37YHZQQhSmp0MwF3ylj+Z1/kYSlCAk5e5M+BolCM7i6ZrWYv4v1BItMcbJ1Cw3HN56EI79thYbLpVAveIxmLX6KJo8eR+Whobh6QbPuQGmeMfoK0Gwp/oxhk8hHdslMWBRId6HdIGbRjMhoyiGkDF27jXAYkoUNJpVBJ2aLJMc0DPAOgT8m2gkZGxipM2qi/RuMIOAoRRmD3B8NPryz8SFeFC8yZAFPRM8OH5vKh+aaaASkuD1/LsZprETAiUITt0l/tmOEgT/nBe/7lWBc5FYF74aJUuWtFyZ8iLy60470DlvCYIDXxVwTThBEEzDT8NlF/fJ6luMlhi3WxkxhiboyheCYJYednIS2C5FfhRXktyQHFBbYLr+TSMtzxSrGPIa9pOeBhaGYuohhYdCDgQXCjSpqaB4kwRBPmdbnrQCQpgEM2nT9B6oB8HJOyJ1tKUEIXXMk9/0Mjj2Ms5snG9tfMM0R/Ee+NtKIjkA4xj5cmb8W4/EIcCVLxX7TmNnGkExqt7qCHge3fh0y0tJZvuopMBRfGREDK/0QfQB/Lv0QdIree9QcxAeHm6FM2jEpZyx+eyY45E2KBDkrooUYdKbIMRcyjTLCp/eEFaHpPaAoRYx7t4QBPu4b4Wht/gm7g5x5mwNMTiDo7SiBMFZPAO+tUKX9iN8+RKrsApfQub2sYE+eDeQoOScw+QgCL70l8afq2665Vkzgf+kyqIYV7u4jwafh7mtsRAC/m+K/ISw8H8ab34PyxgTBxIm8/P4xmHqAfgzxZgkGCQL1CSI9kcMNgsczZ0713o2KXy0CwvdcP8qQfDlifj3ta4iCEGZsiEo87UHU4+kIZDh/LWcaAqsKIJy0zF16lQ3DdfxsfKeoWbFnw6m7tF4U+zIwks04AmJGhP6uz1OL+MzQyIsysR6AvwOX7J+WBaZRICaC269bPaJxY8oVKRI0S1bsNvvJW7SxeJtzz77rD/dZqm2L64iCKl2lrTjioAioAgoAl4hoATBK5i8Osk1BMErNPQkRUARUAQUAUVAEbAQUIKgN4IioAgoAoqAIqAI/AsBJQh6UygCioAioAgoAoqAEgS9BxQBRUARUAQUAUXAMwLqQfCMkZ6hCCgCioAioAi4DgElCK6bch2wIqAIKAKKgCLgGQElCJ4x0jMUAUVAEVAEFAHXIaAEwXVTrgNWBBQBRUARUAQ8I6AEwTNGeoYioAgoAoqAIuA6BJQguG7KdcCKgCKgCCgCioBnBJQgeMZIz1AEFAFFQBFQBFyHgBIE1025DlgRUAQUAUVAEfCMgBIEzxjpGYqAIqAIKAKKgOsQUILguinXASsCioAioAgoAp4RUILgGSM9QxFQBBQBRUARcB0CShBcN+U6YEVAEVAEFAFFwDMCShA8Y6RnKAKKgCKgCCgCrkNACYLrplwHrAgoAoqAIqAIeEZACYJnjPQMRUARUAQUAUXAdQgoQXDdlOuAFQFFQBFQBBQBzwgoQfCMkZ6hCCgCioAioAi4DgElCK6bch2wIqAIKAKKgCLgGQElCJ4x0jMUAUVAEVAEFAHXIaAEwXVTrgNWBBQBRUARUAQ8I6AEwTNGeoYioAgoAoqAIuA6BJQguG7KdcCKgCKgCCgCioBnBJQgeMZIz1AEFAFFQBFQBFyHgBIE1025DlgRUAQUAUVAEfCMgBIEzxjpGYqAIqAIKAKKgOsQUILguinXASsCioAioAgoAp4RUILgGSM9QxFQBBQBRUARcB0CShBcN+U6YEVAEVAEFAFFwDMCShA8Y6RnKAKKgCKgCCgCrkNACYLrplwHrAgoAoqAIqAIeEZACYJnjPQMRUARUAQUAUXAdQgoQXDdlOuAFQFFQBFQBBQBzwgoQfCMkZ6hCCgCioAioAi4DgElCK6bch2wIqAIKAKKgCLgGQElCJ4x0jMUAUVAEVAEFAHXIfD/+TwnA/zLm48AAAAASUVORK5CYII=;" vertex="1" parent="1">
                    <mxGeometry x="390" y="430" width="436.24" height="250" as="geometry"/>
                </mxCell>
                <mxCell id="18" value="&lt;font color=&quot;#121212&quot;&gt;Edge locations: ubicaciones globales donde se almacena el contenido&amp;nbsp;&lt;/font&gt;" style="rounded=0;whiteSpace=wrap;html=1;labelBackgroundColor=#ede8e8;fontColor=#ffffff;fillColor=#d80073;strokeColor=#A50040;" vertex="1" parent="1">
                    <mxGeometry x="560" y="10" width="120" height="60" as="geometry"/>
                </mxCell>
                <mxCell id="19" value="" style="endArrow=classic;html=1;fontColor=#121212;exitX=0.41;exitY=0.993;exitDx=0;exitDy=0;exitPerimeter=0;entryX=0.5;entryY=0;entryDx=0;entryDy=0;" edge="1" parent="1" source="18" target="17">
                    <mxGeometry width="50" height="50" relative="1" as="geometry">
                        <mxPoint x="595" y="140" as="sourcePoint"/>
                        <mxPoint x="610" y="420" as="targetPoint"/>
                    </mxGeometry>
                </mxCell>
            </root>
        </mxGraphModel>
    </diagram>
</mxfile>